SplineFontDB: 3.0
FontName: Sansita-BlackItalic
FullName: Sansita-BlackItalic
FamilyName: Sansita
Weight: Black
Copyright: Copyright (c) 2011-2013, Omnibus-Type (www.omnibus-type.com omnibus.type@gmail.com) with Reserved Font Name 'Sansita'
Version: 001.004
ItalicAngle: -11
UnderlinePosition: -49.8047
UnderlineWidth: 49.8047
Ascent: 800
Descent: 200
sfntRevision: 0x00010106
LayerCount: 2
Layer: 0 1 "Back"  1
Layer: 1 1 "Fore"  0
XUID: [1021 809 -2065993493 15564552]
FSType: 8
OS2Version: 3
OS2_WeightWidthSlopeOnly: 0
OS2_UseTypoMetrics: 1
CreationTime: 1387883437
ModificationTime: 1388333628
PfmFamily: 81
TTFWeight: 900
TTFWidth: 5
LineGap: 0
VLineGap: 0
Panose: 0 0 10 0 0 0 0 0 0 0
OS2TypoAscent: 700
OS2TypoAOffset: 0
OS2TypoDescent: -180
OS2TypoDOffset: 0
OS2TypoLinegap: 320
OS2WinAscent: 1020
OS2WinAOffset: 0
OS2WinDescent: 180
OS2WinDOffset: 0
HheadAscent: 1020
HheadAOffset: 0
HheadDescent: -180
HheadDOffset: 0
OS2SubXSize: 650
OS2SubYSize: 600
OS2SubXOff: -15
OS2SubYOff: 75
OS2SupXSize: 650
OS2SupYSize: 600
OS2SupXOff: 68
OS2SupYOff: 350
OS2StrikeYSize: 50
OS2StrikeYPos: 306
OS2Vendor: 'UKWN'
OS2CodePages: 20000093.00000000
OS2UnicodeRanges: 00000007.00000000.00000000.00000000
Lookup: 1 0 0 "'aalt' Access All Alternates lookup 0"  {"'aalt' Access All Alternates lookup 0 subtable"  } ['aalt' ('DFLT' <'dflt' > 'grek' <'dflt' > 'latn' <'AZE ' 'CAT ' 'CRT ' 'ESP ' 'KAZ ' 'MOL ' 'NLD ' 'PLK ' 'ROM ' 'TAT ' 'TRK ' 'dflt' > ) ]
Lookup: 3 0 0 "'aalt' Access All Alternates lookup 1"  {"'aalt' Access All Alternates lookup 1 subtable"  } ['aalt' ('DFLT' <'dflt' > 'grek' <'dflt' > 'latn' <'AZE ' 'CAT ' 'CRT ' 'ESP ' 'KAZ ' 'MOL ' 'NLD ' 'PLK ' 'ROM ' 'TAT ' 'TRK ' 'dflt' > ) ]

StartChar: .notdef
Encoding: 65536 -1 0
Width: 513
Flags: MW
HStem: 0 50<49 389 49 459> 650 50<164 504 164 164>
VStem: -41 636
LayerCount: 2
UndoRedoHistory
Layer: 0
Undoes
EndUndoes
Redoes
EndRedoes
EndUndoRedoHistory
UndoRedoHistory
Layer: 1
Undoes
EndUndoes
Redoes
EndRedoes
EndUndoRedoHistory
Fore
SplineSet
389 50 m 1,0,-1
 267 305 l 1,1,-1
 49 50 l 1,2,-1
 389 50 l 1,0,-1
426 95 m 1,3,-1
 526 605 l 1,4,-1
 307 350 l 1,5,-1
 426 95 l 1,3,-1
26 95 m 1,6,-1
 247 350 l 1,7,-1
 126 605 l 1,8,-1
 26 95 l 1,6,-1
504 650 m 1,9,-1
 164 650 l 1,10,-1
 286 395 l 1,11,-1
 504 650 l 1,9,-1
95 700 m 1,12,-1
 595 700 l 1,13,-1
 459 0 l 1,14,-1
 -41 0 l 1,15,-1
 95 700 l 1,12,-1
EndSplineSet
Validated: 1
EndChar

StartChar: A
Encoding: 65 65 1
Width: 614
Flags: MW
HStem: 156 83<184 315 184 318 152 315> 490 170<302 302> 640 20G<267 531 531 531>
VStem: 309 235
LayerCount: 2
UndoRedoHistory
Layer: 0
Undoes
EndUndoes
Redoes
EndRedoes
EndUndoRedoHistory
UndoRedoHistory
Layer: 1
Undoes
EndUndoes
Redoes
EndRedoes
EndUndoRedoHistory
Fore
SplineSet
302 490 m 1,0,1
 267 422 267 422 184 239 c 1,2,-1
 315 239 l 1,3,-1
 302 490 l 1,0,1
556 199 m 1,4,5
 565 74 565 74 616 45 c 1,6,7
 598 15 598 15 563 -2.5 c 128,-1,8
 528 -20 528 -20 481 -20 c 0,9,10
 419 -20 419 -20 383 7 c 128,-1,11
 347 34 347 34 330 93 c 1,12,13
 321 129 321 129 318 156 c 1,14,-1
 152 156 l 1,15,16
 113 61 113 61 96 0 c 1,17,-1
 -56 0 l 1,18,-1
 267 660 l 1,19,-1
 531 660 l 1,20,-1
 556 199 l 1,4,5
EndSplineSet
Validated: 8388609
Substitution2: "Single Substitution lookup 21 subtable" ordfeminine
Substitution2: "'aalt' Access All Alternates lookup 0 subtable" ordfeminine
Position2: "'cpsp' Capital Spacing lookup 3 subtable" dx=5 dy=0 dh=10 dv=0
EndChar

StartChar: Aacute
Encoding: 193 193 2
Width: 614
Flags: MW
HStem: 156 83<184 315 184 318 152 315> 490 170<302 302> 640 20G<267 531 531 531>
VStem: -56 672 309 235
LayerCount: 2
UndoRedoHistory
Layer: 0
Undoes
EndUndoes
Redoes
EndRedoes
EndUndoRedoHistory
UndoRedoHistory
Layer: 1
Undoes
EndUndoes
Redoes
EndRedoes
EndUndoRedoHistory
Fore
SplineSet
302 490 m 1,0,1
 267 422 267 422 184 239 c 1,2,-1
 315 239 l 1,3,-1
 302 490 l 1,0,1
556 199 m 1,4,5
 565 74 565 74 616 45 c 1,6,7
 598 15 598 15 563 -2.5 c 128,-1,8
 528 -20 528 -20 481 -20 c 0,9,10
 419 -20 419 -20 383 7 c 128,-1,11
 347 34 347 34 330 93 c 1,12,13
 321 129 321 129 318 156 c 1,14,-1
 152 156 l 1,15,16
 113 61 113 61 96 0 c 1,17,-1
 -56 0 l 1,18,-1
 267 660 l 1,19,-1
 531 660 l 1,20,-1
 556 199 l 1,4,5
317 760 m 1,21,-1
 567 869 l 1,22,23
 583 856 583 856 590.5 843 c 128,-1,24
 598 830 598 830 598 810 c 0,25,26
 598 761 598 761 557 737 c 128,-1,27
 516 713 516 713 451 712 c 2,28,-1
 331 709 l 1,29,-1
 317 760 l 1,21,-1
EndSplineSet
Validated: 8388609
Position2: "'cpsp' Capital Spacing lookup 3 subtable" dx=5 dy=0 dh=10 dv=0
EndChar

StartChar: Abreve
Encoding: 258 258 3
Width: 614
Flags: MW
HStem: 156 83<184 315 184 318 152 315> 490 170<302 302> 640 20G<267 531 531 531> 700 133<324 384 456 459>
VStem: 204 175<778 779 770 811> 309 235
LayerCount: 2
UndoRedoHistory
Layer: 0
Undoes
EndUndoes
Redoes
EndRedoes
EndUndoRedoHistory
UndoRedoHistory
Layer: 1
Undoes
EndUndoes
Redoes
EndRedoes
EndUndoRedoHistory
Fore
SplineSet
302 490 m 1,0,1
 267 422 267 422 184 239 c 1,2,-1
 315 239 l 1,3,-1
 302 490 l 1,0,1
556 199 m 1,4,5
 565 74 565 74 616 45 c 1,6,7
 598 15 598 15 563 -2.5 c 128,-1,8
 528 -20 528 -20 481 -20 c 0,9,10
 419 -20 419 -20 383 7 c 128,-1,11
 347 34 347 34 330 93 c 1,12,13
 321 129 321 129 318 156 c 1,14,-1
 152 156 l 1,15,16
 113 61 113 61 96 0 c 1,17,-1
 -56 0 l 1,18,-1
 267 660 l 1,19,-1
 531 660 l 1,20,-1
 556 199 l 1,4,5
384 833 m 1,21,22
 380 805 380 805 380 792 c 0,23,24
 380 790 380 790 379.5 784.5 c 128,-1,25
 379 779 379 779 379 776 c 0,26,27
 379 749 379 749 407 749 c 0,28,29
 415 749 415 749 422 752.5 c 128,-1,30
 429 756 429 756 433 761.5 c 128,-1,31
 437 767 437 767 440.5 776.5 c 128,-1,32
 444 786 444 786 446 793.5 c 128,-1,33
 448 801 448 801 451 813.5 c 128,-1,34
 454 826 454 826 456 833 c 1,35,-1
 627 833 l 1,36,37
 614 774 614 774 552.5 737 c 128,-1,38
 491 700 491 700 391 700 c 0,39,40
 296 700 296 700 250 730 c 128,-1,41
 204 760 204 760 204 806 c 0,42,43
 204 818 204 818 207 833 c 1,44,-1
 384 833 l 1,21,22
EndSplineSet
Validated: 8388609
Position2: "'cpsp' Capital Spacing lookup 3 subtable" dx=5 dy=0 dh=10 dv=0
EndChar

StartChar: Acircumflex
Encoding: 194 194 4
Width: 614
Flags: MW
HStem: 156 83<184 315 184 318 152 315> 490 170<302 302> 640 20G<267 531 531 531>
VStem: -56 672 309 235
LayerCount: 2
UndoRedoHistory
Layer: 0
Undoes
EndUndoes
Redoes
EndRedoes
EndUndoRedoHistory
UndoRedoHistory
Layer: 1
Undoes
EndUndoes
Redoes
EndRedoes
EndUndoRedoHistory
Fore
SplineSet
302 490 m 1,0,1
 267 422 267 422 184 239 c 1,2,-1
 315 239 l 1,3,-1
 302 490 l 1,0,1
556 199 m 1,4,5
 565 74 565 74 616 45 c 1,6,7
 598 15 598 15 563 -2.5 c 128,-1,8
 528 -20 528 -20 481 -20 c 0,9,10
 419 -20 419 -20 383 7 c 128,-1,11
 347 34 347 34 330 93 c 1,12,13
 321 129 321 129 318 156 c 1,14,-1
 152 156 l 1,15,16
 113 61 113 61 96 0 c 1,17,-1
 -56 0 l 1,18,-1
 267 660 l 1,19,-1
 531 660 l 1,20,-1
 556 199 l 1,4,5
546 689 m 1,21,-1
 423 726 l 1,22,-1
 266 689 l 1,23,-1
 233 734 l 1,24,-1
 413 854 l 1,25,-1
 458 854 l 1,26,-1
 601 734 l 1,27,-1
 546 689 l 1,21,-1
EndSplineSet
Validated: 8388609
Position2: "'cpsp' Capital Spacing lookup 3 subtable" dx=5 dy=0 dh=10 dv=0
EndChar

StartChar: Adieresis
Encoding: 196 196 5
Width: 614
Flags: MW
HStem: 156 83<184 315 184 318 152 315> 490 170<302 302> 640 20G<267 531 531 531> 690 169<246 311 495 560>
VStem: 158 237<747 799> 309 235 407 237<747 799>
LayerCount: 2
UndoRedoHistory
Layer: 0
Undoes
EndUndoes
Redoes
EndRedoes
EndUndoRedoHistory
UndoRedoHistory
Layer: 1
Undoes
EndUndoes
Redoes
EndRedoes
EndUndoRedoHistory
Fore
SplineSet
302 490 m 1,0,1
 267 422 267 422 184 239 c 1,2,-1
 315 239 l 1,3,-1
 302 490 l 1,0,1
556 199 m 1,4,5
 565 74 565 74 616 45 c 1,6,7
 598 15 598 15 563 -2.5 c 128,-1,8
 528 -20 528 -20 481 -20 c 0,9,10
 419 -20 419 -20 383 7 c 128,-1,11
 347 34 347 34 330 93 c 1,12,13
 321 129 321 129 318 156 c 1,14,-1
 152 156 l 1,15,16
 113 61 113 61 96 0 c 1,17,-1
 -56 0 l 1,18,-1
 267 660 l 1,19,-1
 531 660 l 1,20,-1
 556 199 l 1,4,5
529 859 m 0,21,22
 580 859 580 859 612 835.5 c 128,-1,23
 644 812 644 812 644 774 c 0,24,25
 644 734 644 734 611 712 c 128,-1,26
 578 690 578 690 525 690 c 128,-1,27
 472 690 472 690 439.5 711.5 c 128,-1,28
 407 733 407 733 407 772 c 0,29,30
 407 812 407 812 442 835.5 c 128,-1,31
 477 859 477 859 529 859 c 0,21,22
280 859 m 0,32,33
 331 859 331 859 363 835.5 c 128,-1,34
 395 812 395 812 395 774 c 0,35,36
 395 734 395 734 362 712 c 128,-1,37
 329 690 329 690 276 690 c 128,-1,38
 223 690 223 690 190.5 711.5 c 128,-1,39
 158 733 158 733 158 772 c 0,40,41
 158 812 158 812 193 835.5 c 128,-1,42
 228 859 228 859 280 859 c 0,32,33
EndSplineSet
Validated: 8388609
Position2: "'cpsp' Capital Spacing lookup 3 subtable" dx=5 dy=0 dh=10 dv=0
EndChar

StartChar: Agrave
Encoding: 192 192 6
Width: 614
Flags: MW
HStem: 156 83<184 315 184 318 152 315> 490 170<302 302> 640 20G<267 531 531 531> 711 50
VStem: -56 672 309 235
LayerCount: 2
UndoRedoHistory
Layer: 0
Undoes
EndUndoes
Redoes
EndRedoes
EndUndoRedoHistory
UndoRedoHistory
Layer: 1
Undoes
EndUndoes
Redoes
EndRedoes
EndUndoRedoHistory
Fore
SplineSet
302 490 m 1,0,1
 267 422 267 422 184 239 c 1,2,-1
 315 239 l 1,3,-1
 302 490 l 1,0,1
556 199 m 1,4,5
 565 74 565 74 616 45 c 1,6,7
 598 15 598 15 563 -2.5 c 128,-1,8
 528 -20 528 -20 481 -20 c 0,9,10
 419 -20 419 -20 383 7 c 128,-1,11
 347 34 347 34 330 93 c 1,12,13
 321 129 321 129 318 156 c 1,14,-1
 152 156 l 1,15,16
 113 61 113 61 96 0 c 1,17,-1
 -56 0 l 1,18,-1
 267 660 l 1,19,-1
 531 660 l 1,20,-1
 556 199 l 1,4,5
512 710 m 1,21,-1
 391 713 l 2,22,23
 349 714 349 714 317.5 723.5 c 128,-1,24
 286 733 286 733 265.5 755.5 c 128,-1,25
 245 778 245 778 245 812 c 0,26,27
 245 847 245 847 276 870 c 1,28,-1
 526 762 l 1,29,-1
 512 710 l 1,21,-1
EndSplineSet
Validated: 8388609
Position2: "'cpsp' Capital Spacing lookup 3 subtable" dx=5 dy=0 dh=10 dv=0
EndChar

StartChar: Amacron
Encoding: 256 256 7
Width: 614
Flags: MW
HStem: 156 83<184 315 184 318 152 315> 490 170<302 302> 640 20G<267 531 531 531> 742 96<320 497 252 573>
VStem: -56 672 309 235
LayerCount: 2
UndoRedoHistory
Layer: 0
Undoes
EndUndoes
Redoes
EndRedoes
EndUndoRedoHistory
UndoRedoHistory
Layer: 1
Undoes
EndUndoes
Redoes
EndRedoes
EndUndoRedoHistory
Fore
SplineSet
302 490 m 1,0,1
 267 422 267 422 184 239 c 1,2,-1
 315 239 l 1,3,-1
 302 490 l 1,0,1
556 199 m 1,4,5
 565 74 565 74 616 45 c 1,6,7
 598 15 598 15 563 -2.5 c 128,-1,8
 528 -20 528 -20 481 -20 c 0,9,10
 419 -20 419 -20 383 7 c 128,-1,11
 347 34 347 34 330 93 c 1,12,13
 321 129 321 129 318 156 c 1,14,-1
 152 156 l 1,15,16
 113 61 113 61 96 0 c 1,17,-1
 -56 0 l 1,18,-1
 267 660 l 1,19,-1
 531 660 l 1,20,-1
 556 199 l 1,4,5
573 838 m 1,21,22
 577 822 577 822 577 808 c 0,23,24
 577 779 577 779 556.5 760.5 c 128,-1,25
 536 742 536 742 497 742 c 2,26,-1
 252 742 l 1,27,28
 249 751 249 751 249 770 c 0,29,30
 249 800 249 800 269.5 819 c 128,-1,31
 290 838 290 838 320 838 c 2,32,-1
 573 838 l 1,21,22
EndSplineSet
Validated: 8388609
Position2: "'cpsp' Capital Spacing lookup 3 subtable" dx=5 dy=0 dh=10 dv=0
EndChar

StartChar: Aogonek
Encoding: 260 260 8
Width: 614
Flags: MW
HStem: -258 99<527 538> -37 20G 156 83<184 315 184 318 152 315> 490 170<302 302> 640 20G<267 531 531 531>
VStem: 309 235 367 132<-131 -123>
LayerCount: 2
UndoRedoHistory
Layer: 0
Undoes
EndUndoes
Redoes
EndRedoes
EndUndoRedoHistory
UndoRedoHistory
Layer: 1
Undoes
EndUndoes
Redoes
EndRedoes
EndUndoRedoHistory
Fore
SplineSet
315 239 m 1,0,-1
 302 490 l 1,1,2
 267 422 267 422 184 239 c 1,3,-1
 315 239 l 1,0,-1
585 10 m 0,4,5
 546 -17 546 -17 522.5 -50 c 128,-1,6
 499 -83 499 -83 499 -115 c 0,7,8
 499 -138 499 -138 509.5 -148.5 c 128,-1,9
 520 -159 520 -159 541 -159 c 0,10,11
 580 -159 580 -159 601 -134 c 1,12,13
 620 -161 620 -161 620 -194 c 0,14,15
 620 -221 620 -221 588 -239.5 c 128,-1,16
 556 -258 556 -258 495 -258 c 128,-1,17
 434 -258 434 -258 400.5 -231.5 c 128,-1,18
 367 -205 367 -205 367 -154 c 0,19,20
 367 -67 367 -67 443 -17 c 1,21,22
 398 -10 398 -10 371 17 c 128,-1,23
 344 44 344 44 330 93 c 1,24,25
 321 129 321 129 318 156 c 1,26,-1
 152 156 l 1,27,28
 113 61 113 61 96 0 c 1,29,-1
 -56 0 l 1,30,-1
 267 660 l 1,31,-1
 531 660 l 1,32,-1
 556 199 l 1,33,34
 565 74 565 74 616 45 c 1,35,36
 604 24 604 24 585 10 c 0,4,5
EndSplineSet
Validated: 8388609
Position2: "'cpsp' Capital Spacing lookup 3 subtable" dx=5 dy=0 dh=10 dv=0
EndChar

StartChar: Aring
Encoding: 197 197 9
Width: 614
Flags: MW
HStem: 156 83<184 315 184 318 152 315> 490 170<302 302> 640 20G<267 531 531 531> 690 38<393 423 393 430> 813 41<410 439>
VStem: 300 73<749 776 749 789> 309 235 457 72<765 792>
LayerCount: 2
UndoRedoHistory
Layer: 0
Undoes
EndUndoes
Redoes
EndRedoes
EndUndoRedoHistory
UndoRedoHistory
Layer: 1
Undoes
EndUndoes
Redoes
EndRedoes
EndUndoRedoHistory
Fore
SplineSet
302 490 m 1,0,1
 267 422 267 422 184 239 c 1,2,-1
 315 239 l 1,3,-1
 302 490 l 1,0,1
556 199 m 1,4,5
 565 74 565 74 616 45 c 1,6,7
 598 15 598 15 563 -2.5 c 128,-1,8
 528 -20 528 -20 481 -20 c 0,9,10
 419 -20 419 -20 383 7 c 128,-1,11
 347 34 347 34 330 93 c 1,12,13
 321 129 321 129 318 156 c 1,14,-1
 152 156 l 1,15,16
 113 61 113 61 96 0 c 1,17,-1
 -56 0 l 1,18,-1
 267 660 l 1,19,-1
 531 660 l 1,20,-1
 556 199 l 1,4,5
457 781 m 0,21,22
 457 798 457 798 450.5 805.5 c 128,-1,23
 444 813 444 813 429 813 c 0,24,25
 401 813 401 813 387 799 c 128,-1,26
 373 785 373 785 373 760 c 0,27,28
 373 743 373 743 380 735.5 c 128,-1,29
 387 728 387 728 404 728 c 0,30,31
 457 728 457 728 457 781 c 0,21,22
529 784 m 0,32,33
 529 742 529 742 489.5 716 c 128,-1,34
 450 690 450 690 395 690 c 0,35,36
 352 690 352 690 326 708.5 c 128,-1,37
 300 727 300 727 300 759 c 0,38,39
 300 801 300 801 341 827.5 c 128,-1,40
 382 854 382 854 439 854 c 0,41,42
 481 854 481 854 505 836 c 128,-1,43
 529 818 529 818 529 784 c 0,32,33
EndSplineSet
Validated: 8388609
Position2: "'cpsp' Capital Spacing lookup 3 subtable" dx=5 dy=0 dh=10 dv=0
EndChar

StartChar: Aringacute
Encoding: 506 506 10
Width: 614
Flags: MW
HStem: 156 83<184 315 184 318 152 315> 640 20G<267 294 294 294 379 409 491 531 531 531> 745 41<396 425>
VStem: 286 73<685 708 681 721> 309 235 443 72<705 724>
LayerCount: 2
UndoRedoHistory
Layer: 0
Undoes
EndUndoes
Redoes
EndRedoes
EndUndoRedoHistory
UndoRedoHistory
Layer: 1
Undoes
EndUndoes
Redoes
EndRedoes
EndUndoRedoHistory
Fore
SplineSet
315 239 m 1,0,-1
 302 490 l 1,1,2
 267 422 267 422 184 239 c 1,3,-1
 315 239 l 1,0,-1
359 692 m 0,4,5
 359 675 359 675 366.5 667.5 c 128,-1,6
 374 660 374 660 390 660 c 0,7,8
 443 660 443 660 443 713 c 0,9,10
 443 730 443 730 436.5 737.5 c 128,-1,11
 430 745 430 745 415 745 c 0,12,13
 387 745 387 745 373 731 c 128,-1,14
 359 717 359 717 359 692 c 0,4,5
556 199 m 1,15,16
 565 74 565 74 616 45 c 1,17,18
 598 15 598 15 563 -2.5 c 128,-1,19
 528 -20 528 -20 481 -20 c 0,20,21
 419 -20 419 -20 383 7 c 128,-1,22
 347 34 347 34 330 93 c 1,23,24
 321 129 321 129 318 156 c 1,25,-1
 152 156 l 1,26,27
 113 61 113 61 96 0 c 1,28,-1
 -56 0 l 1,29,-1
 267 660 l 1,30,-1
 294 660 l 1,31,32
 286 674 286 674 286 691 c 0,33,34
 286 733 286 733 327 759.5 c 128,-1,35
 368 786 368 786 425 786 c 0,36,37
 467 786 467 786 491 768 c 128,-1,38
 515 750 515 750 515 716 c 0,39,40
 515 684 515 684 491 660 c 1,41,-1
 531 660 l 1,42,-1
 556 199 l 1,15,16
331 792 m 1,43,-1
 317 843 l 1,44,-1
 567 952 l 1,45,46
 583 939 583 939 590.5 926 c 128,-1,47
 598 913 598 913 598 893 c 0,48,49
 598 844 598 844 557 820 c 128,-1,50
 516 796 516 796 451 795 c 2,51,-1
 331 792 l 1,43,-1
EndSplineSet
Validated: 8388609
Position2: "'cpsp' Capital Spacing lookup 3 subtable" dx=5 dy=0 dh=10 dv=0
EndChar

StartChar: Atilde
Encoding: 195 195 11
Width: 614
Flags: MW
HStem: 156 83<184 315 184 318 152 315> 490 170<302 302> 640 20G<267 531 531 531> 721 119<517 553 517 553> 740 117<282 316>
VStem: -56 682 309 235
LayerCount: 2
UndoRedoHistory
Layer: 0
Undoes
EndUndoes
Redoes
EndRedoes
EndUndoRedoHistory
UndoRedoHistory
Layer: 1
Undoes
EndUndoes
Redoes
EndRedoes
EndUndoRedoHistory
Fore
SplineSet
302 490 m 1,0,1
 267 422 267 422 184 239 c 1,2,-1
 315 239 l 1,3,-1
 302 490 l 1,0,1
556 199 m 1,4,5
 565 74 565 74 616 45 c 1,6,7
 598 15 598 15 563 -2.5 c 128,-1,8
 528 -20 528 -20 481 -20 c 0,9,10
 419 -20 419 -20 383 7 c 128,-1,11
 347 34 347 34 330 93 c 1,12,13
 321 129 321 129 318 156 c 1,14,-1
 152 156 l 1,15,16
 113 61 113 61 96 0 c 1,17,-1
 -56 0 l 1,18,-1
 267 660 l 1,19,-1
 531 660 l 1,20,-1
 556 199 l 1,4,5
605 857 m 1,21,22
 626 832 626 832 626 801 c 0,23,24
 626 762 626 762 598 741.5 c 128,-1,25
 570 721 570 721 520 721 c 0,26,27
 492 721 492 721 403 730.5 c 128,-1,28
 314 740 314 740 296 740 c 0,29,30
 276 740 276 740 255 734.5 c 128,-1,31
 234 729 234 729 224 722 c 1,32,33
 202 751 202 751 202 784 c 0,34,35
 202 819 202 819 230 838 c 128,-1,36
 258 857 258 857 310 857 c 0,37,38
 342 857 342 857 430 848.5 c 128,-1,39
 518 840 518 840 540 840 c 0,40,41
 586 840 586 840 605 857 c 1,21,22
EndSplineSet
Validated: 8388609
Position2: "'cpsp' Capital Spacing lookup 3 subtable" dx=5 dy=0 dh=10 dv=0
EndChar

StartChar: AE
Encoding: 198 198 12
Width: 802
Flags: MW
HStem: -20 171<625 635> 177 77<195 364 233 354> 265 127<670 718> 520 140<720 772> 547 113<625 625> 559 101
VStem: -61 923<0 660> 354 218<157 238 177 238>
LayerCount: 2
UndoRedoHistory
Layer: 0
Undoes
EndUndoes
Redoes
EndRedoes
EndUndoRedoHistory
UndoRedoHistory
Layer: 1
Undoes
EndUndoes
Redoes
EndRedoes
EndUndoRedoHistory
Fore
SplineSet
364 254 m 1,0,1
 365 264 365 264 372 309 c 128,-1,2
 379 354 379 354 389.5 418.5 c 128,-1,3
 400 483 400 483 412 559 c 1,4,5
 313 410 313 410 233 254 c 1,6,-1
 364 254 l 1,0,1
195 177 m 1,7,8
 175 137 175 137 165 115 c 128,-1,9
 155 93 155 93 142 61.5 c 128,-1,10
 129 30 129 30 115 0 c 1,11,-1
 -61 0 l 1,12,-1
 341 660 l 1,13,-1
 862 660 l 1,14,15
 862 591 862 591 827.5 555.5 c 128,-1,16
 793 520 793 520 735 520 c 0,17,18
 680 520 680 520 625 547 c 1,19,-1
 599 392 l 1,20,-1
 790 392 l 1,21,22
 790 332 790 332 762.5 298.5 c 128,-1,23
 735 265 735 265 684 265 c 0,24,25
 662 265 662 265 633.5 271.5 c 128,-1,26
 605 278 605 278 584 290 c 1,27,28
 580 284 580 284 576 264.5 c 128,-1,29
 572 245 572 245 572 223 c 0,30,31
 572 180 572 180 590 165.5 c 128,-1,32
 608 151 608 151 657 151 c 0,33,34
 725 151 725 151 770 168 c 1,35,36
 780 141 780 141 780 109 c 0,37,38
 780 -20 780 -20 589 -20 c 0,39,40
 537 -20 537 -20 496 -10 c 128,-1,41
 455 -0 455 -0 422.5 20 c 128,-1,42
 390 40 390 40 372 75 c 128,-1,43
 354 110 354 110 354 157 c 2,44,-1
 354 177 l 1,45,-1
 195 177 l 1,7,8
EndSplineSet
Validated: 8388609
Position2: "'cpsp' Capital Spacing lookup 3 subtable" dx=5 dy=0 dh=10 dv=0
EndChar

StartChar: AEacute
Encoding: 508 508 13
Width: 802
Flags: MW
HStem: -20 171<625 635> 177 77<195 364 233 354> 265 127<670 718> 520 140<720 772> 547 113<625 625> 559 101
VStem: -61 923<0 660> 354 218<157 238 177 238>
LayerCount: 2
UndoRedoHistory
Layer: 0
Undoes
EndUndoes
Redoes
EndRedoes
EndUndoRedoHistory
UndoRedoHistory
Layer: 1
Undoes
EndUndoes
Redoes
EndRedoes
EndUndoRedoHistory
Fore
SplineSet
364 254 m 1,0,1
 365 264 365 264 372 309 c 128,-1,2
 379 354 379 354 389.5 418.5 c 128,-1,3
 400 483 400 483 412 559 c 1,4,5
 313 410 313 410 233 254 c 1,6,-1
 364 254 l 1,0,1
195 177 m 1,7,8
 175 137 175 137 165 115 c 128,-1,9
 155 93 155 93 142 61.5 c 128,-1,10
 129 30 129 30 115 0 c 1,11,-1
 -61 0 l 1,12,-1
 341 660 l 1,13,-1
 862 660 l 1,14,15
 862 591 862 591 827.5 555.5 c 128,-1,16
 793 520 793 520 735 520 c 0,17,18
 680 520 680 520 625 547 c 1,19,-1
 599 392 l 1,20,-1
 790 392 l 1,21,22
 790 332 790 332 762.5 298.5 c 128,-1,23
 735 265 735 265 684 265 c 0,24,25
 662 265 662 265 633.5 271.5 c 128,-1,26
 605 278 605 278 584 290 c 1,27,28
 580 284 580 284 576 264.5 c 128,-1,29
 572 245 572 245 572 223 c 0,30,31
 572 180 572 180 590 165.5 c 128,-1,32
 608 151 608 151 657 151 c 0,33,34
 725 151 725 151 770 168 c 1,35,36
 780 141 780 141 780 109 c 0,37,38
 780 -20 780 -20 589 -20 c 0,39,40
 537 -20 537 -20 496 -10 c 128,-1,41
 455 -0 455 -0 422.5 20 c 128,-1,42
 390 40 390 40 372 75 c 128,-1,43
 354 110 354 110 354 157 c 2,44,-1
 354 177 l 1,45,-1
 195 177 l 1,7,8
428 760 m 1,46,-1
 678 869 l 1,47,48
 694 856 694 856 701.5 843.5 c 128,-1,49
 709 831 709 831 709 810 c 0,50,51
 709 761 709 761 668 737 c 128,-1,52
 627 713 627 713 562 712 c 2,53,-1
 442 709 l 1,54,-1
 428 760 l 1,46,-1
EndSplineSet
Validated: 8388609
Position2: "'cpsp' Capital Spacing lookup 3 subtable" dx=5 dy=0 dh=10 dv=0
EndChar

StartChar: B
Encoding: 66 66 14
Width: 631
Flags: MW
HStem: -20 20G<-10 -10> -3 73<159 258> 599 64<362 389>
VStem: 386 230<184 246> 439 191<493 545>
LayerCount: 2
UndoRedoHistory
Layer: 0
Undoes
EndUndoes
Redoes
EndRedoes
EndUndoRedoHistory
UndoRedoHistory
Layer: 1
Undoes
EndUndoes
Redoes
EndRedoes
EndUndoRedoHistory
Fore
SplineSet
116 660 m 1,0,1
 207 663 207 663 325 663 c 0,2,3
 364 663 364 663 388.5 662.5 c 128,-1,4
 413 662 413 662 448.5 659.5 c 128,-1,5
 484 657 484 657 506.5 651.5 c 128,-1,6
 529 646 529 646 555 636.5 c 128,-1,7
 581 627 581 627 595.5 614 c 128,-1,8
 610 601 610 601 620 580.5 c 128,-1,9
 630 560 630 560 630 533 c 0,10,11
 630 475 630 475 589 433.5 c 128,-1,12
 548 392 548 392 487 375 c 1,13,14
 616 356 616 356 616 220 c 0,15,16
 616 170 616 170 597.5 131.5 c 128,-1,17
 579 93 579 93 544.5 67.5 c 128,-1,18
 510 42 510 42 458 26.5 c 128,-1,19
 406 11 406 11 343.5 4 c 128,-1,20
 281 -3 281 -3 201 -3 c 2,21,-1
 159 -3 l 2,22,23
 61 -3 61 -3 -10 0 c 1,24,-1
 116 660 l 1,0,1
318 385 m 1,25,26
 346 386 346 386 367.5 394.5 c 128,-1,27
 389 403 389 403 402.5 415.5 c 128,-1,28
 416 428 416 428 424.5 445.5 c 128,-1,29
 433 463 433 463 436 480 c 128,-1,30
 439 497 439 497 439 516 c 0,31,32
 439 559 439 559 420.5 579 c 128,-1,33
 402 599 402 599 361 599 c 1,34,-1
 362 600 l 1,35,-1
 360 600 l 1,36,-1
 318 385 l 1,25,26
258 70 m 1,37,38
 289 70 289 70 312 79.5 c 128,-1,39
 335 89 335 89 349 103.5 c 128,-1,40
 363 118 363 118 371.5 138 c 128,-1,41
 380 158 380 158 383 176 c 128,-1,42
 386 194 386 194 386 214 c 0,43,44
 386 262 386 262 367 287 c 128,-1,45
 348 312 348 312 305 317 c 1,46,-1
 258 70 l 1,37,38
EndSplineSet
Validated: 8388609
Position2: "'cpsp' Capital Spacing lookup 3 subtable" dx=5 dy=0 dh=10 dv=0
EndChar

StartChar: C
Encoding: 67 67 15
Width: 658
Flags: MW
HStem: -20 181<387 427> 609 71<395 459>
VStem: 34 261<245 342 245 396> 492 195<524 540>
LayerCount: 2
UndoRedoHistory
Layer: 0
Undoes
EndUndoes
Redoes
EndRedoes
EndUndoRedoHistory
UndoRedoHistory
Layer: 1
Undoes
EndUndoes
Redoes
EndRedoes
EndUndoRedoHistory
Fore
SplineSet
469 680 m 0,0,1
 687 680 687 680 687 564 c 0,2,3
 687 506 687 506 639.5 466.5 c 128,-1,4
 592 427 592 427 528 427 c 0,5,6
 503 427 503 427 483 429 c 1,7,8
 492 479 492 479 492 516 c 0,9,10
 492 609 492 609 438 609 c 0,11,12
 414 609 414 609 390.5 585.5 c 128,-1,13
 367 562 367 562 350 526 c 128,-1,14
 333 490 333 490 320.5 447 c 128,-1,15
 308 404 308 404 301.5 363.5 c 128,-1,16
 295 323 295 323 295 292 c 0,17,18
 295 222 295 222 328.5 191.5 c 128,-1,19
 362 161 362 161 433 161 c 0,20,21
 550 161 550 161 603 214 c 1,22,23
 626 195 626 195 626 144 c 0,24,25
 626 113 626 113 606.5 84 c 128,-1,26
 587 55 587 55 551 31.5 c 128,-1,27
 515 8 515 8 458 -6 c 128,-1,28
 401 -20 401 -20 332 -20 c 0,29,30
 181 -20 181 -20 107.5 50.5 c 128,-1,31
 34 121 34 121 34 269 c 0,32,33
 34 460 34 460 149 570 c 128,-1,34
 264 680 264 680 469 680 c 0,0,1
EndSplineSet
Validated: 1
Position2: "'cpsp' Capital Spacing lookup 3 subtable" dx=5 dy=0 dh=10 dv=0
EndChar

StartChar: Cacute
Encoding: 262 262 16
Width: 658
Flags: MW
HStem: -20 181<387 427> 609 71<395 459>
VStem: 34 261<245 342 245 396> 492 195<524 540>
LayerCount: 2
UndoRedoHistory
Layer: 0
Undoes
EndUndoes
Redoes
EndRedoes
EndUndoRedoHistory
UndoRedoHistory
Layer: 1
Undoes
EndUndoes
Redoes
EndRedoes
EndUndoRedoHistory
Fore
SplineSet
469 680 m 0,0,1
 687 680 687 680 687 564 c 0,2,3
 687 506 687 506 639.5 466.5 c 128,-1,4
 592 427 592 427 528 427 c 0,5,6
 503 427 503 427 483 429 c 1,7,8
 492 479 492 479 492 516 c 0,9,10
 492 609 492 609 438 609 c 0,11,12
 414 609 414 609 390.5 585.5 c 128,-1,13
 367 562 367 562 350 526 c 128,-1,14
 333 490 333 490 320.5 447 c 128,-1,15
 308 404 308 404 301.5 363.5 c 128,-1,16
 295 323 295 323 295 292 c 0,17,18
 295 222 295 222 328.5 191.5 c 128,-1,19
 362 161 362 161 433 161 c 0,20,21
 550 161 550 161 603 214 c 1,22,23
 626 195 626 195 626 144 c 0,24,25
 626 113 626 113 606.5 84 c 128,-1,26
 587 55 587 55 551 31.5 c 128,-1,27
 515 8 515 8 458 -6 c 128,-1,28
 401 -20 401 -20 332 -20 c 0,29,30
 181 -20 181 -20 107.5 50.5 c 128,-1,31
 34 121 34 121 34 269 c 0,32,33
 34 460 34 460 149 570 c 128,-1,34
 264 680 264 680 469 680 c 0,0,1
376 760 m 1,35,-1
 626 869 l 1,36,37
 642 856 642 856 649.5 843 c 128,-1,38
 657 830 657 830 657 810 c 0,39,40
 657 761 657 761 616 737 c 128,-1,41
 575 713 575 713 510 712 c 2,42,-1
 390 709 l 1,43,-1
 376 760 l 1,35,-1
EndSplineSet
Validated: 1
Substitution2: "'locl' Localized Forms in Latin lookup 13 subtable" Cacute.loclPLK
Substitution2: "'aalt' Access All Alternates lookup 0 subtable" Cacute.loclPLK
Position2: "'cpsp' Capital Spacing lookup 3 subtable" dx=5 dy=0 dh=10 dv=0
EndChar

StartChar: Ccaron
Encoding: 268 268 17
Width: 658
Flags: MW
HStem: -20 181<387 427> 609 71<395 459>
VStem: 34 261<245 342 245 396> 492 195<524 540>
LayerCount: 2
UndoRedoHistory
Layer: 0
Undoes
EndUndoes
Redoes
EndRedoes
EndUndoRedoHistory
UndoRedoHistory
Layer: 1
Undoes
EndUndoes
Redoes
EndRedoes
EndUndoRedoHistory
Fore
SplineSet
469 680 m 0,0,1
 687 680 687 680 687 564 c 0,2,3
 687 506 687 506 639.5 466.5 c 128,-1,4
 592 427 592 427 528 427 c 0,5,6
 503 427 503 427 483 429 c 1,7,8
 492 479 492 479 492 516 c 0,9,10
 492 609 492 609 438 609 c 0,11,12
 414 609 414 609 390.5 585.5 c 128,-1,13
 367 562 367 562 350 526 c 128,-1,14
 333 490 333 490 320.5 447 c 128,-1,15
 308 404 308 404 301.5 363.5 c 128,-1,16
 295 323 295 323 295 292 c 0,17,18
 295 222 295 222 328.5 191.5 c 128,-1,19
 362 161 362 161 433 161 c 0,20,21
 550 161 550 161 603 214 c 1,22,23
 626 195 626 195 626 144 c 0,24,25
 626 113 626 113 606.5 84 c 128,-1,26
 587 55 587 55 551 31.5 c 128,-1,27
 515 8 515 8 458 -6 c 128,-1,28
 401 -20 401 -20 332 -20 c 0,29,30
 181 -20 181 -20 107.5 50.5 c 128,-1,31
 34 121 34 121 34 269 c 0,32,33
 34 460 34 460 149 570 c 128,-1,34
 264 680 264 680 469 680 c 0,0,1
357 870 m 1,35,-1
 490 813 l 1,36,-1
 657 870 l 1,37,-1
 690 825 l 1,38,-1
 530 695 l 1,39,-1
 425 695 l 1,40,-1
 302 825 l 1,41,-1
 357 870 l 1,35,-1
EndSplineSet
Validated: 1
Position2: "'cpsp' Capital Spacing lookup 3 subtable" dx=5 dy=0 dh=10 dv=0
EndChar

StartChar: Ccedilla
Encoding: 199 199 18
Width: 658
Flags: MW
HStem: -260 80<265 290 263 342> -110 56 609 71<395 459>
VStem: 34 261<245 342 245 396> 322 148<-157 -129> 492 195<524 540>
LayerCount: 2
UndoRedoHistory
Layer: 0
Undoes
EndUndoes
Redoes
EndRedoes
EndUndoRedoHistory
UndoRedoHistory
Layer: 1
Undoes
EndUndoes
Redoes
EndRedoes
EndUndoRedoHistory
Fore
SplineSet
268 -16 m 1,0,1
 150 -2 150 -2 92 68 c 128,-1,2
 34 138 34 138 34 269 c 0,3,4
 34 460 34 460 149.5 570 c 128,-1,5
 265 680 265 680 469 680 c 0,6,7
 687 680 687 680 687 564 c 0,8,9
 687 506 687 506 639.5 466.5 c 128,-1,10
 592 427 592 427 528 427 c 0,11,12
 503 427 503 427 483 429 c 1,13,14
 492 479 492 479 492 516 c 0,15,16
 492 609 492 609 438 609 c 0,17,18
 414 609 414 609 390.5 585.5 c 128,-1,19
 367 562 367 562 350 526 c 128,-1,20
 333 490 333 490 320.5 447 c 128,-1,21
 308 404 308 404 301.5 363.5 c 128,-1,22
 295 323 295 323 295 292 c 0,23,24
 295 222 295 222 328.5 191.5 c 128,-1,25
 362 161 362 161 433 161 c 0,26,27
 550 161 550 161 603 214 c 1,28,29
 626 195 626 195 626 144 c 0,30,31
 626 114 626 114 608.5 86.5 c 128,-1,32
 591 59 591 59 558 36.5 c 128,-1,33
 525 14 525 14 474 -1 c 128,-1,34
 423 -16 423 -16 361 -19 c 1,35,-1
 351 -54 l 1,36,-1
 354 -54 l 2,37,38
 405 -54 405 -54 437.5 -74.5 c 128,-1,39
 470 -95 470 -95 470 -137 c 0,40,41
 470 -191 470 -191 419 -225.5 c 128,-1,42
 368 -260 368 -260 295 -260 c 0,43,44
 249 -260 249 -260 222.5 -245 c 128,-1,45
 196 -230 196 -230 196 -205 c 0,46,47
 196 -169 196 -169 215 -146 c 1,48,49
 225 -163 225 -163 239.5 -171.5 c 128,-1,50
 254 -180 254 -180 281 -180 c 0,51,52
 296 -180 296 -180 309 -171 c 128,-1,53
 322 -162 322 -162 322 -143 c 0,54,55
 322 -110 322 -110 283 -110 c 0,56,57
 267 -110 267 -110 239 -112 c 1,58,-1
 268 -16 l 1,0,1
EndSplineSet
Validated: 1
Position2: "'cpsp' Capital Spacing lookup 3 subtable" dx=5 dy=0 dh=10 dv=0
EndChar

StartChar: Ccircumflex
Encoding: 264 264 19
Width: 658
Flags: MW
HStem: -20 181<387 427> 609 71<395 459>
VStem: 34 261<245 342 245 396> 492 195<524 540>
LayerCount: 2
UndoRedoHistory
Layer: 0
Undoes
EndUndoes
Redoes
EndRedoes
EndUndoRedoHistory
UndoRedoHistory
Layer: 1
Undoes
EndUndoes
Redoes
EndRedoes
EndUndoRedoHistory
Fore
SplineSet
469 680 m 0,0,1
 687 680 687 680 687 564 c 0,2,3
 687 506 687 506 639.5 466.5 c 128,-1,4
 592 427 592 427 528 427 c 0,5,6
 503 427 503 427 483 429 c 1,7,8
 492 479 492 479 492 516 c 0,9,10
 492 609 492 609 438 609 c 0,11,12
 414 609 414 609 390.5 585.5 c 128,-1,13
 367 562 367 562 350 526 c 128,-1,14
 333 490 333 490 320.5 447 c 128,-1,15
 308 404 308 404 301.5 363.5 c 128,-1,16
 295 323 295 323 295 292 c 0,17,18
 295 222 295 222 328.5 191.5 c 128,-1,19
 362 161 362 161 433 161 c 0,20,21
 550 161 550 161 603 214 c 1,22,23
 626 195 626 195 626 144 c 0,24,25
 626 113 626 113 606.5 84 c 128,-1,26
 587 55 587 55 551 31.5 c 128,-1,27
 515 8 515 8 458 -6 c 128,-1,28
 401 -20 401 -20 332 -20 c 0,29,30
 181 -20 181 -20 107.5 50.5 c 128,-1,31
 34 121 34 121 34 269 c 0,32,33
 34 460 34 460 149 570 c 128,-1,34
 264 680 264 680 469 680 c 0,0,1
605 689 m 1,35,-1
 482 726 l 1,36,-1
 325 689 l 1,37,-1
 292 734 l 1,38,-1
 472 854 l 1,39,-1
 517 854 l 1,40,-1
 660 734 l 1,41,-1
 605 689 l 1,35,-1
EndSplineSet
Validated: 1
Position2: "'cpsp' Capital Spacing lookup 3 subtable" dx=5 dy=0 dh=10 dv=0
EndChar

StartChar: Cdotaccent
Encoding: 266 266 20
Width: 658
Flags: MW
HStem: -20 181<387 427> 609 71<395 459> 690 169<435 500>
VStem: 34 261<245 342 245 396> 347 237<747 799> 492 195<524 540>
LayerCount: 2
UndoRedoHistory
Layer: 0
Undoes
EndUndoes
Redoes
EndRedoes
EndUndoRedoHistory
UndoRedoHistory
Layer: 1
Undoes
EndUndoes
Redoes
EndRedoes
EndUndoRedoHistory
Fore
SplineSet
469 680 m 0,0,1
 687 680 687 680 687 564 c 0,2,3
 687 506 687 506 639.5 466.5 c 128,-1,4
 592 427 592 427 528 427 c 0,5,6
 503 427 503 427 483 429 c 1,7,8
 492 479 492 479 492 516 c 0,9,10
 492 609 492 609 438 609 c 0,11,12
 414 609 414 609 390.5 585.5 c 128,-1,13
 367 562 367 562 350 526 c 128,-1,14
 333 490 333 490 320.5 447 c 128,-1,15
 308 404 308 404 301.5 363.5 c 128,-1,16
 295 323 295 323 295 292 c 0,17,18
 295 222 295 222 328.5 191.5 c 128,-1,19
 362 161 362 161 433 161 c 0,20,21
 550 161 550 161 603 214 c 1,22,23
 626 195 626 195 626 144 c 0,24,25
 626 113 626 113 606.5 84 c 128,-1,26
 587 55 587 55 551 31.5 c 128,-1,27
 515 8 515 8 458 -6 c 128,-1,28
 401 -20 401 -20 332 -20 c 0,29,30
 181 -20 181 -20 107.5 50.5 c 128,-1,31
 34 121 34 121 34 269 c 0,32,33
 34 460 34 460 149 570 c 128,-1,34
 264 680 264 680 469 680 c 0,0,1
469 859 m 0,35,36
 520 859 520 859 552 835.5 c 128,-1,37
 584 812 584 812 584 774 c 0,38,39
 584 734 584 734 551 712 c 128,-1,40
 518 690 518 690 465 690 c 128,-1,41
 412 690 412 690 379.5 711.5 c 128,-1,42
 347 733 347 733 347 772 c 0,43,44
 347 812 347 812 382 835.5 c 128,-1,45
 417 859 417 859 469 859 c 0,35,36
EndSplineSet
Validated: 8388609
Position2: "'cpsp' Capital Spacing lookup 3 subtable" dx=5 dy=0 dh=10 dv=0
EndChar

StartChar: D
Encoding: 68 68 21
Width: 708
Flags: MW
HStem: -20 20G<-11 -11> -3 73<269 327 269 346> 592 71<383 417>
VStem: 473 231<500 505 233 542>
LayerCount: 2
UndoRedoHistory
Layer: 0
Undoes
EndUndoes
Redoes
EndRedoes
EndUndoRedoHistory
UndoRedoHistory
Layer: 1
Undoes
EndUndoes
Redoes
EndRedoes
EndUndoRedoHistory
Fore
SplineSet
261 71 m 1,0,1
 269 70 269 70 272 70 c 0,2,3
 313 70 313 70 344 89.5 c 128,-1,4
 375 109 375 109 397 149 c 128,-1,5
 419 189 419 189 434 242 c 128,-1,6
 449 295 449 295 461 369 c 1,7,8
 473 452 473 452 473 511 c 0,9,10
 473 556 473 556 453.5 574 c 128,-1,11
 434 592 434 592 387 592 c 0,12,13
 368 592 368 592 361 591 c 1,14,-1
 261 71 l 1,0,1
116 660 m 1,15,16
 165 663 165 663 250 663 c 2,17,-1
 293 663 l 2,18,19
 342 663 342 663 380.5 661.5 c 128,-1,20
 419 660 419 660 457 656 c 128,-1,21
 495 652 495 652 523.5 645 c 128,-1,22
 552 638 552 638 579 627 c 128,-1,23
 606 616 606 616 625 600.5 c 128,-1,24
 644 585 644 585 659.5 564.5 c 128,-1,25
 675 544 675 544 684.5 517 c 128,-1,26
 694 490 694 490 699 456.5 c 128,-1,27
 704 423 704 423 704 382 c 0,28,29
 704 294 704 294 680.5 228 c 128,-1,30
 657 162 657 162 614.5 118 c 128,-1,31
 572 74 572 74 506.5 47 c 128,-1,32
 441 20 441 20 362.5 8.5 c 128,-1,33
 284 -3 284 -3 183 -3 c 0,34,35
 59 -3 59 -3 -11 0 c 1,36,-1
 116 660 l 1,15,16
EndSplineSet
Validated: 8388609
Position2: "'cpsp' Capital Spacing lookup 3 subtable" dx=5 dy=0 dh=10 dv=0
EndChar

StartChar: DZ
Encoding: 497 497 22
Width: 1270
Flags: MW
HStem: -20 20G<-11 -11> -11 209<1069 1114 1069 1117> -3 73<269 327 269 346> 460 215<889 942> 592 71<383 417> 640 20G<116 116> 655 20G<875 960>
VStem: 473 231<500 505 233 542>
LayerCount: 2
UndoRedoHistory
Layer: 0
Undoes
EndUndoes
Redoes
EndRedoes
EndUndoRedoHistory
UndoRedoHistory
Layer: 1
Undoes
EndUndoes
Redoes
EndRedoes
EndUndoRedoHistory
Fore
SplineSet
261 71 m 1,0,1
 269 70 269 70 272 70 c 0,2,3
 313 70 313 70 344 89.5 c 128,-1,4
 375 109 375 109 397 149 c 128,-1,5
 419 189 419 189 434 242 c 128,-1,6
 449 295 449 295 461 369 c 1,7,8
 473 452 473 452 473 511 c 0,9,10
 473 556 473 556 453.5 574 c 128,-1,11
 434 592 434 592 387 592 c 0,12,13
 368 592 368 592 361 591 c 1,14,-1
 261 71 l 1,0,1
116 660 m 1,15,16
 165 663 165 663 250 663 c 2,17,-1
 293 663 l 2,18,19
 342 663 342 663 380.5 661.5 c 128,-1,20
 419 660 419 660 457 656 c 128,-1,21
 495 652 495 652 523.5 645 c 128,-1,22
 552 638 552 638 579 627 c 128,-1,23
 606 616 606 616 625 600.5 c 128,-1,24
 644 585 644 585 659.5 564.5 c 128,-1,25
 675 544 675 544 684.5 517 c 128,-1,26
 694 490 694 490 699 456.5 c 128,-1,27
 704 423 704 423 704 382 c 0,28,29
 704 294 704 294 680.5 228 c 128,-1,30
 657 162 657 162 614.5 118 c 128,-1,31
 572 74 572 74 506.5 47 c 128,-1,32
 441 20 441 20 362.5 8.5 c 128,-1,33
 284 -3 284 -3 183 -3 c 0,34,35
 59 -3 59 -3 -11 0 c 1,36,-1
 116 660 l 1,15,16
1090 441 m 1,37,38
 993 460 993 460 922 460 c 0,39,40
 857 460 857 460 804 440 c 1,41,42
 770 493 770 493 770 550 c 0,43,44
 770 612 770 612 810 643.5 c 128,-1,45
 850 675 850 675 924 675 c 0,46,47
 959 675 959 675 1041.5 663 c 128,-1,48
 1124 651 1124 651 1164 651 c 0,49,50
 1214 651 1214 651 1259 660 c 1,51,52
 1307 620 1307 620 1307 547 c 0,53,54
 1307 495 1307 495 1284.5 458 c 128,-1,55
 1262 421 1262 421 1212 383 c 1,56,-1
 910 220 l 1,57,58
 987 198 987 198 1094 198 c 0,59,60
 1133 198 1133 198 1160.5 204.5 c 128,-1,61
 1188 211 1188 211 1208 233 c 1,62,63
 1247 170 1247 170 1247 117 c 0,64,65
 1247 58 1247 58 1197 23.5 c 128,-1,66
 1147 -11 1147 -11 1051 -11 c 0,67,68
 994 -11 994 -11 910 2.5 c 128,-1,69
 826 16 826 16 804 16 c 0,70,71
 771 16 771 16 761 0 c 1,72,73
 742 16 742 16 728.5 52.5 c 128,-1,74
 715 89 715 89 715 127 c 0,75,76
 715 209 715 209 799 276 c 1,77,-1
 1090 441 l 1,37,38
EndSplineSet
Validated: 8388609
Position2: "'cpsp' Capital Spacing lookup 3 subtable" dx=5 dy=0 dh=10 dv=0
EndChar

StartChar: DZcaron
Encoding: 452 452 23
Width: 1270
Flags: MW
HStem: -20 20G<-11 -11> -11 209<1069 1114 1069 1117> -3 73<269 327 269 346> 460 215<889 942> 592 71<383 417> 640 20G<116 116> 655 20G<875 960>
VStem: 473 231<500 505 233 542>
LayerCount: 2
UndoRedoHistory
Layer: 0
Undoes
EndUndoes
Redoes
EndRedoes
EndUndoRedoHistory
UndoRedoHistory
Layer: 1
Undoes
EndUndoes
Redoes
EndRedoes
EndUndoRedoHistory
Fore
SplineSet
261 71 m 1,0,1
 269 70 269 70 272 70 c 0,2,3
 313 70 313 70 344 89.5 c 128,-1,4
 375 109 375 109 397 149 c 128,-1,5
 419 189 419 189 434 242 c 128,-1,6
 449 295 449 295 461 369 c 1,7,8
 473 452 473 452 473 511 c 0,9,10
 473 556 473 556 453.5 574 c 128,-1,11
 434 592 434 592 387 592 c 0,12,13
 368 592 368 592 361 591 c 1,14,-1
 261 71 l 1,0,1
116 660 m 1,15,16
 165 663 165 663 250 663 c 2,17,-1
 293 663 l 2,18,19
 342 663 342 663 380.5 661.5 c 128,-1,20
 419 660 419 660 457 656 c 128,-1,21
 495 652 495 652 523.5 645 c 128,-1,22
 552 638 552 638 579 627 c 128,-1,23
 606 616 606 616 625 600.5 c 128,-1,24
 644 585 644 585 659.5 564.5 c 128,-1,25
 675 544 675 544 684.5 517 c 128,-1,26
 694 490 694 490 699 456.5 c 128,-1,27
 704 423 704 423 704 382 c 0,28,29
 704 294 704 294 680.5 228 c 128,-1,30
 657 162 657 162 614.5 118 c 128,-1,31
 572 74 572 74 506.5 47 c 128,-1,32
 441 20 441 20 362.5 8.5 c 128,-1,33
 284 -3 284 -3 183 -3 c 0,34,35
 59 -3 59 -3 -11 0 c 1,36,-1
 116 660 l 1,15,16
1090 441 m 1,37,38
 993 460 993 460 922 460 c 0,39,40
 857 460 857 460 804 440 c 1,41,42
 770 493 770 493 770 550 c 0,43,44
 770 612 770 612 810 643.5 c 128,-1,45
 850 675 850 675 924 675 c 0,46,47
 959 675 959 675 1041.5 663 c 128,-1,48
 1124 651 1124 651 1164 651 c 0,49,50
 1214 651 1214 651 1259 660 c 1,51,52
 1307 620 1307 620 1307 547 c 0,53,54
 1307 495 1307 495 1284.5 458 c 128,-1,55
 1262 421 1262 421 1212 383 c 1,56,-1
 910 220 l 1,57,58
 987 198 987 198 1094 198 c 0,59,60
 1133 198 1133 198 1160.5 204.5 c 128,-1,61
 1188 211 1188 211 1208 233 c 1,62,63
 1247 170 1247 170 1247 117 c 0,64,65
 1247 58 1247 58 1197 23.5 c 128,-1,66
 1147 -11 1147 -11 1051 -11 c 0,67,68
 994 -11 994 -11 910 2.5 c 128,-1,69
 826 16 826 16 804 16 c 0,70,71
 771 16 771 16 761 0 c 1,72,73
 742 16 742 16 728.5 52.5 c 128,-1,74
 715 89 715 89 715 127 c 0,75,76
 715 209 715 209 799 276 c 1,77,-1
 1090 441 l 1,37,38
957 870 m 1,78,-1
 1090 813 l 1,79,-1
 1257 870 l 1,80,-1
 1290 825 l 1,81,-1
 1130 695 l 1,82,-1
 1025 695 l 1,83,-1
 902 825 l 1,84,-1
 957 870 l 1,78,-1
EndSplineSet
Validated: 8388609
Position2: "'cpsp' Capital Spacing lookup 3 subtable" dx=5 dy=0 dh=10 dv=0
EndChar

StartChar: Eth
Encoding: 208 208 24
Width: 737
Flags: MW
HStem: -20 20G<18 18> -3 73<297 356 297 375> 289 102<7 94 7 94> 592 71<412 446>
VStem: 502 231<500 505 233 542>
LayerCount: 2
UndoRedoHistory
Layer: 0
Undoes
EndUndoes
Redoes
EndRedoes
EndUndoRedoHistory
UndoRedoHistory
Layer: 1
Undoes
EndUndoes
Redoes
EndRedoes
EndUndoRedoHistory
Fore
SplineSet
290 71 m 1,0,1
 298 70 298 70 301 70 c 0,2,3
 342 70 342 70 372.5 89.5 c 128,-1,4
 403 109 403 109 425.5 149 c 128,-1,5
 448 189 448 189 463.5 242 c 128,-1,6
 479 295 479 295 490 369 c 0,7,8
 502 449 502 449 502 511 c 0,9,10
 502 556 502 556 482 574 c 128,-1,11
 462 592 462 592 416 592 c 0,12,13
 398 592 398 592 390 591 c 1,14,-1
 352 391 l 1,15,-1
 407 391 l 1,16,17
 412 369 412 369 412 361 c 0,18,19
 412 330 412 330 391 310 c 0,20,21
 370 290 370 290 332 289 c 1,22,-1
 290 71 l 1,0,1
145 660 m 1,23,24
 194 663 194 663 279 663 c 2,25,-1
 322 663 l 2,26,27
 371 663 371 663 409.5 661.5 c 128,-1,28
 448 660 448 660 486 656 c 128,-1,29
 524 652 524 652 552.5 645 c 128,-1,30
 581 638 581 638 608 627 c 128,-1,31
 635 616 635 616 653.5 600.5 c 128,-1,32
 672 585 672 585 688 564.5 c 128,-1,33
 704 544 704 544 713.5 517 c 128,-1,34
 723 490 723 490 728 456.5 c 128,-1,35
 733 423 733 423 733 382 c 0,36,37
 733 294 733 294 709.5 228 c 128,-1,38
 686 162 686 162 643.5 118 c 128,-1,39
 601 74 601 74 535.5 47 c 128,-1,40
 470 20 470 20 391.5 8.5 c 128,-1,41
 313 -3 313 -3 212 -3 c 0,42,43
 88 -3 88 -3 18 0 c 1,44,-1
 74 289 l 1,45,-1
 7 289 l 1,46,47
 3 299 3 299 3 318 c 0,48,49
 3 349 3 349 25 370 c 128,-1,50
 47 391 47 391 77 391 c 2,51,-1
 94 391 l 1,52,-1
 145 660 l 1,23,24
EndSplineSet
Validated: 8388609
Position2: "'cpsp' Capital Spacing lookup 3 subtable" dx=5 dy=0 dh=10 dv=0
EndChar

StartChar: Dcaron
Encoding: 270 270 25
Width: 708
Flags: MW
HStem: -20 20G<-11 -11> -3 73<269 327 269 346> 592 71<383 417>
VStem: 473 231<500 505 233 542>
LayerCount: 2
UndoRedoHistory
Layer: 0
Undoes
EndUndoes
Redoes
EndRedoes
EndUndoRedoHistory
UndoRedoHistory
Layer: 1
Undoes
EndUndoes
Redoes
EndRedoes
EndUndoRedoHistory
Fore
SplineSet
261 71 m 1,0,1
 269 70 269 70 272 70 c 0,2,3
 313 70 313 70 344 89.5 c 128,-1,4
 375 109 375 109 397 149 c 128,-1,5
 419 189 419 189 434 242 c 128,-1,6
 449 295 449 295 461 369 c 1,7,8
 473 452 473 452 473 511 c 0,9,10
 473 556 473 556 453.5 574 c 128,-1,11
 434 592 434 592 387 592 c 0,12,13
 368 592 368 592 361 591 c 1,14,-1
 261 71 l 1,0,1
116 660 m 1,15,16
 165 663 165 663 250 663 c 2,17,-1
 293 663 l 2,18,19
 342 663 342 663 380.5 661.5 c 128,-1,20
 419 660 419 660 457 656 c 128,-1,21
 495 652 495 652 523.5 645 c 128,-1,22
 552 638 552 638 579 627 c 128,-1,23
 606 616 606 616 625 600.5 c 128,-1,24
 644 585 644 585 659.5 564.5 c 128,-1,25
 675 544 675 544 684.5 517 c 128,-1,26
 694 490 694 490 699 456.5 c 128,-1,27
 704 423 704 423 704 382 c 0,28,29
 704 294 704 294 680.5 228 c 128,-1,30
 657 162 657 162 614.5 118 c 128,-1,31
 572 74 572 74 506.5 47 c 128,-1,32
 441 20 441 20 362.5 8.5 c 128,-1,33
 284 -3 284 -3 183 -3 c 0,34,35
 59 -3 59 -3 -11 0 c 1,36,-1
 116 660 l 1,15,16
262 870 m 1,37,-1
 395 813 l 1,38,-1
 562 870 l 1,39,-1
 595 825 l 1,40,-1
 435 695 l 1,41,-1
 330 695 l 1,42,-1
 207 825 l 1,43,-1
 262 870 l 1,37,-1
EndSplineSet
Validated: 8388609
Position2: "'cpsp' Capital Spacing lookup 3 subtable" dx=5 dy=0 dh=10 dv=0
EndChar

StartChar: Dcroat
Encoding: 272 272 26
Width: 737
Flags: MW
HStem: -20 20G<18 18> -3 73<297 356 297 375> 289 102<7 94 7 94> 592 71<412 446>
VStem: 502 231<500 505 233 542>
LayerCount: 2
UndoRedoHistory
Layer: 0
Undoes
EndUndoes
Redoes
EndRedoes
EndUndoRedoHistory
UndoRedoHistory
Layer: 1
Undoes
EndUndoes
Redoes
EndRedoes
EndUndoRedoHistory
Fore
SplineSet
290 71 m 1,0,1
 298 70 298 70 301 70 c 0,2,3
 342 70 342 70 372.5 89.5 c 128,-1,4
 403 109 403 109 425.5 149 c 128,-1,5
 448 189 448 189 463.5 242 c 128,-1,6
 479 295 479 295 490 369 c 0,7,8
 502 449 502 449 502 511 c 0,9,10
 502 556 502 556 482 574 c 128,-1,11
 462 592 462 592 416 592 c 0,12,13
 398 592 398 592 390 591 c 1,14,-1
 352 391 l 1,15,-1
 407 391 l 1,16,17
 412 369 412 369 412 361 c 0,18,19
 412 330 412 330 391 310 c 0,20,21
 370 290 370 290 332 289 c 1,22,-1
 290 71 l 1,0,1
145 660 m 1,23,24
 194 663 194 663 279 663 c 2,25,-1
 322 663 l 2,26,27
 371 663 371 663 409.5 661.5 c 128,-1,28
 448 660 448 660 486 656 c 128,-1,29
 524 652 524 652 552.5 645 c 128,-1,30
 581 638 581 638 608 627 c 128,-1,31
 635 616 635 616 653.5 600.5 c 128,-1,32
 672 585 672 585 688 564.5 c 128,-1,33
 704 544 704 544 713.5 517 c 128,-1,34
 723 490 723 490 728 456.5 c 128,-1,35
 733 423 733 423 733 382 c 0,36,37
 733 294 733 294 709.5 228 c 128,-1,38
 686 162 686 162 643.5 118 c 128,-1,39
 601 74 601 74 535.5 47 c 128,-1,40
 470 20 470 20 391.5 8.5 c 128,-1,41
 313 -3 313 -3 212 -3 c 0,42,43
 88 -3 88 -3 18 0 c 1,44,-1
 74 289 l 1,45,-1
 7 289 l 1,46,47
 3 299 3 299 3 318 c 0,48,49
 3 349 3 349 25 370 c 128,-1,50
 47 391 47 391 77 391 c 2,51,-1
 94 391 l 1,52,-1
 145 660 l 1,23,24
EndSplineSet
Validated: 8388609
Position2: "'cpsp' Capital Spacing lookup 3 subtable" dx=5 dy=0 dh=10 dv=0
EndChar

StartChar: Ddotbelow
Encoding: 7692 7692 27
Width: 708
Flags: MW
HStem: -201 169<243 308> -20 20G<-11 -11> -3 73<269 327 269 346> 592 71<383 417>
VStem: 155 237<-145 -92> 473 231<500 505 233 542>
LayerCount: 2
UndoRedoHistory
Layer: 0
Undoes
EndUndoes
Redoes
EndRedoes
EndUndoRedoHistory
UndoRedoHistory
Layer: 1
Undoes
EndUndoes
Redoes
EndRedoes
EndUndoRedoHistory
Fore
SplineSet
277 -32 m 0,0,1
 328 -32 328 -32 360 -55.5 c 128,-1,2
 392 -79 392 -79 392 -117 c 0,3,4
 392 -157 392 -157 359 -179 c 128,-1,5
 326 -201 326 -201 273 -201 c 128,-1,6
 220 -201 220 -201 187.5 -179.5 c 128,-1,7
 155 -158 155 -158 155 -119 c 0,8,9
 155 -79 155 -79 190 -55.5 c 128,-1,10
 225 -32 225 -32 277 -32 c 0,0,1
261 71 m 1,11,12
 269 70 269 70 272 70 c 0,13,14
 313 70 313 70 344 89.5 c 128,-1,15
 375 109 375 109 397 149 c 128,-1,16
 419 189 419 189 434 242 c 128,-1,17
 449 295 449 295 461 369 c 1,18,19
 473 452 473 452 473 511 c 0,20,21
 473 556 473 556 453.5 574 c 128,-1,22
 434 592 434 592 387 592 c 0,23,24
 368 592 368 592 361 591 c 1,25,-1
 261 71 l 1,11,12
116 660 m 1,26,27
 165 663 165 663 250 663 c 2,28,-1
 293 663 l 2,29,30
 342 663 342 663 380.5 661.5 c 128,-1,31
 419 660 419 660 457 656 c 128,-1,32
 495 652 495 652 523.5 645 c 128,-1,33
 552 638 552 638 579 627 c 128,-1,34
 606 616 606 616 625 600.5 c 128,-1,35
 644 585 644 585 659.5 564.5 c 128,-1,36
 675 544 675 544 684.5 517 c 128,-1,37
 694 490 694 490 699 456.5 c 128,-1,38
 704 423 704 423 704 382 c 0,39,40
 704 294 704 294 680.5 228 c 128,-1,41
 657 162 657 162 614.5 118 c 128,-1,42
 572 74 572 74 506.5 47 c 128,-1,43
 441 20 441 20 362.5 8.5 c 128,-1,44
 284 -3 284 -3 183 -3 c 0,45,46
 59 -3 59 -3 -11 0 c 1,47,-1
 116 660 l 1,26,27
EndSplineSet
Validated: 8388609
Position2: "'cpsp' Capital Spacing lookup 3 subtable" dx=5 dy=0 dh=10 dv=0
EndChar

StartChar: Dz
Encoding: 498 498 28
Width: 1195
Flags: MW
HStem: -22 201<1001 1040 1001 1064> -20 20G<-11 -11> -3 73<269 327 269 346> 345 185<855 902> 496 20G 592 71<383 417>
VStem: 473 231<500 505 233 542>
LayerCount: 2
UndoRedoHistory
Layer: 0
Undoes
EndUndoes
Redoes
EndRedoes
EndUndoRedoHistory
UndoRedoHistory
Layer: 1
Undoes
EndUndoes
Redoes
EndRedoes
EndUndoRedoHistory
Fore
SplineSet
1008 322 m 1,0,1
 937 345 937 345 884 345 c 0,2,3
 805 345 805 345 785 292 c 1,4,5
 765 314 765 314 754 348.5 c 128,-1,6
 743 383 743 383 743 416 c 0,7,8
 743 476 743 476 780 503 c 128,-1,9
 817 530 817 530 881 530 c 0,10,11
 918 530 918 530 1007 517.5 c 128,-1,12
 1096 505 1096 505 1126 505 c 0,13,14
 1161 505 1161 505 1183 516 c 1,15,16
 1213 489 1213 489 1213 448 c 0,17,18
 1213 411 1213 411 1191.5 383 c 128,-1,19
 1170 355 1170 355 1131 329 c 1,20,-1
 899 205 l 1,21,22
 979 179 979 179 1019 179 c 0,23,24
 1053 179 1053 179 1086 190.5 c 128,-1,25
 1119 202 1119 202 1139 225 c 1,26,27
 1172 188 1172 188 1172 128 c 0,28,29
 1172 54 1172 54 1131 16 c 128,-1,30
 1090 -22 1090 -22 1017 -22 c 0,31,32
 981 -22 981 -22 910.5 -6.5 c 128,-1,33
 840 9 840 9 805 9 c 0,34,35
 777 9 777 9 738 0 c 1,36,37
 699 25 699 25 699 75 c 0,38,39
 699 113 699 113 717.5 141.5 c 128,-1,40
 736 170 736 170 770 195 c 1,41,-1
 1008 322 l 1,0,1
261 71 m 1,42,43
 269 70 269 70 272 70 c 0,44,45
 313 70 313 70 344 89.5 c 128,-1,46
 375 109 375 109 397 149 c 128,-1,47
 419 189 419 189 434 242 c 128,-1,48
 449 295 449 295 461 369 c 1,49,50
 473 452 473 452 473 511 c 0,51,52
 473 556 473 556 453.5 574 c 128,-1,53
 434 592 434 592 387 592 c 0,54,55
 368 592 368 592 361 591 c 1,56,-1
 261 71 l 1,42,43
116 660 m 1,57,58
 165 663 165 663 250 663 c 2,59,-1
 293 663 l 2,60,61
 342 663 342 663 380.5 661.5 c 128,-1,62
 419 660 419 660 457 656 c 128,-1,63
 495 652 495 652 523.5 645 c 128,-1,64
 552 638 552 638 579 627 c 128,-1,65
 606 616 606 616 625 600.5 c 128,-1,66
 644 585 644 585 659.5 564.5 c 128,-1,67
 675 544 675 544 684.5 517 c 128,-1,68
 694 490 694 490 699 456.5 c 128,-1,69
 704 423 704 423 704 382 c 0,70,71
 704 294 704 294 680.5 228 c 128,-1,72
 657 162 657 162 614.5 118 c 128,-1,73
 572 74 572 74 506.5 47 c 128,-1,74
 441 20 441 20 362.5 8.5 c 128,-1,75
 284 -3 284 -3 183 -3 c 0,76,77
 59 -3 59 -3 -11 0 c 1,78,-1
 116 660 l 1,57,58
EndSplineSet
Validated: 8388609
Position2: "'cpsp' Capital Spacing lookup 3 subtable" dx=5 dy=0 dh=10 dv=0
EndChar

StartChar: Dzcaron
Encoding: 453 453 29
Width: 1195
Flags: MW
HStem: -22 201<1001 1040 1001 1064> -20 20G<-11 -11> -3 73<269 327 269 346> 345 185<855 902> 496 20G 592 71<383 417> 655 20G<852 852 1240 1240> 700 20G<907 907 1207 1207>
VStem: 473 231<500 505 233 542>
LayerCount: 2
UndoRedoHistory
Layer: 0
Undoes
EndUndoes
Redoes
EndRedoes
EndUndoRedoHistory
UndoRedoHistory
Layer: 1
Undoes
EndUndoes
Redoes
EndRedoes
EndUndoRedoHistory
Fore
SplineSet
1008 322 m 1,0,1
 937 345 937 345 884 345 c 0,2,3
 805 345 805 345 785 292 c 1,4,5
 765 314 765 314 754 348.5 c 128,-1,6
 743 383 743 383 743 416 c 0,7,8
 743 476 743 476 780 503 c 128,-1,9
 817 530 817 530 881 530 c 0,10,11
 918 530 918 530 1007 517.5 c 128,-1,12
 1096 505 1096 505 1126 505 c 0,13,14
 1161 505 1161 505 1183 516 c 1,15,16
 1213 489 1213 489 1213 448 c 0,17,18
 1213 411 1213 411 1191.5 383 c 128,-1,19
 1170 355 1170 355 1131 329 c 1,20,-1
 899 205 l 1,21,22
 979 179 979 179 1019 179 c 0,23,24
 1053 179 1053 179 1086 190.5 c 128,-1,25
 1119 202 1119 202 1139 225 c 1,26,27
 1172 188 1172 188 1172 128 c 0,28,29
 1172 54 1172 54 1131 16 c 128,-1,30
 1090 -22 1090 -22 1017 -22 c 0,31,32
 981 -22 981 -22 910.5 -6.5 c 128,-1,33
 840 9 840 9 805 9 c 0,34,35
 777 9 777 9 738 0 c 1,36,37
 699 25 699 25 699 75 c 0,38,39
 699 113 699 113 717.5 141.5 c 128,-1,40
 736 170 736 170 770 195 c 1,41,-1
 1008 322 l 1,0,1
261 71 m 1,42,43
 269 70 269 70 272 70 c 0,44,45
 313 70 313 70 344 89.5 c 128,-1,46
 375 109 375 109 397 149 c 128,-1,47
 419 189 419 189 434 242 c 128,-1,48
 449 295 449 295 461 369 c 1,49,50
 473 452 473 452 473 511 c 0,51,52
 473 556 473 556 453.5 574 c 128,-1,53
 434 592 434 592 387 592 c 0,54,55
 368 592 368 592 361 591 c 1,56,-1
 261 71 l 1,42,43
116 660 m 1,57,58
 165 663 165 663 250 663 c 2,59,-1
 293 663 l 2,60,61
 342 663 342 663 380.5 661.5 c 128,-1,62
 419 660 419 660 457 656 c 128,-1,63
 495 652 495 652 523.5 645 c 128,-1,64
 552 638 552 638 579 627 c 128,-1,65
 606 616 606 616 625 600.5 c 128,-1,66
 644 585 644 585 659.5 564.5 c 128,-1,67
 675 544 675 544 684.5 517 c 128,-1,68
 694 490 694 490 699 456.5 c 128,-1,69
 704 423 704 423 704 382 c 0,70,71
 704 294 704 294 680.5 228 c 128,-1,72
 657 162 657 162 614.5 118 c 128,-1,73
 572 74 572 74 506.5 47 c 128,-1,74
 441 20 441 20 362.5 8.5 c 128,-1,75
 284 -3 284 -3 183 -3 c 0,76,77
 59 -3 59 -3 -11 0 c 1,78,-1
 116 660 l 1,57,58
907 720 m 1,79,-1
 1040 663 l 1,80,-1
 1207 720 l 1,81,-1
 1240 675 l 1,82,-1
 1080 545 l 1,83,-1
 975 545 l 1,84,-1
 852 675 l 1,85,-1
 907 720 l 1,79,-1
EndSplineSet
Validated: 8388609
Position2: "'cpsp' Capital Spacing lookup 3 subtable" dx=5 dy=0 dh=10 dv=0
EndChar

StartChar: E
Encoding: 69 69 30
Width: 534
Flags: MW
HStem: 0 135<283 343> 265 127<380 441> 520 140<443 518> 547 113<360 360>
VStem: -5 601
LayerCount: 2
UndoRedoHistory
Layer: 0
Undoes
EndUndoes
Redoes
EndRedoes
EndUndoRedoHistory
UndoRedoHistory
Layer: 1
Undoes
EndUndoes
Redoes
EndRedoes
EndUndoRedoHistory
Fore
SplineSet
596 660 m 1,0,1
 596 591 596 591 567 555.5 c 128,-1,2
 538 520 538 520 473 520 c 0,3,4
 447 520 447 520 419.5 526.5 c 128,-1,5
 392 533 392 533 379 538 c 128,-1,6
 366 543 366 543 360 547 c 1,7,-1
 332 392 l 1,8,-1
 509 392 l 1,9,10
 509 332 509 332 483.5 298.5 c 128,-1,11
 458 265 458 265 403 265 c 0,12,13
 382 265 382 265 360.5 270 c 128,-1,14
 339 275 339 275 327 279.5 c 128,-1,15
 315 284 315 284 312 287 c 1,16,-1
 283 135 l 1,17,-1
 356 135 l 2,18,19
 419 135 419 135 465 144 c 1,20,21
 479 126 479 126 479 84 c 0,22,23
 479 0 479 0 343 0 c 2,24,-1
 -5 0 l 1,25,-1
 116 660 l 1,26,-1
 596 660 l 1,0,1
EndSplineSet
Validated: 8388609
Position2: "'cpsp' Capital Spacing lookup 3 subtable" dx=5 dy=0 dh=10 dv=0
EndChar

StartChar: Eacute
Encoding: 201 201 31
Width: 534
Flags: MW
HStem: 0 135<283 343> 265 127<380 441> 520 140<443 518> 547 113<360 360>
VStem: -5 601
LayerCount: 2
UndoRedoHistory
Layer: 0
Undoes
EndUndoes
Redoes
EndRedoes
EndUndoRedoHistory
UndoRedoHistory
Layer: 1
Undoes
EndUndoes
Redoes
EndRedoes
EndUndoRedoHistory
Fore
SplineSet
596 660 m 1,0,1
 596 591 596 591 567 555.5 c 128,-1,2
 538 520 538 520 473 520 c 0,3,4
 447 520 447 520 419.5 526.5 c 128,-1,5
 392 533 392 533 379 538 c 128,-1,6
 366 543 366 543 360 547 c 1,7,-1
 332 392 l 1,8,-1
 509 392 l 1,9,10
 509 332 509 332 483.5 298.5 c 128,-1,11
 458 265 458 265 403 265 c 0,12,13
 382 265 382 265 360.5 270 c 128,-1,14
 339 275 339 275 327 279.5 c 128,-1,15
 315 284 315 284 312 287 c 1,16,-1
 283 135 l 1,17,-1
 356 135 l 2,18,19
 419 135 419 135 465 144 c 1,20,21
 479 126 479 126 479 84 c 0,22,23
 479 0 479 0 343 0 c 2,24,-1
 -5 0 l 1,25,-1
 116 660 l 1,26,-1
 596 660 l 1,0,1
260 760 m 1,27,-1
 510 869 l 1,28,29
 526 856 526 856 533.5 843 c 128,-1,30
 541 830 541 830 541 810 c 0,31,32
 541 761 541 761 500 737 c 128,-1,33
 459 713 459 713 394 712 c 2,34,-1
 274 709 l 1,35,-1
 260 760 l 1,27,-1
EndSplineSet
Validated: 8388609
Position2: "'cpsp' Capital Spacing lookup 3 subtable" dx=5 dy=0 dh=10 dv=0
EndChar

StartChar: Ebreve
Encoding: 276 276 32
Width: 534
Flags: MW
HStem: 0 135<283 343> 265 127<380 441> 520 140<443 518> 547 113<360 360> 700 133<267 327 399 402>
VStem: -5 601 147 175<778 779 770 811>
LayerCount: 2
UndoRedoHistory
Layer: 0
Undoes
EndUndoes
Redoes
EndRedoes
EndUndoRedoHistory
UndoRedoHistory
Layer: 1
Undoes
EndUndoes
Redoes
EndRedoes
EndUndoRedoHistory
Fore
SplineSet
596 660 m 1,0,1
 596 591 596 591 567 555.5 c 128,-1,2
 538 520 538 520 473 520 c 0,3,4
 447 520 447 520 419.5 526.5 c 128,-1,5
 392 533 392 533 379 538 c 128,-1,6
 366 543 366 543 360 547 c 1,7,-1
 332 392 l 1,8,-1
 509 392 l 1,9,10
 509 332 509 332 483.5 298.5 c 128,-1,11
 458 265 458 265 403 265 c 0,12,13
 382 265 382 265 360.5 270 c 128,-1,14
 339 275 339 275 327 279.5 c 128,-1,15
 315 284 315 284 312 287 c 1,16,-1
 283 135 l 1,17,-1
 356 135 l 2,18,19
 419 135 419 135 465 144 c 1,20,21
 479 126 479 126 479 84 c 0,22,23
 479 0 479 0 343 0 c 2,24,-1
 -5 0 l 1,25,-1
 116 660 l 1,26,-1
 596 660 l 1,0,1
327 833 m 1,27,28
 323 805 323 805 323 792 c 0,29,30
 323 790 323 790 322.5 784.5 c 128,-1,31
 322 779 322 779 322 776 c 0,32,33
 322 749 322 749 350 749 c 0,34,35
 358 749 358 749 365 752.5 c 128,-1,36
 372 756 372 756 376 761.5 c 128,-1,37
 380 767 380 767 383.5 776.5 c 128,-1,38
 387 786 387 786 389 793.5 c 128,-1,39
 391 801 391 801 394 813.5 c 128,-1,40
 397 826 397 826 399 833 c 1,41,-1
 570 833 l 1,42,43
 557 774 557 774 495.5 737 c 128,-1,44
 434 700 434 700 334 700 c 0,45,46
 239 700 239 700 193 730 c 128,-1,47
 147 760 147 760 147 806 c 0,48,49
 147 818 147 818 150 833 c 1,50,-1
 327 833 l 1,27,28
EndSplineSet
Validated: 8388609
Position2: "'cpsp' Capital Spacing lookup 3 subtable" dx=5 dy=0 dh=10 dv=0
EndChar

StartChar: Ecaron
Encoding: 282 282 33
Width: 534
Flags: MW
HStem: 0 135<283 343> 265 127<380 441> 520 140<443 518> 547 113<360 360>
VStem: -5 601
LayerCount: 2
UndoRedoHistory
Layer: 0
Undoes
EndUndoes
Redoes
EndRedoes
EndUndoRedoHistory
UndoRedoHistory
Layer: 1
Undoes
EndUndoes
Redoes
EndRedoes
EndUndoRedoHistory
Fore
SplineSet
596 660 m 1,0,1
 596 591 596 591 567 555.5 c 128,-1,2
 538 520 538 520 473 520 c 0,3,4
 447 520 447 520 419.5 526.5 c 128,-1,5
 392 533 392 533 379 538 c 128,-1,6
 366 543 366 543 360 547 c 1,7,-1
 332 392 l 1,8,-1
 509 392 l 1,9,10
 509 332 509 332 483.5 298.5 c 128,-1,11
 458 265 458 265 403 265 c 0,12,13
 382 265 382 265 360.5 270 c 128,-1,14
 339 275 339 275 327 279.5 c 128,-1,15
 315 284 315 284 312 287 c 1,16,-1
 283 135 l 1,17,-1
 356 135 l 2,18,19
 419 135 419 135 465 144 c 1,20,21
 479 126 479 126 479 84 c 0,22,23
 479 0 479 0 343 0 c 2,24,-1
 -5 0 l 1,25,-1
 116 660 l 1,26,-1
 596 660 l 1,0,1
241 870 m 1,27,-1
 374 813 l 1,28,-1
 541 870 l 1,29,-1
 574 825 l 1,30,-1
 414 695 l 1,31,-1
 309 695 l 1,32,-1
 186 825 l 1,33,-1
 241 870 l 1,27,-1
EndSplineSet
Validated: 8388609
Position2: "'cpsp' Capital Spacing lookup 3 subtable" dx=5 dy=0 dh=10 dv=0
EndChar

StartChar: Ecircumflex
Encoding: 202 202 34
Width: 534
Flags: MW
HStem: 0 135<283 343> 265 127<380 441> 520 140<443 518> 547 113<360 360>
VStem: -5 601
LayerCount: 2
UndoRedoHistory
Layer: 0
Undoes
EndUndoes
Redoes
EndRedoes
EndUndoRedoHistory
UndoRedoHistory
Layer: 1
Undoes
EndUndoes
Redoes
EndRedoes
EndUndoRedoHistory
Fore
SplineSet
596 660 m 1,0,1
 596 591 596 591 567 555.5 c 128,-1,2
 538 520 538 520 473 520 c 0,3,4
 447 520 447 520 419.5 526.5 c 128,-1,5
 392 533 392 533 379 538 c 128,-1,6
 366 543 366 543 360 547 c 1,7,-1
 332 392 l 1,8,-1
 509 392 l 1,9,10
 509 332 509 332 483.5 298.5 c 128,-1,11
 458 265 458 265 403 265 c 0,12,13
 382 265 382 265 360.5 270 c 128,-1,14
 339 275 339 275 327 279.5 c 128,-1,15
 315 284 315 284 312 287 c 1,16,-1
 283 135 l 1,17,-1
 356 135 l 2,18,19
 419 135 419 135 465 144 c 1,20,21
 479 126 479 126 479 84 c 0,22,23
 479 0 479 0 343 0 c 2,24,-1
 -5 0 l 1,25,-1
 116 660 l 1,26,-1
 596 660 l 1,0,1
489 689 m 1,27,-1
 366 726 l 1,28,-1
 209 689 l 1,29,-1
 176 734 l 1,30,-1
 356 854 l 1,31,-1
 401 854 l 1,32,-1
 544 734 l 1,33,-1
 489 689 l 1,27,-1
EndSplineSet
Validated: 8388609
Position2: "'cpsp' Capital Spacing lookup 3 subtable" dx=5 dy=0 dh=10 dv=0
EndChar

StartChar: Edieresis
Encoding: 203 203 35
Width: 534
Flags: MW
HStem: 0 135<283 343> 265 127<380 441> 520 140<443 518> 547 113<360 360> 690 169<189 253 438 502>
VStem: -5 601 101 237<747 799> 350 237<747 799>
LayerCount: 2
UndoRedoHistory
Layer: 0
Undoes
EndUndoes
Redoes
EndRedoes
EndUndoRedoHistory
UndoRedoHistory
Layer: 1
Undoes
EndUndoes
Redoes
EndRedoes
EndUndoRedoHistory
Fore
SplineSet
596 660 m 1,0,1
 596 591 596 591 567 555.5 c 128,-1,2
 538 520 538 520 473 520 c 0,3,4
 447 520 447 520 419.5 526.5 c 128,-1,5
 392 533 392 533 379 538 c 128,-1,6
 366 543 366 543 360 547 c 1,7,-1
 332 392 l 1,8,-1
 509 392 l 1,9,10
 509 332 509 332 483.5 298.5 c 128,-1,11
 458 265 458 265 403 265 c 0,12,13
 382 265 382 265 360.5 270 c 128,-1,14
 339 275 339 275 327 279.5 c 128,-1,15
 315 284 315 284 312 287 c 1,16,-1
 283 135 l 1,17,-1
 356 135 l 2,18,19
 419 135 419 135 465 144 c 1,20,21
 479 126 479 126 479 84 c 0,22,23
 479 0 479 0 343 0 c 2,24,-1
 -5 0 l 1,25,-1
 116 660 l 1,26,-1
 596 660 l 1,0,1
472 859 m 0,27,28
 523 859 523 859 555 835.5 c 128,-1,29
 587 812 587 812 587 774 c 0,30,31
 587 734 587 734 554 712 c 128,-1,32
 521 690 521 690 468 690 c 128,-1,33
 415 690 415 690 382.5 711.5 c 128,-1,34
 350 733 350 733 350 772 c 0,35,36
 350 812 350 812 385 835.5 c 128,-1,37
 420 859 420 859 472 859 c 0,27,28
223 859 m 0,38,39
 274 859 274 859 306 835.5 c 128,-1,40
 338 812 338 812 338 774 c 0,41,42
 338 734 338 734 305 712 c 128,-1,43
 272 690 272 690 219 690 c 128,-1,44
 166 690 166 690 133.5 711.5 c 128,-1,45
 101 733 101 733 101 772 c 0,46,47
 101 812 101 812 136 835.5 c 128,-1,48
 171 859 171 859 223 859 c 0,38,39
EndSplineSet
Validated: 8388609
Position2: "'cpsp' Capital Spacing lookup 3 subtable" dx=5 dy=0 dh=10 dv=0
EndChar

StartChar: Edotaccent
Encoding: 278 278 36
Width: 534
Flags: MW
HStem: 0 135<283 343> 265 127<380 441> 520 140<443 518> 547 113<360 360> 690 169<319 383>
VStem: -5 601 231 237<747 799>
LayerCount: 2
UndoRedoHistory
Layer: 0
Undoes
EndUndoes
Redoes
EndRedoes
EndUndoRedoHistory
UndoRedoHistory
Layer: 1
Undoes
EndUndoes
Redoes
EndRedoes
EndUndoRedoHistory
Fore
SplineSet
596 660 m 1,0,1
 596 591 596 591 567 555.5 c 128,-1,2
 538 520 538 520 473 520 c 0,3,4
 447 520 447 520 419.5 526.5 c 128,-1,5
 392 533 392 533 379 538 c 128,-1,6
 366 543 366 543 360 547 c 1,7,-1
 332 392 l 1,8,-1
 509 392 l 1,9,10
 509 332 509 332 483.5 298.5 c 128,-1,11
 458 265 458 265 403 265 c 0,12,13
 382 265 382 265 360.5 270 c 128,-1,14
 339 275 339 275 327 279.5 c 128,-1,15
 315 284 315 284 312 287 c 1,16,-1
 283 135 l 1,17,-1
 356 135 l 2,18,19
 419 135 419 135 465 144 c 1,20,21
 479 126 479 126 479 84 c 0,22,23
 479 0 479 0 343 0 c 2,24,-1
 -5 0 l 1,25,-1
 116 660 l 1,26,-1
 596 660 l 1,0,1
353 859 m 0,27,28
 404 859 404 859 436 835.5 c 128,-1,29
 468 812 468 812 468 774 c 0,30,31
 468 734 468 734 435 712 c 128,-1,32
 402 690 402 690 349 690 c 128,-1,33
 296 690 296 690 263.5 711.5 c 128,-1,34
 231 733 231 733 231 772 c 0,35,36
 231 812 231 812 266 835.5 c 128,-1,37
 301 859 301 859 353 859 c 0,27,28
EndSplineSet
Validated: 8388609
Position2: "'cpsp' Capital Spacing lookup 3 subtable" dx=5 dy=0 dh=10 dv=0
EndChar

StartChar: Edotbelow
Encoding: 7864 7864 37
Width: 534
Flags: MW
HStem: -201 169<174 238> 0 135<283 343> 265 127<380 441> 520 140<443 518> 547 113<360 360>
VStem: -5 601 86 237<-145 -92>
LayerCount: 2
UndoRedoHistory
Layer: 0
Undoes
EndUndoes
Redoes
EndRedoes
EndUndoRedoHistory
UndoRedoHistory
Layer: 1
Undoes
EndUndoes
Redoes
EndRedoes
EndUndoRedoHistory
Fore
SplineSet
208 -32 m 0,0,1
 259 -32 259 -32 291 -55.5 c 128,-1,2
 323 -79 323 -79 323 -117 c 0,3,4
 323 -157 323 -157 290 -179 c 128,-1,5
 257 -201 257 -201 204 -201 c 128,-1,6
 151 -201 151 -201 118.5 -179.5 c 128,-1,7
 86 -158 86 -158 86 -119 c 0,8,9
 86 -79 86 -79 121 -55.5 c 128,-1,10
 156 -32 156 -32 208 -32 c 0,0,1
596 660 m 1,11,12
 596 591 596 591 567 555.5 c 128,-1,13
 538 520 538 520 473 520 c 0,14,15
 447 520 447 520 419.5 526.5 c 128,-1,16
 392 533 392 533 379 538 c 128,-1,17
 366 543 366 543 360 547 c 1,18,-1
 332 392 l 1,19,-1
 509 392 l 1,20,21
 509 332 509 332 483.5 298.5 c 128,-1,22
 458 265 458 265 403 265 c 0,23,24
 382 265 382 265 360.5 270 c 128,-1,25
 339 275 339 275 327 279.5 c 128,-1,26
 315 284 315 284 312 287 c 1,27,-1
 283 135 l 1,28,-1
 356 135 l 2,29,30
 419 135 419 135 465 144 c 1,31,32
 479 126 479 126 479 84 c 0,33,34
 479 0 479 0 343 0 c 2,35,-1
 -5 0 l 1,36,-1
 116 660 l 1,37,-1
 596 660 l 1,11,12
EndSplineSet
Validated: 8388609
Position2: "'cpsp' Capital Spacing lookup 3 subtable" dx=5 dy=0 dh=10 dv=0
EndChar

StartChar: Egrave
Encoding: 200 200 38
Width: 534
Flags: MW
HStem: 0 135<283 343> 265 127<380 441> 520 140<443 518> 547 113<360 360> 711 50
VStem: -5 601
LayerCount: 2
UndoRedoHistory
Layer: 0
Undoes
EndUndoes
Redoes
EndRedoes
EndUndoRedoHistory
UndoRedoHistory
Layer: 1
Undoes
EndUndoes
Redoes
EndRedoes
EndUndoRedoHistory
Fore
SplineSet
596 660 m 1,0,1
 596 591 596 591 567 555.5 c 128,-1,2
 538 520 538 520 473 520 c 0,3,4
 447 520 447 520 419.5 526.5 c 128,-1,5
 392 533 392 533 379 538 c 128,-1,6
 366 543 366 543 360 547 c 1,7,-1
 332 392 l 1,8,-1
 509 392 l 1,9,10
 509 332 509 332 483.5 298.5 c 128,-1,11
 458 265 458 265 403 265 c 0,12,13
 382 265 382 265 360.5 270 c 128,-1,14
 339 275 339 275 327 279.5 c 128,-1,15
 315 284 315 284 312 287 c 1,16,-1
 283 135 l 1,17,-1
 356 135 l 2,18,19
 419 135 419 135 465 144 c 1,20,21
 479 126 479 126 479 84 c 0,22,23
 479 0 479 0 343 0 c 2,24,-1
 -5 0 l 1,25,-1
 116 660 l 1,26,-1
 596 660 l 1,0,1
455 710 m 1,27,-1
 334 713 l 2,28,29
 292 714 292 714 260.5 723.5 c 128,-1,30
 229 733 229 733 208.5 755.5 c 128,-1,31
 188 778 188 778 188 812 c 0,32,33
 188 847 188 847 219 870 c 1,34,-1
 469 762 l 1,35,-1
 455 710 l 1,27,-1
EndSplineSet
Validated: 8388609
Position2: "'cpsp' Capital Spacing lookup 3 subtable" dx=5 dy=0 dh=10 dv=0
EndChar

StartChar: Emacron
Encoding: 274 274 39
Width: 534
Flags: MW
HStem: 0 135<283 343> 265 127<380 441> 520 140<443 518> 547 113<360 360> 742 96<263 440 195 516>
VStem: -5 601
LayerCount: 2
UndoRedoHistory
Layer: 0
Undoes
EndUndoes
Redoes
EndRedoes
EndUndoRedoHistory
UndoRedoHistory
Layer: 1
Undoes
EndUndoes
Redoes
EndRedoes
EndUndoRedoHistory
Fore
SplineSet
596 660 m 1,0,1
 596 591 596 591 567 555.5 c 128,-1,2
 538 520 538 520 473 520 c 0,3,4
 447 520 447 520 419.5 526.5 c 128,-1,5
 392 533 392 533 379 538 c 128,-1,6
 366 543 366 543 360 547 c 1,7,-1
 332 392 l 1,8,-1
 509 392 l 1,9,10
 509 332 509 332 483.5 298.5 c 128,-1,11
 458 265 458 265 403 265 c 0,12,13
 382 265 382 265 360.5 270 c 128,-1,14
 339 275 339 275 327 279.5 c 128,-1,15
 315 284 315 284 312 287 c 1,16,-1
 283 135 l 1,17,-1
 356 135 l 2,18,19
 419 135 419 135 465 144 c 1,20,21
 479 126 479 126 479 84 c 0,22,23
 479 0 479 0 343 0 c 2,24,-1
 -5 0 l 1,25,-1
 116 660 l 1,26,-1
 596 660 l 1,0,1
516 838 m 1,27,28
 520 822 520 822 520 808 c 0,29,30
 520 779 520 779 499.5 760.5 c 128,-1,31
 479 742 479 742 440 742 c 2,32,-1
 195 742 l 1,33,34
 192 751 192 751 192 770 c 0,35,36
 192 800 192 800 212.5 819 c 128,-1,37
 233 838 233 838 263 838 c 2,38,-1
 516 838 l 1,27,28
EndSplineSet
Validated: 8388609
Position2: "'cpsp' Capital Spacing lookup 3 subtable" dx=5 dy=0 dh=10 dv=0
EndChar

StartChar: Eogonek
Encoding: 280 280 40
Width: 534
Flags: MW
HStem: -258 99<366 376> 0 135<283 312> 265 127<380 441> 520 140<443 518> 547 113<360 360>
VStem: 205 132<-131 -116>
LayerCount: 2
UndoRedoHistory
Layer: 0
Undoes
EndUndoes
Redoes
EndRedoes
EndUndoRedoHistory
UndoRedoHistory
Layer: 1
Undoes
EndUndoes
Redoes
EndRedoes
EndUndoRedoHistory
Fore
SplineSet
596 660 m 1,0,1
 596 591 596 591 567 555.5 c 128,-1,2
 538 520 538 520 473 520 c 0,3,4
 447 520 447 520 419.5 526.5 c 128,-1,5
 392 533 392 533 379 538 c 128,-1,6
 366 543 366 543 360 547 c 1,7,-1
 332 392 l 1,8,-1
 509 392 l 1,9,10
 509 332 509 332 483.5 298.5 c 128,-1,11
 458 265 458 265 403 265 c 0,12,13
 382 265 382 265 360.5 270 c 128,-1,14
 339 275 339 275 327 279.5 c 128,-1,15
 315 284 315 284 312 287 c 1,16,-1
 283 135 l 1,17,-1
 356 135 l 2,18,19
 419 135 419 135 465 144 c 1,20,21
 479 126 479 126 479 84 c 0,22,23
 479 32 479 32 423 11 c 1,24,-1
 423 10 l 1,25,26
 384 -17 384 -17 360.5 -50 c 128,-1,27
 337 -83 337 -83 337 -115 c 0,28,29
 337 -138 337 -138 347.5 -148.5 c 128,-1,30
 358 -159 358 -159 379 -159 c 0,31,32
 418 -159 418 -159 439 -134 c 1,33,34
 458 -161 458 -161 458 -194 c 0,35,36
 458 -221 458 -221 426 -239.5 c 128,-1,37
 394 -258 394 -258 333 -258 c 128,-1,38
 272 -258 272 -258 238.5 -231.5 c 128,-1,39
 205 -205 205 -205 205 -154 c 0,40,41
 205 -51 205 -51 312 0 c 1,42,-1
 -5 0 l 1,43,-1
 116 660 l 1,44,-1
 596 660 l 1,0,1
EndSplineSet
Validated: 8388609
Position2: "'cpsp' Capital Spacing lookup 3 subtable" dx=5 dy=0 dh=10 dv=0
EndChar

StartChar: Etilde
Encoding: 7868 7868 41
Width: 534
Flags: MW
HStem: 0 135<283 343> 265 127<380 441> 520 140<443 518> 547 113<360 360> 721 119<459 496 459 496> 740 117<225 259>
VStem: -5 601
LayerCount: 2
UndoRedoHistory
Layer: 0
Undoes
EndUndoes
Redoes
EndRedoes
EndUndoRedoHistory
UndoRedoHistory
Layer: 1
Undoes
EndUndoes
Redoes
EndRedoes
EndUndoRedoHistory
Fore
SplineSet
596 660 m 1,0,1
 596 591 596 591 567 555.5 c 128,-1,2
 538 520 538 520 473 520 c 0,3,4
 447 520 447 520 419.5 526.5 c 128,-1,5
 392 533 392 533 379 538 c 128,-1,6
 366 543 366 543 360 547 c 1,7,-1
 332 392 l 1,8,-1
 509 392 l 1,9,10
 509 332 509 332 483.5 298.5 c 128,-1,11
 458 265 458 265 403 265 c 0,12,13
 382 265 382 265 360.5 270 c 128,-1,14
 339 275 339 275 327 279.5 c 128,-1,15
 315 284 315 284 312 287 c 1,16,-1
 283 135 l 1,17,-1
 356 135 l 2,18,19
 419 135 419 135 465 144 c 1,20,21
 479 126 479 126 479 84 c 0,22,23
 479 0 479 0 343 0 c 2,24,-1
 -5 0 l 1,25,-1
 116 660 l 1,26,-1
 596 660 l 1,0,1
548 857 m 1,27,28
 569 832 569 832 569 801 c 0,29,30
 569 762 569 762 541 741.5 c 128,-1,31
 513 721 513 721 463 721 c 0,32,33
 435 721 435 721 346 730.5 c 128,-1,34
 257 740 257 740 239 740 c 0,35,36
 219 740 219 740 198 734.5 c 128,-1,37
 177 729 177 729 167 722 c 1,38,39
 145 751 145 751 145 784 c 0,40,41
 145 819 145 819 173 838 c 128,-1,42
 201 857 201 857 253 857 c 0,43,44
 285 857 285 857 373 848.5 c 128,-1,45
 461 840 461 840 483 840 c 0,46,47
 529 840 529 840 548 857 c 1,27,28
EndSplineSet
Validated: 8388609
Position2: "'cpsp' Capital Spacing lookup 3 subtable" dx=5 dy=0 dh=10 dv=0
EndChar

StartChar: F
Encoding: 70 70 42
Width: 556
Flags: MW
HStem: 265 139<393 464> 513 147<474 545> 540 120<360 360>
VStem: -5 621<0 660>
LayerCount: 2
UndoRedoHistory
Layer: 0
Undoes
EndUndoes
Redoes
EndRedoes
EndUndoRedoHistory
UndoRedoHistory
Layer: 1
Undoes
EndUndoes
Redoes
EndRedoes
EndUndoRedoHistory
Fore
SplineSet
616 660 m 1,0,1
 616 585 616 585 591 549 c 128,-1,2
 566 513 566 513 497 513 c 0,3,4
 462 513 462 513 421 521 c 128,-1,5
 380 529 380 529 360 540 c 1,6,-1
 334 404 l 1,7,-1
 533 404 l 1,8,9
 533 265 533 265 418 265 c 0,10,11
 368 265 368 265 312 290 c 1,12,-1
 261 0 l 1,13,-1
 -5 0 l 1,14,-1
 116 660 l 1,15,-1
 616 660 l 1,0,1
EndSplineSet
Validated: 8388609
Position2: "'cpsp' Capital Spacing lookup 3 subtable" dx=5 dy=0 dh=10 dv=0
EndChar

StartChar: G
Encoding: 71 71 43
Width: 703
Flags: MW
HStem: -20 130<185 396 346 575> 609 71<404 464>
VStem: 34 259<250 353 250 397> 443 192 500 195<524 546>
LayerCount: 2
UndoRedoHistory
Layer: 0
Undoes
EndUndoes
Redoes
EndRedoes
EndUndoRedoHistory
UndoRedoHistory
Layer: 1
Undoes
EndUndoes
Redoes
EndRedoes
EndUndoRedoHistory
Fore
SplineSet
712 347 m 1,0,1
 635 177 635 177 635 6 c 0,2,3
 635 3 635 3 635 0 c 1,4,5
 600 -20 600 -20 560 -20 c 0,6,7
 511 -20 511 -20 478 1 c 128,-1,8
 445 22 445 22 443 42 c 1,9,10
 380 -20 380 -20 265 -20 c 0,11,12
 149 -20 149 -20 91.5 56 c 128,-1,13
 34 132 34 132 34 266 c 0,14,15
 34 462 34 462 150.5 571 c 128,-1,16
 267 680 267 680 473 680 c 0,17,18
 695 680 695 680 695 564 c 0,19,20
 695 506 695 506 647.5 466.5 c 128,-1,21
 600 427 600 427 535 427 c 0,22,23
 511 427 511 427 491 429 c 1,24,25
 500 479 500 479 500 518 c 0,26,27
 500 609 500 609 445 609 c 0,28,29
 406 609 406 609 370 557 c 128,-1,30
 334 505 334 505 313.5 429 c 128,-1,31
 293 353 293 353 293 281 c 0,32,33
 293 253 293 253 296.5 227 c 128,-1,34
 300 201 300 201 309 173 c 128,-1,35
 318 145 318 145 338 127.5 c 128,-1,36
 358 110 358 110 386 110 c 0,37,38
 403 110 403 110 419.5 116 c 128,-1,39
 436 122 436 122 441 133 c 1,40,-1
 473 329 l 1,41,-1
 712 347 l 1,0,1
EndSplineSet
Validated: 8388609
Position2: "'cpsp' Capital Spacing lookup 3 subtable" dx=5 dy=0 dh=10 dv=0
EndChar

StartChar: Gbreve
Encoding: 286 286 44
Width: 703
Flags: MW
HStem: -20 130<185 396 346 575> 609 71<404 464> 700 133<396 457 529 533>
VStem: 34 259<250 353 250 397> 277 175<778 779 770 811> 443 192 500 195<524 546>
LayerCount: 2
UndoRedoHistory
Layer: 0
Undoes
EndUndoes
Redoes
EndRedoes
EndUndoRedoHistory
UndoRedoHistory
Layer: 1
Undoes
EndUndoes
Redoes
EndRedoes
EndUndoRedoHistory
Fore
SplineSet
712 347 m 1,0,1
 635 177 635 177 635 6 c 0,2,3
 635 3 635 3 635 0 c 1,4,5
 600 -20 600 -20 560 -20 c 0,6,7
 511 -20 511 -20 478 1 c 128,-1,8
 445 22 445 22 443 42 c 1,9,10
 380 -20 380 -20 265 -20 c 0,11,12
 149 -20 149 -20 91.5 56 c 128,-1,13
 34 132 34 132 34 266 c 0,14,15
 34 462 34 462 150.5 571 c 128,-1,16
 267 680 267 680 473 680 c 0,17,18
 695 680 695 680 695 564 c 0,19,20
 695 506 695 506 647.5 466.5 c 128,-1,21
 600 427 600 427 535 427 c 0,22,23
 511 427 511 427 491 429 c 1,24,25
 500 479 500 479 500 518 c 0,26,27
 500 609 500 609 445 609 c 0,28,29
 406 609 406 609 370 557 c 128,-1,30
 334 505 334 505 313.5 429 c 128,-1,31
 293 353 293 353 293 281 c 0,32,33
 293 253 293 253 296.5 227 c 128,-1,34
 300 201 300 201 309 173 c 128,-1,35
 318 145 318 145 338 127.5 c 128,-1,36
 358 110 358 110 386 110 c 0,37,38
 403 110 403 110 419.5 116 c 128,-1,39
 436 122 436 122 441 133 c 1,40,-1
 473 329 l 1,41,-1
 712 347 l 1,0,1
457 833 m 1,42,43
 453 805 453 805 453 792 c 0,44,45
 453 790 453 790 452.5 784.5 c 128,-1,46
 452 779 452 779 452 776 c 0,47,48
 452 749 452 749 480 749 c 0,49,50
 488 749 488 749 494.5 752.5 c 128,-1,51
 501 756 501 756 505.5 761.5 c 128,-1,52
 510 767 510 767 513.5 776.5 c 128,-1,53
 517 786 517 786 519 793.5 c 128,-1,54
 521 801 521 801 524 813.5 c 128,-1,55
 527 826 527 826 529 833 c 1,56,-1
 700 833 l 1,57,58
 687 774 687 774 625 737 c 128,-1,59
 563 700 563 700 464 700 c 0,60,61
 369 700 369 700 323 730 c 128,-1,62
 277 760 277 760 277 806 c 0,63,64
 277 818 277 818 280 833 c 1,65,-1
 457 833 l 1,42,43
EndSplineSet
Validated: 8388609
Position2: "'cpsp' Capital Spacing lookup 3 subtable" dx=5 dy=0 dh=10 dv=0
EndChar

StartChar: Gcircumflex
Encoding: 284 284 45
Width: 703
Flags: MW
HStem: -20 130<185 396 346 575> 609 71<404 464>
VStem: 34 259<250 353 250 397> 443 192 500 195<524 546>
LayerCount: 2
UndoRedoHistory
Layer: 0
Undoes
EndUndoes
Redoes
EndRedoes
EndUndoRedoHistory
UndoRedoHistory
Layer: 1
Undoes
EndUndoes
Redoes
EndRedoes
EndUndoRedoHistory
Fore
SplineSet
712 347 m 1,0,1
 635 177 635 177 635 6 c 0,2,3
 635 3 635 3 635 0 c 1,4,5
 600 -20 600 -20 560 -20 c 0,6,7
 511 -20 511 -20 478 1 c 128,-1,8
 445 22 445 22 443 42 c 1,9,10
 380 -20 380 -20 265 -20 c 0,11,12
 149 -20 149 -20 91.5 56 c 128,-1,13
 34 132 34 132 34 266 c 0,14,15
 34 462 34 462 150.5 571 c 128,-1,16
 267 680 267 680 473 680 c 0,17,18
 695 680 695 680 695 564 c 0,19,20
 695 506 695 506 647.5 466.5 c 128,-1,21
 600 427 600 427 535 427 c 0,22,23
 511 427 511 427 491 429 c 1,24,25
 500 479 500 479 500 518 c 0,26,27
 500 609 500 609 445 609 c 0,28,29
 406 609 406 609 370 557 c 128,-1,30
 334 505 334 505 313.5 429 c 128,-1,31
 293 353 293 353 293 281 c 0,32,33
 293 253 293 253 296.5 227 c 128,-1,34
 300 201 300 201 309 173 c 128,-1,35
 318 145 318 145 338 127.5 c 128,-1,36
 358 110 358 110 386 110 c 0,37,38
 403 110 403 110 419.5 116 c 128,-1,39
 436 122 436 122 441 133 c 1,40,-1
 473 329 l 1,41,-1
 712 347 l 1,0,1
619 689 m 1,42,-1
 496 726 l 1,43,-1
 339 689 l 1,44,-1
 306 734 l 1,45,-1
 486 854 l 1,46,-1
 531 854 l 1,47,-1
 674 734 l 1,48,-1
 619 689 l 1,42,-1
EndSplineSet
Validated: 8388609
Position2: "'cpsp' Capital Spacing lookup 3 subtable" dx=5 dy=0 dh=10 dv=0
EndChar

StartChar: Gcommaaccent
Encoding: 290 290 46
Width: 703
Flags: MW
HStem: -20 130<185 396 346 575> 609 71<404 464>
VStem: 34 259<250 353 250 397> 213 159<-157 -114> 443 192 500 195<524 546>
LayerCount: 2
UndoRedoHistory
Layer: 0
Undoes
EndUndoes
Redoes
EndRedoes
EndUndoRedoHistory
UndoRedoHistory
Layer: 1
Undoes
EndUndoes
Redoes
EndRedoes
EndUndoRedoHistory
Fore
SplineSet
372 -114 m 0,0,1
 372 -151 372 -151 352.5 -182 c 128,-1,2
 333 -213 333 -213 303.5 -231.5 c 128,-1,3
 274 -250 274 -250 243 -259.5 c 128,-1,4
 212 -269 212 -269 186 -269 c 0,5,6
 170 -269 170 -269 149 -262 c 1,7,8
 187 -224 187 -224 200 -197 c 128,-1,9
 213 -170 213 -170 213 -124 c 0,10,11
 213 -110 213 -110 209.5 -93 c 128,-1,12
 206 -76 206 -76 202 -68 c 1,13,14
 251 -52 251 -52 283 -52 c 0,15,16
 372 -52 372 -52 372 -114 c 0,0,1
712 347 m 1,17,18
 635 177 635 177 635 6 c 0,19,20
 635 3 635 3 635 0 c 1,21,22
 600 -20 600 -20 560 -20 c 0,23,24
 511 -20 511 -20 478 1 c 128,-1,25
 445 22 445 22 443 42 c 1,26,27
 380 -20 380 -20 265 -20 c 0,28,29
 149 -20 149 -20 91.5 56 c 128,-1,30
 34 132 34 132 34 266 c 0,31,32
 34 462 34 462 150.5 571 c 128,-1,33
 267 680 267 680 473 680 c 0,34,35
 695 680 695 680 695 564 c 0,36,37
 695 506 695 506 647.5 466.5 c 128,-1,38
 600 427 600 427 535 427 c 0,39,40
 511 427 511 427 491 429 c 1,41,42
 500 479 500 479 500 518 c 0,43,44
 500 609 500 609 445 609 c 0,45,46
 406 609 406 609 370 557 c 128,-1,47
 334 505 334 505 313.5 429 c 128,-1,48
 293 353 293 353 293 281 c 0,49,50
 293 253 293 253 296.5 227 c 128,-1,51
 300 201 300 201 309 173 c 128,-1,52
 318 145 318 145 338 127.5 c 128,-1,53
 358 110 358 110 386 110 c 0,54,55
 403 110 403 110 419.5 116 c 128,-1,56
 436 122 436 122 441 133 c 1,57,-1
 473 329 l 1,58,-1
 712 347 l 1,17,18
EndSplineSet
Validated: 8388609
Position2: "'cpsp' Capital Spacing lookup 3 subtable" dx=5 dy=0 dh=10 dv=0
EndChar

StartChar: Gdotaccent
Encoding: 288 288 47
Width: 703
Flags: MW
HStem: -20 130<185 396 346 575> 609 71<404 464> 690 169<449 514>
VStem: 34 259<250 353 250 397> 361 237<747 799> 443 192 500 195<524 546>
LayerCount: 2
UndoRedoHistory
Layer: 0
Undoes
EndUndoes
Redoes
EndRedoes
EndUndoRedoHistory
UndoRedoHistory
Layer: 1
Undoes
EndUndoes
Redoes
EndRedoes
EndUndoRedoHistory
Fore
SplineSet
712 347 m 1,0,1
 635 177 635 177 635 6 c 0,2,3
 635 3 635 3 635 0 c 1,4,5
 600 -20 600 -20 560 -20 c 0,6,7
 511 -20 511 -20 478 1 c 128,-1,8
 445 22 445 22 443 42 c 1,9,10
 380 -20 380 -20 265 -20 c 0,11,12
 149 -20 149 -20 91.5 56 c 128,-1,13
 34 132 34 132 34 266 c 0,14,15
 34 462 34 462 150.5 571 c 128,-1,16
 267 680 267 680 473 680 c 0,17,18
 695 680 695 680 695 564 c 0,19,20
 695 506 695 506 647.5 466.5 c 128,-1,21
 600 427 600 427 535 427 c 0,22,23
 511 427 511 427 491 429 c 1,24,25
 500 479 500 479 500 518 c 0,26,27
 500 609 500 609 445 609 c 0,28,29
 406 609 406 609 370 557 c 128,-1,30
 334 505 334 505 313.5 429 c 128,-1,31
 293 353 293 353 293 281 c 0,32,33
 293 253 293 253 296.5 227 c 128,-1,34
 300 201 300 201 309 173 c 128,-1,35
 318 145 318 145 338 127.5 c 128,-1,36
 358 110 358 110 386 110 c 0,37,38
 403 110 403 110 419.5 116 c 128,-1,39
 436 122 436 122 441 133 c 1,40,-1
 473 329 l 1,41,-1
 712 347 l 1,0,1
483 859 m 0,42,43
 534 859 534 859 566 835.5 c 128,-1,44
 598 812 598 812 598 774 c 0,45,46
 598 734 598 734 565 712 c 128,-1,47
 532 690 532 690 479 690 c 128,-1,48
 426 690 426 690 393.5 711.5 c 128,-1,49
 361 733 361 733 361 772 c 0,50,51
 361 812 361 812 396 835.5 c 128,-1,52
 431 859 431 859 483 859 c 0,42,43
EndSplineSet
Validated: 8388609
Position2: "'cpsp' Capital Spacing lookup 3 subtable" dx=5 dy=0 dh=10 dv=0
EndChar

StartChar: H
Encoding: 72 72 48
Width: 696
Flags: MW
HStem: 283 84<315 413 298 429> 640 20G<116 372 372 372 483 740 740 740>
VStem: -11 751<0 660>
LayerCount: 2
UndoRedoHistory
Layer: 0
Undoes
EndUndoes
Redoes
EndRedoes
EndUndoRedoHistory
UndoRedoHistory
Layer: 1
Undoes
EndUndoes
Redoes
EndRedoes
EndUndoRedoHistory
Fore
SplineSet
649 192 m 1,0,1
 638 126 638 126 638 91 c 0,2,3
 638 69 638 69 642.5 48 c 128,-1,4
 647 27 647 27 652 19 c 1,5,6
 624 0 624 0 587 -10 c 128,-1,7
 550 -20 550 -20 515 -20 c 0,8,9
 453 -20 453 -20 420.5 11.5 c 128,-1,10
 388 43 388 43 388 95 c 0,11,12
 388 114 388 114 397 187 c 1,13,-1
 413 283 l 1,14,-1
 298 283 l 1,15,-1
 243 0 l 1,16,-1
 -11 0 l 1,17,-1
 116 660 l 1,18,-1
 372 660 l 1,19,-1
 315 367 l 1,20,-1
 429 367 l 1,21,-1
 483 660 l 1,22,-1
 740 660 l 1,23,-1
 649 192 l 1,0,1
EndSplineSet
Validated: 1
Position2: "'cpsp' Capital Spacing lookup 3 subtable" dx=5 dy=0 dh=10 dv=0
EndChar

StartChar: Hbar
Encoding: 294 294 49
Width: 711
Flags: MW
HStem: 283 84<305 403 288 419> 503 97<22 95 22 95 350 444> 503 157<22 362 22 362 331 331 331 362 106 444 700 700>
VStem: -21 792<0 576>
LayerCount: 2
UndoRedoHistory
Layer: 0
Undoes
EndUndoes
Redoes
EndRedoes
EndUndoRedoHistory
UndoRedoHistory
Layer: 1
Undoes
EndUndoes
Redoes
EndRedoes
EndUndoRedoHistory
Fore
SplineSet
444 503 m 1,0,-1
 331 503 l 1,1,-1
 305 367 l 1,2,-1
 419 367 l 1,3,-1
 444 503 l 1,0,-1
639 192 m 1,4,5
 628 123 628 123 628 91 c 0,6,7
 628 69 628 69 632.5 48 c 128,-1,8
 637 27 637 27 642 19 c 1,9,10
 614 0 614 0 577 -10 c 128,-1,11
 540 -20 540 -20 505 -20 c 0,12,13
 443 -20 443 -20 410.5 11.5 c 128,-1,14
 378 43 378 43 378 95 c 0,15,16
 378 110 378 110 387 187 c 1,17,-1
 403 283 l 1,18,-1
 288 283 l 1,19,-1
 233 0 l 1,20,-1
 -21 0 l 1,21,-1
 76 503 l 1,22,-1
 22 503 l 1,23,24
 18 513 18 513 18 532 c 0,25,26
 18 562 18 562 38.5 581 c 128,-1,27
 59 600 59 600 90 600 c 2,28,-1
 95 600 l 1,29,-1
 106 660 l 1,30,-1
 362 660 l 1,31,-1
 350 600 l 1,32,-1
 461 600 l 1,33,-1
 473 660 l 1,34,-1
 730 660 l 1,35,-1
 718 600 l 1,36,-1
 767 600 l 1,37,38
 771 582 771 582 771 570 c 0,39,40
 771 542 771 542 753 523.5 c 128,-1,41
 735 505 735 505 700 503 c 1,42,-1
 639 192 l 1,4,5
EndSplineSet
Validated: 8388609
Position2: "'cpsp' Capital Spacing lookup 3 subtable" dx=5 dy=0 dh=10 dv=0
EndChar

StartChar: Hcircumflex
Encoding: 292 292 50
Width: 696
Flags: MW
HStem: 283 84<315 413 298 429> 640 20G<116 372 372 372 483 740 740 740>
VStem: -11 751<0 660>
LayerCount: 2
UndoRedoHistory
Layer: 0
Undoes
EndUndoes
Redoes
EndRedoes
EndUndoRedoHistory
UndoRedoHistory
Layer: 1
Undoes
EndUndoes
Redoes
EndRedoes
EndUndoRedoHistory
Fore
SplineSet
649 192 m 1,0,1
 638 126 638 126 638 91 c 0,2,3
 638 69 638 69 642.5 48 c 128,-1,4
 647 27 647 27 652 19 c 1,5,6
 624 0 624 0 587 -10 c 128,-1,7
 550 -20 550 -20 515 -20 c 0,8,9
 453 -20 453 -20 420.5 11.5 c 128,-1,10
 388 43 388 43 388 95 c 0,11,12
 388 114 388 114 397 187 c 1,13,-1
 413 283 l 1,14,-1
 298 283 l 1,15,-1
 243 0 l 1,16,-1
 -11 0 l 1,17,-1
 116 660 l 1,18,-1
 372 660 l 1,19,-1
 315 367 l 1,20,-1
 429 367 l 1,21,-1
 483 660 l 1,22,-1
 740 660 l 1,23,-1
 649 192 l 1,0,1
584 689 m 1,24,-1
 461 726 l 1,25,-1
 304 689 l 1,26,-1
 271 734 l 1,27,-1
 451 854 l 1,28,-1
 496 854 l 1,29,-1
 639 734 l 1,30,-1
 584 689 l 1,24,-1
EndSplineSet
Validated: 1
Position2: "'cpsp' Capital Spacing lookup 3 subtable" dx=5 dy=0 dh=10 dv=0
EndChar

StartChar: Hdotbelow
Encoding: 7716 7716 51
Width: 696
Flags: MW
HStem: -201 169<269 333> 283 84<315 413 298 429> 640 20G<116 372 372 372 483 740 740 740>
VStem: -11 751<0 660> 181 237<-145 -92>
LayerCount: 2
UndoRedoHistory
Layer: 0
Undoes
EndUndoes
Redoes
EndRedoes
EndUndoRedoHistory
UndoRedoHistory
Layer: 1
Undoes
EndUndoes
Redoes
EndRedoes
EndUndoRedoHistory
Fore
SplineSet
303 -32 m 0,0,1
 354 -32 354 -32 386 -55.5 c 128,-1,2
 418 -79 418 -79 418 -117 c 0,3,4
 418 -157 418 -157 385 -179 c 128,-1,5
 352 -201 352 -201 299 -201 c 128,-1,6
 246 -201 246 -201 213.5 -179.5 c 128,-1,7
 181 -158 181 -158 181 -119 c 0,8,9
 181 -79 181 -79 216 -55.5 c 128,-1,10
 251 -32 251 -32 303 -32 c 0,0,1
649 192 m 1,11,12
 638 126 638 126 638 91 c 0,13,14
 638 69 638 69 642.5 48 c 128,-1,15
 647 27 647 27 652 19 c 1,16,17
 624 0 624 0 587 -10 c 128,-1,18
 550 -20 550 -20 515 -20 c 0,19,20
 453 -20 453 -20 420.5 11.5 c 128,-1,21
 388 43 388 43 388 95 c 0,22,23
 388 114 388 114 397 187 c 1,24,-1
 413 283 l 1,25,-1
 298 283 l 1,26,-1
 243 0 l 1,27,-1
 -11 0 l 1,28,-1
 116 660 l 1,29,-1
 372 660 l 1,30,-1
 315 367 l 1,31,-1
 429 367 l 1,32,-1
 483 660 l 1,33,-1
 740 660 l 1,34,-1
 649 192 l 1,11,12
EndSplineSet
Validated: 8388609
Position2: "'cpsp' Capital Spacing lookup 3 subtable" dx=5 dy=0 dh=10 dv=0
EndChar

StartChar: I
Encoding: 73 73 52
Width: 338
Flags: MW
HStem: 640 20G<116 386 386 386>
VStem: -11 397
LayerCount: 2
UndoRedoHistory
Layer: 0
Undoes
EndUndoes
Redoes
EndRedoes
EndUndoRedoHistory
UndoRedoHistory
Layer: 1
Undoes
EndUndoes
Redoes
EndRedoes
EndUndoRedoHistory
Fore
SplineSet
257 0 m 1,0,-1
 -11 0 l 1,1,-1
 116 660 l 1,2,-1
 386 660 l 1,3,-1
 257 0 l 1,0,-1
EndSplineSet
Validated: 1
Position2: "'cpsp' Capital Spacing lookup 3 subtable" dx=5 dy=0 dh=10 dv=0
EndChar

StartChar: IJ
Encoding: 306 306 53
Width: 677
Flags: MW
HStem: 640 20G<116 386 386 386 458 723 723 723>
VStem: -11 734<0 660>
LayerCount: 2
UndoRedoHistory
Layer: 0
Undoes
EndUndoes
Redoes
EndRedoes
EndUndoRedoHistory
UndoRedoHistory
Layer: 1
Undoes
EndUndoes
Redoes
EndRedoes
EndUndoRedoHistory
Fore
SplineSet
635 197 m 2,0,1
 613 79 613 79 585 0.5 c 128,-1,2
 557 -78 557 -78 519.5 -123 c 128,-1,3
 482 -168 482 -168 438.5 -186.5 c 128,-1,4
 395 -205 395 -205 335 -205 c 0,5,6
 222 -205 222 -205 197 -146 c 1,7,8
 242 -127 242 -127 258 -115 c 0,9,10
 292 -88 292 -88 316 -19 c 0,11,12
 340 51 340 51 371 206 c 1,13,-1
 458 660 l 1,14,-1
 723 660 l 1,15,-1
 635 197 l 2,0,1
-11 0 m 1,16,-1
 116 660 l 1,17,-1
 386 660 l 1,18,-1
 257 0 l 1,19,-1
 -11 0 l 1,16,-1
EndSplineSet
Validated: 1
Position2: "'cpsp' Capital Spacing lookup 3 subtable" dx=5 dy=0 dh=10 dv=0
EndChar

StartChar: Iacute
Encoding: 205 205 54
Width: 338
Flags: MW
HStem: 640 20G<116 386 386 386>
VStem: -11 474
LayerCount: 2
UndoRedoHistory
Layer: 0
Undoes
EndUndoes
Redoes
EndRedoes
EndUndoRedoHistory
UndoRedoHistory
Layer: 1
Undoes
EndUndoes
Redoes
EndRedoes
EndUndoRedoHistory
Fore
SplineSet
-11 0 m 1,0,-1
 116 660 l 1,1,-1
 386 660 l 1,2,-1
 257 0 l 1,3,-1
 -11 0 l 1,0,-1
182 760 m 1,4,-1
 432 869 l 1,5,6
 448 856 448 856 455.5 843.5 c 128,-1,7
 463 831 463 831 463 810 c 0,8,9
 463 761 463 761 422 737 c 128,-1,10
 381 713 381 713 316 712 c 2,11,-1
 196 709 l 1,12,-1
 182 760 l 1,4,-1
EndSplineSet
Validated: 1
Position2: "'cpsp' Capital Spacing lookup 3 subtable" dx=5 dy=0 dh=10 dv=0
EndChar

StartChar: Ibreve
Encoding: 300 300 55
Width: 338
Flags: MW
HStem: 640 20G<116 386 386 386> 700 133<188 249 321 325>
VStem: 69 175<778 779 770 811>
LayerCount: 2
UndoRedoHistory
Layer: 0
Undoes
EndUndoes
Redoes
EndRedoes
EndUndoRedoHistory
UndoRedoHistory
Layer: 1
Undoes
EndUndoes
Redoes
EndRedoes
EndUndoRedoHistory
Fore
SplineSet
-11 0 m 1,0,-1
 116 660 l 1,1,-1
 386 660 l 1,2,-1
 257 0 l 1,3,-1
 -11 0 l 1,0,-1
249 833 m 1,4,5
 245 805 245 805 245 792 c 0,6,7
 245 790 245 790 244.5 784.5 c 128,-1,8
 244 779 244 779 244 776 c 0,9,10
 244 749 244 749 272 749 c 0,11,12
 280 749 280 749 286.5 752.5 c 128,-1,13
 293 756 293 756 297.5 761.5 c 128,-1,14
 302 767 302 767 305.5 776.5 c 128,-1,15
 309 786 309 786 311 793.5 c 128,-1,16
 313 801 313 801 316 813.5 c 128,-1,17
 319 826 319 826 321 833 c 1,18,-1
 492 833 l 1,19,20
 479 774 479 774 417 737 c 128,-1,21
 355 700 355 700 256 700 c 0,22,23
 161 700 161 700 115 730 c 128,-1,24
 69 760 69 760 69 806 c 0,25,26
 69 818 69 818 72 833 c 1,27,-1
 249 833 l 1,4,5
EndSplineSet
Validated: 1
Position2: "'cpsp' Capital Spacing lookup 3 subtable" dx=5 dy=0 dh=10 dv=0
EndChar

StartChar: Icircumflex
Encoding: 206 206 56
Width: 338
Flags: MW
HStem: 640 20G<116 386 386 386>
VStem: -11 477
LayerCount: 2
UndoRedoHistory
Layer: 0
Undoes
EndUndoes
Redoes
EndRedoes
EndUndoRedoHistory
UndoRedoHistory
Layer: 1
Undoes
EndUndoes
Redoes
EndRedoes
EndUndoRedoHistory
Fore
SplineSet
-11 0 m 1,0,-1
 116 660 l 1,1,-1
 386 660 l 1,2,-1
 257 0 l 1,3,-1
 -11 0 l 1,0,-1
411 689 m 1,4,-1
 288 726 l 1,5,-1
 131 689 l 1,6,-1
 98 734 l 1,7,-1
 278 854 l 1,8,-1
 323 854 l 1,9,-1
 466 734 l 1,10,-1
 411 689 l 1,4,-1
EndSplineSet
Validated: 1
Position2: "'cpsp' Capital Spacing lookup 3 subtable" dx=5 dy=0 dh=10 dv=0
EndChar

StartChar: Idieresis
Encoding: 207 207 57
Width: 338
Flags: MW
HStem: 640 20G<116 386 386 386> 690 169<111 175 360 424>
VStem: 23 237<747 799> 272 237<747 799>
LayerCount: 2
UndoRedoHistory
Layer: 0
Undoes
EndUndoes
Redoes
EndRedoes
EndUndoRedoHistory
UndoRedoHistory
Layer: 1
Undoes
EndUndoes
Redoes
EndRedoes
EndUndoRedoHistory
Fore
SplineSet
-11 0 m 1,0,-1
 116 660 l 1,1,-1
 386 660 l 1,2,-1
 257 0 l 1,3,-1
 -11 0 l 1,0,-1
394 859 m 0,4,5
 445 859 445 859 477 835.5 c 128,-1,6
 509 812 509 812 509 774 c 0,7,8
 509 734 509 734 476 712 c 128,-1,9
 443 690 443 690 390 690 c 128,-1,10
 337 690 337 690 304.5 711.5 c 128,-1,11
 272 733 272 733 272 772 c 0,12,13
 272 812 272 812 307 835.5 c 128,-1,14
 342 859 342 859 394 859 c 0,4,5
145 859 m 0,15,16
 196 859 196 859 228 835.5 c 128,-1,17
 260 812 260 812 260 774 c 0,18,19
 260 734 260 734 227 712 c 128,-1,20
 194 690 194 690 141 690 c 128,-1,21
 88 690 88 690 55.5 711.5 c 128,-1,22
 23 733 23 733 23 772 c 0,23,24
 23 812 23 812 58 835.5 c 128,-1,25
 93 859 93 859 145 859 c 0,15,16
EndSplineSet
Validated: 1
Position2: "'cpsp' Capital Spacing lookup 3 subtable" dx=5 dy=0 dh=10 dv=0
EndChar

StartChar: Idotaccent
Encoding: 304 304 58
Width: 338
Flags: MW
HStem: 640 20G<116 386 386 386> 690 169<241 306>
VStem: 153 237<747 799>
LayerCount: 2
UndoRedoHistory
Layer: 0
Undoes
EndUndoes
Redoes
EndRedoes
EndUndoRedoHistory
UndoRedoHistory
Layer: 1
Undoes
EndUndoes
Redoes
EndRedoes
EndUndoRedoHistory
Fore
SplineSet
-11 0 m 1,0,-1
 116 660 l 1,1,-1
 386 660 l 1,2,-1
 257 0 l 1,3,-1
 -11 0 l 1,0,-1
275 859 m 0,4,5
 326 859 326 859 358 835.5 c 128,-1,6
 390 812 390 812 390 774 c 0,7,8
 390 734 390 734 357 712 c 128,-1,9
 324 690 324 690 271 690 c 128,-1,10
 218 690 218 690 185.5 711.5 c 128,-1,11
 153 733 153 733 153 772 c 0,12,13
 153 812 153 812 188 835.5 c 128,-1,14
 223 859 223 859 275 859 c 0,4,5
EndSplineSet
Validated: 1
Position2: "'cpsp' Capital Spacing lookup 3 subtable" dx=5 dy=0 dh=10 dv=0
EndChar

StartChar: Idotbelow
Encoding: 7882 7882 59
Width: 338
Flags: MW
HStem: -201 169<79 144> 640 20G<116 386 386 386>
VStem: -11 397 -9 237<-145 -92>
LayerCount: 2
UndoRedoHistory
Layer: 0
Undoes
EndUndoes
Redoes
EndRedoes
EndUndoRedoHistory
UndoRedoHistory
Layer: 1
Undoes
EndUndoes
Redoes
EndRedoes
EndUndoRedoHistory
Fore
SplineSet
113 -32 m 0,0,1
 164 -32 164 -32 196 -55.5 c 128,-1,2
 228 -79 228 -79 228 -117 c 0,3,4
 228 -157 228 -157 195 -179 c 128,-1,5
 162 -201 162 -201 109 -201 c 128,-1,6
 56 -201 56 -201 23.5 -179.5 c 128,-1,7
 -9 -158 -9 -158 -9 -119 c 0,8,9
 -9 -79 -9 -79 26 -55.5 c 128,-1,10
 61 -32 61 -32 113 -32 c 0,0,1
-11 0 m 1,11,-1
 116 660 l 1,12,-1
 386 660 l 1,13,-1
 257 0 l 1,14,-1
 -11 0 l 1,11,-1
EndSplineSet
Validated: 8388609
Position2: "'cpsp' Capital Spacing lookup 3 subtable" dx=5 dy=0 dh=10 dv=0
EndChar

StartChar: Igrave
Encoding: 204 204 60
Width: 338
Flags: MW
HStem: 640 20G<116 386 386 386> 711 50
VStem: -11 402
LayerCount: 2
UndoRedoHistory
Layer: 0
Undoes
EndUndoes
Redoes
EndRedoes
EndUndoRedoHistory
UndoRedoHistory
Layer: 1
Undoes
EndUndoes
Redoes
EndRedoes
EndUndoRedoHistory
Fore
SplineSet
-11 0 m 1,0,-1
 116 660 l 1,1,-1
 386 660 l 1,2,-1
 257 0 l 1,3,-1
 -11 0 l 1,0,-1
377 710 m 1,4,-1
 256 713 l 2,5,6
 214 714 214 714 182.5 723.5 c 128,-1,7
 151 733 151 733 130.5 755.5 c 128,-1,8
 110 778 110 778 110 812 c 0,9,10
 110 847 110 847 141 870 c 1,11,-1
 391 762 l 1,12,-1
 377 710 l 1,4,-1
EndSplineSet
Validated: 1
Position2: "'cpsp' Capital Spacing lookup 3 subtable" dx=5 dy=0 dh=10 dv=0
EndChar

StartChar: Imacron
Encoding: 298 298 61
Width: 338
Flags: MW
HStem: 640 20G<116 386 386 386> 742 96<185 362 117 438>
VStem: -11 453
LayerCount: 2
UndoRedoHistory
Layer: 0
Undoes
EndUndoes
Redoes
EndRedoes
EndUndoRedoHistory
UndoRedoHistory
Layer: 1
Undoes
EndUndoes
Redoes
EndRedoes
EndUndoRedoHistory
Fore
SplineSet
-11 0 m 1,0,-1
 116 660 l 1,1,-1
 386 660 l 1,2,-1
 257 0 l 1,3,-1
 -11 0 l 1,0,-1
438 838 m 1,4,5
 442 822 442 822 442 808 c 0,6,7
 442 779 442 779 421.5 760.5 c 128,-1,8
 401 742 401 742 362 742 c 2,9,-1
 117 742 l 1,10,11
 114 752 114 752 114 770 c 0,12,13
 114 800 114 800 134.5 819 c 128,-1,14
 155 838 155 838 185 838 c 2,15,-1
 438 838 l 1,4,5
EndSplineSet
Validated: 1
Position2: "'cpsp' Capital Spacing lookup 3 subtable" dx=5 dy=0 dh=10 dv=0
EndChar

StartChar: Iogonek
Encoding: 302 302 62
Width: 338
Flags: MW
HStem: -258 99<202 212> 640 20G<116 386 386 386>
VStem: 41 132<-131 -116>
LayerCount: 2
UndoRedoHistory
Layer: 0
Undoes
EndUndoes
Redoes
EndRedoes
EndUndoRedoHistory
UndoRedoHistory
Layer: 1
Undoes
EndUndoes
Redoes
EndRedoes
EndUndoRedoHistory
Fore
SplineSet
245 0 m 1,0,1
 173 -56 173 -56 173 -115 c 0,2,3
 173 -138 173 -138 183.5 -148.5 c 128,-1,4
 194 -159 194 -159 215 -159 c 0,5,6
 254 -159 254 -159 275 -134 c 1,7,8
 294 -161 294 -161 294 -194 c 0,9,10
 294 -221 294 -221 262 -239.5 c 128,-1,11
 230 -258 230 -258 169 -258 c 128,-1,12
 108 -258 108 -258 74.5 -231.5 c 128,-1,13
 41 -205 41 -205 41 -154 c 0,14,15
 41 -51 41 -51 148 0 c 1,16,-1
 -11 0 l 1,17,-1
 116 660 l 1,18,-1
 386 660 l 1,19,-1
 259 10 l 1,20,-1
 257 0 l 1,21,-1
 245 0 l 1,0,1
EndSplineSet
Validated: 1
Position2: "'cpsp' Capital Spacing lookup 3 subtable" dx=5 dy=0 dh=10 dv=0
EndChar

StartChar: Itilde
Encoding: 296 296 63
Width: 338
Flags: MW
HStem: 640 20G<116 386 386 386> 721 119<381 418 381 418> 740 117<146 181>
VStem: -11 502
LayerCount: 2
UndoRedoHistory
Layer: 0
Undoes
EndUndoes
Redoes
EndRedoes
EndUndoRedoHistory
UndoRedoHistory
Layer: 1
Undoes
EndUndoes
Redoes
EndRedoes
EndUndoRedoHistory
Fore
SplineSet
-11 0 m 1,0,-1
 116 660 l 1,1,-1
 386 660 l 1,2,-1
 257 0 l 1,3,-1
 -11 0 l 1,0,-1
470 857 m 1,4,5
 491 832 491 832 491 801 c 0,6,7
 491 762 491 762 463 741.5 c 128,-1,8
 435 721 435 721 385 721 c 0,9,10
 357 721 357 721 268.5 730.5 c 128,-1,11
 180 740 180 740 161 740 c 0,12,13
 141 740 141 740 120 734.5 c 128,-1,14
 99 729 99 729 89 722 c 1,15,16
 67 751 67 751 67 784 c 0,17,18
 67 819 67 819 95 838 c 128,-1,19
 123 857 123 857 175 857 c 0,20,21
 207 857 207 857 295 848.5 c 128,-1,22
 383 840 383 840 405 840 c 0,23,24
 451 840 451 840 470 857 c 1,4,5
EndSplineSet
Validated: 8388609
Position2: "'cpsp' Capital Spacing lookup 3 subtable" dx=5 dy=0 dh=10 dv=0
EndChar

StartChar: J
Encoding: 74 74 64
Width: 338
Flags: MW
HStem: 640 20G<119 384 384 384>
VStem: -142 526
LayerCount: 2
UndoRedoHistory
Layer: 0
Undoes
EndUndoes
Redoes
EndRedoes
EndUndoRedoHistory
UndoRedoHistory
Layer: 1
Undoes
EndUndoes
Redoes
EndRedoes
EndUndoRedoHistory
Fore
SplineSet
296 197 m 2,0,1
 274 79 274 79 246 0.5 c 128,-1,2
 218 -78 218 -78 180.5 -123 c 128,-1,3
 143 -168 143 -168 99.5 -186.5 c 128,-1,4
 56 -205 56 -205 -4 -205 c 0,5,6
 -117 -205 -117 -205 -142 -146 c 1,7,8
 -97 -127 -97 -127 -81 -115 c 0,9,10
 -47 -88 -47 -88 -22 -19 c 1,11,12
 2 51 2 51 32 206 c 2,13,-1
 119 660 l 1,14,-1
 384 660 l 1,15,-1
 296 197 l 2,0,1
EndSplineSet
Validated: 1
Position2: "'cpsp' Capital Spacing lookup 3 subtable" dx=5 dy=0 dh=10 dv=0
EndChar

StartChar: Jcircumflex
Encoding: 308 308 65
Width: 338
Flags: MW
HStem: 640 20G<119 384 384 384>
VStem: -142 602
LayerCount: 2
UndoRedoHistory
Layer: 0
Undoes
EndUndoes
Redoes
EndRedoes
EndUndoRedoHistory
UndoRedoHistory
Layer: 1
Undoes
EndUndoes
Redoes
EndRedoes
EndUndoRedoHistory
Fore
SplineSet
296 197 m 2,0,1
 274 79 274 79 246 0.5 c 128,-1,2
 218 -78 218 -78 180.5 -123 c 128,-1,3
 143 -168 143 -168 99.5 -186.5 c 128,-1,4
 56 -205 56 -205 -4 -205 c 0,5,6
 -117 -205 -117 -205 -142 -146 c 1,7,8
 -97 -127 -97 -127 -81 -115 c 0,9,10
 -47 -88 -47 -88 -22 -19 c 1,11,12
 2 51 2 51 32 206 c 2,13,-1
 119 660 l 1,14,-1
 384 660 l 1,15,-1
 296 197 l 2,0,1
405 689 m 1,16,-1
 282 726 l 1,17,-1
 125 689 l 1,18,-1
 92 734 l 1,19,-1
 272 854 l 1,20,-1
 317 854 l 1,21,-1
 460 734 l 1,22,-1
 405 689 l 1,16,-1
EndSplineSet
Validated: 1
Position2: "'cpsp' Capital Spacing lookup 3 subtable" dx=5 dy=0 dh=10 dv=0
EndChar

StartChar: K
Encoding: 75 75 66
Width: 747
Flags: MW
HStem: 640 20G<117 378 378 378 579 842 842 842>
VStem: -8 850<0 660>
LayerCount: 2
UndoRedoHistory
Layer: 0
Undoes
EndUndoes
Redoes
EndRedoes
EndUndoRedoHistory
UndoRedoHistory
Layer: 1
Undoes
EndUndoes
Redoes
EndRedoes
EndUndoRedoHistory
Fore
SplineSet
842 660 m 1,0,1
 801 619 801 619 762 577.5 c 128,-1,2
 723 536 723 536 695.5 506 c 128,-1,3
 668 476 668 476 641 444 c 128,-1,4
 614 412 614 412 600.5 395.5 c 128,-1,5
 587 379 587 379 570.5 358 c 128,-1,6
 554 337 554 337 553 336 c 1,7,8
 600 121 600 121 694 71 c 1,9,10
 663 -20 663 -20 555 -20 c 0,11,12
 520 -20 520 -20 491.5 -10 c 128,-1,13
 463 0 463 0 442 17.5 c 128,-1,14
 421 35 421 35 404.5 61 c 128,-1,15
 388 87 388 87 377 115.5 c 128,-1,16
 366 144 366 144 357.5 181 c 128,-1,17
 349 218 349 218 344.5 252 c 128,-1,18
 340 286 340 286 336 328 c 1,19,-1
 579 660 l 1,20,-1
 842 660 l 1,0,1
252 0 m 1,21,-1
 -8 0 l 1,22,23
 91 547 91 547 117 660 c 1,24,-1
 378 660 l 1,25,-1
 252 0 l 1,21,-1
EndSplineSet
Validated: 1
Position2: "'cpsp' Capital Spacing lookup 3 subtable" dx=5 dy=0 dh=10 dv=0
EndChar

StartChar: Kcommaaccent
Encoding: 310 310 67
Width: 747
Flags: MW
HStem: 640 20G<117 378 378 378 579 842 842 842>
VStem: 234 159<-157 -114>
LayerCount: 2
UndoRedoHistory
Layer: 0
Undoes
EndUndoes
Redoes
EndRedoes
EndUndoRedoHistory
UndoRedoHistory
Layer: 1
Undoes
EndUndoes
Redoes
EndRedoes
EndUndoRedoHistory
Fore
SplineSet
393 -114 m 0,0,1
 393 -151 393 -151 373.5 -182 c 128,-1,2
 354 -213 354 -213 324.5 -231.5 c 128,-1,3
 295 -250 295 -250 264 -259.5 c 128,-1,4
 233 -269 233 -269 207 -269 c 0,5,6
 191 -269 191 -269 170 -262 c 1,7,8
 208 -224 208 -224 221 -197 c 128,-1,9
 234 -170 234 -170 234 -124 c 0,10,11
 234 -110 234 -110 230.5 -93 c 128,-1,12
 227 -76 227 -76 223 -68 c 1,13,14
 272 -52 272 -52 304 -52 c 0,15,16
 393 -52 393 -52 393 -114 c 0,0,1
842 660 m 1,17,18
 801 619 801 619 762 577.5 c 128,-1,19
 723 536 723 536 695.5 506 c 128,-1,20
 668 476 668 476 641 444 c 128,-1,21
 614 412 614 412 600.5 395.5 c 128,-1,22
 587 379 587 379 570.5 358 c 128,-1,23
 554 337 554 337 553 336 c 1,24,25
 600 121 600 121 694 71 c 1,26,27
 663 -20 663 -20 555 -20 c 0,28,29
 520 -20 520 -20 491.5 -10 c 128,-1,30
 463 0 463 0 442 17.5 c 128,-1,31
 421 35 421 35 404.5 61 c 128,-1,32
 388 87 388 87 377 115.5 c 128,-1,33
 366 144 366 144 357.5 181 c 128,-1,34
 349 218 349 218 344.5 252 c 128,-1,35
 340 286 340 286 336 328 c 1,36,-1
 579 660 l 1,37,-1
 842 660 l 1,17,18
-8 0 m 1,38,39
 91 547 91 547 117 660 c 1,40,-1
 378 660 l 1,41,-1
 252 0 l 1,42,-1
 -8 0 l 1,38,39
EndSplineSet
Validated: 1
Position2: "'cpsp' Capital Spacing lookup 3 subtable" dx=5 dy=0 dh=10 dv=0
EndChar

StartChar: L
Encoding: 76 76 68
Width: 507
Flags: MW
HStem: 0 135<293 353> 640 20G<116 384 384 384>
VStem: -2 490<0 92>
LayerCount: 2
UndoRedoHistory
Layer: 0
Undoes
EndUndoes
Redoes
EndRedoes
EndUndoRedoHistory
UndoRedoHistory
Layer: 1
Undoes
EndUndoes
Redoes
EndRedoes
EndUndoRedoHistory
Fore
SplineSet
116 660 m 1,0,-1
 384 660 l 1,1,-1
 293 135 l 1,2,-1
 365 135 l 2,3,4
 428 135 428 135 474 144 c 1,5,6
 488 127 488 127 488 84 c 0,7,8
 488 59 488 59 477 41.5 c 128,-1,9
 466 24 466 24 446 15.5 c 128,-1,10
 426 7 426 7 404 3.5 c 128,-1,11
 382 0 382 0 353 0 c 2,12,-1
 -2 0 l 1,13,-1
 116 660 l 1,0,-1
EndSplineSet
Validated: 1
Position2: "'cpsp' Capital Spacing lookup 3 subtable" dx=5 dy=0 dh=10 dv=0
EndChar

StartChar: LJ
Encoding: 455 455 69
Width: 846
Flags: MW
HStem: 0 135<293 353> 640 20G<116 384 384 384 627 892 892 892>
VStem: -2 894<0 660>
LayerCount: 2
UndoRedoHistory
Layer: 0
Undoes
EndUndoes
Redoes
EndRedoes
EndUndoRedoHistory
UndoRedoHistory
Layer: 1
Undoes
EndUndoes
Redoes
EndRedoes
EndUndoRedoHistory
Fore
SplineSet
804 197 m 2,0,1
 786 102 786 102 764.5 33 c 128,-1,2
 743 -36 743 -36 717 -81.5 c 128,-1,3
 691 -127 691 -127 658 -154.5 c 128,-1,4
 625 -182 625 -182 588 -193.5 c 128,-1,5
 551 -205 551 -205 504 -205 c 0,6,7
 392 -205 392 -205 366 -146 c 1,8,9
 410 -127 410 -127 427 -115 c 1,10,11
 461 -88 461 -88 485 -19 c 0,12,13
 509 51 509 51 540 206 c 1,14,-1
 627 660 l 1,15,-1
 892 660 l 1,16,-1
 804 197 l 2,0,1
384 660 m 1,17,-1
 293 135 l 1,18,-1
 365 135 l 2,19,20
 428 135 428 135 474 144 c 1,21,22
 488 127 488 127 488 84 c 0,23,24
 488 59 488 59 477 41.5 c 128,-1,25
 466 24 466 24 446 15.5 c 128,-1,26
 426 7 426 7 404 3.5 c 128,-1,27
 382 0 382 0 353 0 c 2,28,-1
 -2 0 l 1,29,-1
 116 660 l 1,30,-1
 384 660 l 1,17,-1
EndSplineSet
Validated: 1
Position2: "'cpsp' Capital Spacing lookup 3 subtable" dx=5 dy=0 dh=10 dv=0
EndChar

StartChar: Lacute
Encoding: 313 313 70
Width: 507
Flags: MW
HStem: 0 135<293 353> 640 20G<116 384 384 384>
VStem: -2 490<0 92>
LayerCount: 2
UndoRedoHistory
Layer: 0
Undoes
EndUndoes
Redoes
EndRedoes
EndUndoRedoHistory
UndoRedoHistory
Layer: 1
Undoes
EndUndoes
Redoes
EndRedoes
EndUndoRedoHistory
Fore
SplineSet
384 660 m 1,0,-1
 293 135 l 1,1,-1
 365 135 l 2,2,3
 428 135 428 135 474 144 c 1,4,5
 488 127 488 127 488 84 c 0,6,7
 488 59 488 59 477 41.5 c 128,-1,8
 466 24 466 24 446 15.5 c 128,-1,9
 426 7 426 7 404 3.5 c 128,-1,10
 382 0 382 0 353 0 c 2,11,-1
 -2 0 l 1,12,-1
 116 660 l 1,13,-1
 384 660 l 1,0,-1
180 760 m 1,14,-1
 430 869 l 1,15,16
 446 856 446 856 453.5 843.5 c 128,-1,17
 461 831 461 831 461 810 c 0,18,19
 461 761 461 761 420 737 c 128,-1,20
 379 713 379 713 314 712 c 2,21,-1
 194 709 l 1,22,-1
 180 760 l 1,14,-1
EndSplineSet
Validated: 1
Position2: "'cpsp' Capital Spacing lookup 3 subtable" dx=5 dy=0 dh=10 dv=0
EndChar

StartChar: Lcaron
Encoding: 317 317 71
Width: 507
Flags: MW
HStem: 0 135<293 353> 506 20G 520 140<116 480> 698 20G<488 522>
VStem: 442 136<626 652>
LayerCount: 2
UndoRedoHistory
Layer: 0
Undoes
EndUndoes
Redoes
EndRedoes
EndUndoRedoHistory
UndoRedoHistory
Layer: 1
Undoes
EndUndoes
Redoes
EndRedoes
EndUndoRedoHistory
Fore
SplineSet
384 660 m 1,0,-1
 293 135 l 1,1,-1
 365 135 l 2,2,3
 428 135 428 135 474 144 c 1,4,5
 488 127 488 127 488 84 c 0,6,7
 488 59 488 59 477 41.5 c 128,-1,8
 466 24 466 24 446 15.5 c 128,-1,9
 426 7 426 7 404 3.5 c 128,-1,10
 382 0 382 0 353 0 c 2,11,-1
 -2 0 l 1,12,-1
 116 660 l 1,13,-1
 384 660 l 1,0,-1
433 703 m 1,14,15
 466 718 466 718 499 718 c 0,16,17
 535 718 535 718 556.5 694 c 128,-1,18
 578 670 578 670 578 631 c 0,19,20
 578 615 578 615 568.5 596.5 c 128,-1,21
 559 578 559 578 541.5 560.5 c 128,-1,22
 524 543 524 543 495.5 531.5 c 128,-1,23
 467 520 467 520 434 520 c 0,24,25
 420 520 420 520 397 526 c 1,26,27
 417 548 417 548 427.5 572 c 128,-1,28
 438 596 438 596 440 609 c 128,-1,29
 442 622 442 622 442 639 c 0,30,31
 442 670 442 670 433 703 c 1,14,15
EndSplineSet
Validated: 8388609
Position2: "'cpsp' Capital Spacing lookup 3 subtable" dx=5 dy=0 dh=10 dv=0
EndChar

StartChar: Lcommaaccent
Encoding: 315 315 72
Width: 507
Flags: MW
HStem: 0 135<293 353> 640 20G<116 384 384 384>
VStem: 109 159<-157 -114>
LayerCount: 2
UndoRedoHistory
Layer: 0
Undoes
EndUndoes
Redoes
EndRedoes
EndUndoRedoHistory
UndoRedoHistory
Layer: 1
Undoes
EndUndoes
Redoes
EndRedoes
EndUndoRedoHistory
Fore
SplineSet
268 -114 m 0,0,1
 268 -151 268 -151 248.5 -182 c 128,-1,2
 229 -213 229 -213 199.5 -231.5 c 128,-1,3
 170 -250 170 -250 139 -259.5 c 128,-1,4
 108 -269 108 -269 82 -269 c 0,5,6
 66 -269 66 -269 45 -262 c 1,7,8
 83 -224 83 -224 96 -197 c 128,-1,9
 109 -170 109 -170 109 -124 c 0,10,11
 109 -110 109 -110 105.5 -93 c 128,-1,12
 102 -76 102 -76 98 -68 c 1,13,14
 147 -52 147 -52 179 -52 c 0,15,16
 268 -52 268 -52 268 -114 c 0,0,1
384 660 m 1,17,-1
 293 135 l 1,18,-1
 365 135 l 2,19,20
 428 135 428 135 474 144 c 1,21,22
 488 127 488 127 488 84 c 0,23,24
 488 59 488 59 477 41.5 c 128,-1,25
 466 24 466 24 446 15.5 c 128,-1,26
 426 7 426 7 404 3.5 c 128,-1,27
 382 0 382 0 353 0 c 2,28,-1
 -2 0 l 1,29,-1
 116 660 l 1,30,-1
 384 660 l 1,17,-1
EndSplineSet
Validated: 1
Position2: "'cpsp' Capital Spacing lookup 3 subtable" dx=5 dy=0 dh=10 dv=0
EndChar

StartChar: Ldot
Encoding: 319 319 73
Width: 507
Flags: MW
HStem: 0 135<293 353> 240 147<424 442> 640 20G<116 384 384 384>
VStem: -2 510<0 346> 355 153<305 320>
LayerCount: 2
UndoRedoHistory
Layer: 0
Undoes
EndUndoes
Redoes
EndRedoes
EndUndoRedoHistory
UndoRedoHistory
Layer: 1
Undoes
EndUndoes
Redoes
EndRedoes
EndUndoRedoHistory
Fore
SplineSet
449 387 m 0,0,1
 476 387 476 387 492 371 c 128,-1,2
 508 355 508 355 508 330 c 0,3,4
 508 292 508 292 481.5 266 c 128,-1,5
 455 240 455 240 416 240 c 0,6,7
 387 240 387 240 371 255.5 c 128,-1,8
 355 271 355 271 355 296 c 0,9,10
 355 333 355 333 383 360 c 128,-1,11
 411 387 411 387 449 387 c 0,0,1
384 660 m 1,12,-1
 293 135 l 1,13,-1
 365 135 l 2,14,15
 428 135 428 135 474 144 c 1,16,17
 488 127 488 127 488 84 c 0,18,19
 488 59 488 59 477 41.5 c 128,-1,20
 466 24 466 24 446 15.5 c 128,-1,21
 426 7 426 7 404 3.5 c 128,-1,22
 382 0 382 0 353 0 c 2,23,-1
 -2 0 l 1,24,-1
 116 660 l 1,25,-1
 384 660 l 1,12,-1
EndSplineSet
Validated: 8388609
Ligature2: "Ligature Substitution lookup 20 subtable" L periodcentered
Position2: "'cpsp' Capital Spacing lookup 3 subtable" dx=5 dy=0 dh=10 dv=0
EndChar

StartChar: Lj
Encoding: 456 456 74
Width: 817
Flags: MW
HStem: -200 82 0 135<293 353> 581 177<701 768> 640 20G<116 384 384 384>
VStem: -2 859<0 697>
LayerCount: 2
UndoRedoHistory
Layer: 0
Undoes
EndUndoes
Redoes
EndRedoes
EndUndoRedoHistory
UndoRedoHistory
Layer: 1
Undoes
EndUndoes
Redoes
EndRedoes
EndUndoRedoHistory
Fore
SplineSet
759 122 m 2,0,1
 746 56 746 56 732.5 8 c 128,-1,2
 719 -40 719 -40 699.5 -81.5 c 128,-1,3
 680 -123 680 -123 655.5 -147.5 c 128,-1,4
 631 -172 631 -172 597 -186 c 128,-1,5
 563 -200 563 -200 520 -200 c 0,6,7
 467 -200 467 -200 428.5 -180.5 c 128,-1,8
 390 -161 390 -161 377 -118 c 1,9,10
 401 -117 401 -117 419.5 -108 c 128,-1,11
 438 -99 438 -99 452 -82.5 c 128,-1,12
 466 -66 466 -66 477.5 -36.5 c 128,-1,13
 489 -7 489 -7 498.5 29 c 128,-1,14
 508 65 508 65 518 118 c 2,15,-1
 592 510 l 1,16,-1
 837 534 l 1,17,-1
 759 122 l 2,0,1
384 660 m 1,18,-1
 293 135 l 1,19,-1
 365 135 l 2,20,21
 428 135 428 135 474 144 c 1,22,23
 488 127 488 127 488 84 c 0,24,25
 488 59 488 59 477 41.5 c 128,-1,26
 466 24 466 24 446 15.5 c 128,-1,27
 426 7 426 7 404 3.5 c 128,-1,28
 382 0 382 0 353 0 c 2,29,-1
 -2 0 l 1,30,-1
 116 660 l 1,31,-1
 384 660 l 1,18,-1
736 758 m 0,32,33
 791 758 791 758 824 734 c 128,-1,34
 857 710 857 710 857 669 c 0,35,36
 857 627 857 627 822.5 604 c 128,-1,37
 788 581 788 581 732 581 c 128,-1,38
 676 581 676 581 642 603.5 c 128,-1,39
 608 626 608 626 608 667 c 0,40,41
 608 709 608 709 644.5 733.5 c 128,-1,42
 681 758 681 758 736 758 c 0,32,33
EndSplineSet
Validated: 8388609
Position2: "'cpsp' Capital Spacing lookup 3 subtable" dx=5 dy=0 dh=10 dv=0
EndChar

StartChar: Lslash
Encoding: 321 321 75
Width: 549
Flags: MW
HStem: 0 135<357 417> 640 20G<180 448 448 448>
VStem: -4 556<49 248>
LayerCount: 2
UndoRedoHistory
Layer: 0
Undoes
EndUndoes
Redoes
EndRedoes
EndUndoRedoHistory
UndoRedoHistory
Layer: 1
Undoes
EndUndoes
Redoes
EndRedoes
EndUndoRedoHistory
Fore
SplineSet
429 135 m 2,0,1
 492 135 492 135 538 144 c 1,2,3
 552 127 552 127 552 84 c 0,4,5
 552 59 552 59 541 41.5 c 128,-1,6
 530 24 530 24 510 15.5 c 128,-1,7
 490 7 490 7 468 3.5 c 128,-1,8
 446 0 446 0 417 0 c 2,9,-1
 62 0 l 1,10,-1
 100 215 l 1,11,-1
 18 186 l 1,12,13
 -4 205 -4 205 -4 236 c 0,14,15
 -4 282 -4 282 44 299 c 2,16,-1
 120 326 l 1,17,-1
 180 660 l 1,18,-1
 448 660 l 1,19,-1
 408 432 l 1,20,-1
 485 460 l 1,21,22
 506 442 506 442 506 407 c 0,23,24
 506 382 506 382 488.5 364.5 c 128,-1,25
 471 347 471 347 431 333 c 2,26,-1
 389 318 l 1,27,-1
 357 135 l 1,28,-1
 429 135 l 2,0,1
EndSplineSet
Validated: 1
Position2: "'cpsp' Capital Spacing lookup 3 subtable" dx=5 dy=0 dh=10 dv=0
EndChar

StartChar: M
Encoding: 77 77 76
Width: 823
Flags: MW
HStem: 640 20G<133 371 371 371 586 811 811 811>
VStem: 555 232<122 137 137 137> 565 235
LayerCount: 2
UndoRedoHistory
Layer: 0
Undoes
EndUndoes
Redoes
EndRedoes
EndUndoRedoHistory
UndoRedoHistory
Layer: 1
Undoes
EndUndoes
Redoes
EndRedoes
EndUndoRedoHistory
Fore
SplineSet
811 660 m 1,0,-1
 789 203 l 2,1,2
 787 173 787 173 787 146 c 0,3,4
 787 63 787 63 824 41 c 1,5,6
 811 15 811 15 771.5 -2 c 128,-1,7
 732 -19 732 -19 681 -19 c 0,8,9
 621 -19 621 -19 588 13 c 128,-1,10
 555 45 555 45 555 105 c 2,11,12
 555 114 l 1,13,-1
 555 126 l 1,14,-1
 555 137 l 1,15,-1
 575 415 l 1,16,-1
 394 0 l 1,17,-1
 260 0 l 1,18,-1
 180 415 l 1,19,-1
 87 0 l 1,20,-1
 -36 0 l 1,21,-1
 133 660 l 1,22,-1
 371 660 l 1,23,-1
 436 335 l 1,24,-1
 586 660 l 1,25,-1
 811 660 l 1,0,-1
EndSplineSet
Validated: 8388609
Position2: "'cpsp' Capital Spacing lookup 3 subtable" dx=5 dy=0 dh=10 dv=0
EndChar

StartChar: N
Encoding: 78 78 77
Width: 685
Flags: MW
HStem: 640 20G<116 366 366 366 599 727 727 727>
VStem: -3 730<0 660>
LayerCount: 2
UndoRedoHistory
Layer: 0
Undoes
EndUndoes
Redoes
EndRedoes
EndUndoRedoHistory
UndoRedoHistory
Layer: 1
Undoes
EndUndoes
Redoes
EndRedoes
EndUndoRedoHistory
Fore
SplineSet
-3 0 m 1,0,-1
 116 660 l 1,1,-1
 366 660 l 1,2,-1
 528 237 l 1,3,-1
 599 660 l 1,4,-1
 727 660 l 1,5,-1
 604 0 l 1,6,-1
 327 0 l 1,7,-1
 188 390 l 1,8,-1
 123 0 l 1,9,-1
 -3 0 l 1,0,-1
EndSplineSet
Validated: 1
Position2: "'cpsp' Capital Spacing lookup 3 subtable" dx=5 dy=0 dh=10 dv=0
EndChar

StartChar: NJ
Encoding: 458 458 78
Width: 1024
Flags: MW
HStem: 640 20G<116 366 366 366 599 727 727 727 805 1070 1070 1070>
VStem: -3 1073<0 660>
LayerCount: 2
UndoRedoHistory
Layer: 0
Undoes
EndUndoes
Redoes
EndRedoes
EndUndoRedoHistory
UndoRedoHistory
Layer: 1
Undoes
EndUndoes
Redoes
EndRedoes
EndUndoRedoHistory
Fore
SplineSet
982 197 m 2,0,1
 960 79 960 79 932 0.5 c 128,-1,2
 904 -78 904 -78 866.5 -123 c 128,-1,3
 829 -168 829 -168 785.5 -186.5 c 128,-1,4
 742 -205 742 -205 682 -205 c 0,5,6
 569 -205 569 -205 544 -146 c 1,7,8
 588 -127 588 -127 605 -115 c 1,9,10
 639 -88 639 -88 663 -19 c 0,11,12
 687 51 687 51 718 206 c 1,13,-1
 805 660 l 1,14,-1
 1070 660 l 1,15,-1
 982 197 l 2,0,1
116 660 m 1,16,-1
 366 660 l 1,17,-1
 528 237 l 1,18,-1
 599 660 l 1,19,-1
 727 660 l 1,20,-1
 604 0 l 1,21,-1
 327 0 l 1,22,-1
 188 390 l 1,23,-1
 123 0 l 1,24,-1
 -3 0 l 1,25,-1
 116 660 l 1,16,-1
EndSplineSet
Validated: 1
Position2: "'cpsp' Capital Spacing lookup 3 subtable" dx=5 dy=0 dh=10 dv=0
EndChar

StartChar: Nacute
Encoding: 323 323 79
Width: 685
Flags: MW
HStem: 640 20G<116 366 366 366 599 727 727 727>
VStem: -3 730<0 660>
LayerCount: 2
UndoRedoHistory
Layer: 0
Undoes
EndUndoes
Redoes
EndRedoes
EndUndoRedoHistory
UndoRedoHistory
Layer: 1
Undoes
EndUndoes
Redoes
EndRedoes
EndUndoRedoHistory
Fore
SplineSet
116 660 m 1,0,-1
 366 660 l 1,1,-1
 528 237 l 1,2,-1
 599 660 l 1,3,-1
 727 660 l 1,4,-1
 604 0 l 1,5,-1
 327 0 l 1,6,-1
 188 390 l 1,7,-1
 123 0 l 1,8,-1
 -3 0 l 1,9,-1
 116 660 l 1,0,-1
347 760 m 1,10,-1
 597 869 l 1,11,12
 613 856 613 856 620.5 843.5 c 128,-1,13
 628 831 628 831 628 810 c 0,14,15
 628 761 628 761 587 737 c 128,-1,16
 546 713 546 713 481 712 c 2,17,-1
 361 709 l 1,18,-1
 347 760 l 1,10,-1
EndSplineSet
Validated: 1
Substitution2: "'locl' Localized Forms in Latin lookup 13 subtable" Nacute.loclPLK
Substitution2: "'aalt' Access All Alternates lookup 0 subtable" Nacute.loclPLK
Position2: "'cpsp' Capital Spacing lookup 3 subtable" dx=5 dy=0 dh=10 dv=0
EndChar

StartChar: Ncaron
Encoding: 327 327 80
Width: 685
Flags: MW
HStem: 640 20G<116 366 366 366 599 727 727 727>
VStem: -3 730<0 660>
LayerCount: 2
UndoRedoHistory
Layer: 0
Undoes
EndUndoes
Redoes
EndRedoes
EndUndoRedoHistory
UndoRedoHistory
Layer: 1
Undoes
EndUndoes
Redoes
EndRedoes
EndUndoRedoHistory
Fore
SplineSet
116 660 m 1,0,-1
 366 660 l 1,1,-1
 528 237 l 1,2,-1
 599 660 l 1,3,-1
 727 660 l 1,4,-1
 604 0 l 1,5,-1
 327 0 l 1,6,-1
 188 390 l 1,7,-1
 123 0 l 1,8,-1
 -3 0 l 1,9,-1
 116 660 l 1,0,-1
328 870 m 1,10,-1
 461 813 l 1,11,-1
 628 870 l 1,12,-1
 661 825 l 1,13,-1
 501 695 l 1,14,-1
 396 695 l 1,15,-1
 273 825 l 1,16,-1
 328 870 l 1,10,-1
EndSplineSet
Validated: 1
Position2: "'cpsp' Capital Spacing lookup 3 subtable" dx=5 dy=0 dh=10 dv=0
EndChar

StartChar: Ncommaaccent
Encoding: 325 325 81
Width: 685
Flags: MW
HStem: 640 20G<116 366 366 366 599 727 727 727>
VStem: 200 159<-157 -114>
LayerCount: 2
UndoRedoHistory
Layer: 0
Undoes
EndUndoes
Redoes
EndRedoes
EndUndoRedoHistory
UndoRedoHistory
Layer: 1
Undoes
EndUndoes
Redoes
EndRedoes
EndUndoRedoHistory
Fore
SplineSet
359 -114 m 0,0,1
 359 -151 359 -151 339.5 -182 c 128,-1,2
 320 -213 320 -213 290.5 -231.5 c 128,-1,3
 261 -250 261 -250 230 -259.5 c 128,-1,4
 199 -269 199 -269 173 -269 c 0,5,6
 158 -269 158 -269 136 -262 c 1,7,8
 174 -224 174 -224 187 -197 c 128,-1,9
 200 -170 200 -170 200 -124 c 0,10,11
 200 -110 200 -110 196.5 -93 c 128,-1,12
 193 -76 193 -76 189 -68 c 1,13,14
 238 -52 238 -52 270 -52 c 0,15,16
 359 -52 359 -52 359 -114 c 0,0,1
116 660 m 1,17,-1
 366 660 l 1,18,-1
 528 237 l 1,19,-1
 599 660 l 1,20,-1
 727 660 l 1,21,-1
 604 0 l 1,22,-1
 327 0 l 1,23,-1
 188 390 l 1,24,-1
 123 0 l 1,25,-1
 -3 0 l 1,26,-1
 116 660 l 1,17,-1
EndSplineSet
Validated: 1
Position2: "'cpsp' Capital Spacing lookup 3 subtable" dx=5 dy=0 dh=10 dv=0
EndChar

StartChar: Ndotaccent
Encoding: 7748 7748 82
Width: 685
Flags: MW
HStem: 640 20G<116 366 366 366 599 727 727 727> 690 169<406 471>
VStem: -3 730<0 660> 318 237<747 799>
LayerCount: 2
UndoRedoHistory
Layer: 0
Undoes
EndUndoes
Redoes
EndRedoes
EndUndoRedoHistory
UndoRedoHistory
Layer: 1
Undoes
EndUndoes
Redoes
EndRedoes
EndUndoRedoHistory
Fore
SplineSet
116 660 m 1,0,-1
 366 660 l 1,1,-1
 528 237 l 1,2,-1
 599 660 l 1,3,-1
 727 660 l 1,4,-1
 604 0 l 1,5,-1
 327 0 l 1,6,-1
 188 390 l 1,7,-1
 123 0 l 1,8,-1
 -3 0 l 1,9,-1
 116 660 l 1,0,-1
440 859 m 0,10,11
 491 859 491 859 523 835.5 c 128,-1,12
 555 812 555 812 555 774 c 0,13,14
 555 734 555 734 522 712 c 128,-1,15
 489 690 489 690 436 690 c 128,-1,16
 383 690 383 690 350.5 711.5 c 128,-1,17
 318 733 318 733 318 772 c 0,18,19
 318 812 318 812 353 835.5 c 128,-1,20
 388 859 388 859 440 859 c 0,10,11
EndSplineSet
Validated: 8388609
Position2: "'cpsp' Capital Spacing lookup 3 subtable" dx=5 dy=0 dh=10 dv=0
EndChar

StartChar: Eng
Encoding: 330 330 83
Width: 684
Flags: MW
HStem: 640 20G<116 366 366 366 599 727 727 727>
VStem: -3 730<0 660>
LayerCount: 2
UndoRedoHistory
Layer: 0
Undoes
EndUndoes
Redoes
EndRedoes
EndUndoRedoHistory
UndoRedoHistory
Layer: 1
Undoes
EndUndoes
Redoes
EndRedoes
EndUndoRedoHistory
Fore
SplineSet
123 0 m 1,0,-1
 -3 0 l 1,1,-1
 116 660 l 1,2,-1
 366 660 l 1,3,-1
 528 237 l 1,4,-1
 599 660 l 1,5,-1
 727 660 l 1,6,-1
 614 51 l 2,7,8
 594 -53 594 -53 569.5 -110.5 c 128,-1,9
 545 -168 545 -168 511.5 -191.5 c 128,-1,10
 478 -215 478 -215 425 -215 c 0,11,12
 362 -215 362 -215 347 -180 c 1,13,14
 392 -164 392 -164 401 -159 c 0,15,16
 436 -141 436 -141 456 -98 c 0,17,18
 473 -62 473 -62 486 0 c 1,19,-1
 334 0 l 1,20,-1
 188 390 l 1,21,-1
 123 0 l 1,0,-1
EndSplineSet
Validated: 1
Position2: "'cpsp' Capital Spacing lookup 3 subtable" dx=5 dy=0 dh=10 dv=0
EndChar

StartChar: Nj
Encoding: 459 459 84
Width: 995
Flags: MW
HStem: -200 82 581 79 581 177<878 946> 640 20G<116 366 366 366 599 727 727 727>
VStem: -3 1038<0 697>
LayerCount: 2
UndoRedoHistory
Layer: 0
Undoes
EndUndoes
Redoes
EndRedoes
EndUndoRedoHistory
UndoRedoHistory
Layer: 1
Undoes
EndUndoes
Redoes
EndRedoes
EndUndoRedoHistory
Fore
SplineSet
937 122 m 2,0,1
 924 56 924 56 910.5 8 c 128,-1,2
 897 -40 897 -40 877.5 -81.5 c 128,-1,3
 858 -123 858 -123 833.5 -147.5 c 128,-1,4
 809 -172 809 -172 775.5 -186 c 128,-1,5
 742 -200 742 -200 698 -200 c 0,6,7
 645 -200 645 -200 606.5 -180.5 c 128,-1,8
 568 -161 568 -161 555 -118 c 1,9,10
 613 -116 613 -116 641.5 -65 c 128,-1,11
 670 -14 670 -14 696 118 c 1,12,-1
 770 510 l 1,13,-1
 1015 534 l 1,14,-1
 937 122 l 2,0,1
116 660 m 1,15,-1
 366 660 l 1,16,-1
 528 237 l 1,17,-1
 599 660 l 1,18,-1
 727 660 l 1,19,-1
 604 0 l 1,20,-1
 327 0 l 1,21,-1
 188 390 l 1,22,-1
 123 0 l 1,23,-1
 -3 0 l 1,24,-1
 116 660 l 1,15,-1
914 758 m 0,25,26
 969 758 969 758 1002 734 c 128,-1,27
 1035 710 1035 710 1035 669 c 0,28,29
 1035 627 1035 627 1000.5 604 c 128,-1,30
 966 581 966 581 910 581 c 128,-1,31
 854 581 854 581 820 603.5 c 128,-1,32
 786 626 786 626 786 667 c 0,33,34
 786 709 786 709 822.5 733.5 c 128,-1,35
 859 758 859 758 914 758 c 0,25,26
EndSplineSet
Validated: 8388609
Position2: "'cpsp' Capital Spacing lookup 3 subtable" dx=5 dy=0 dh=10 dv=0
EndChar

StartChar: Ntilde
Encoding: 209 209 85
Width: 685
Flags: MW
HStem: 640 20G<116 366 366 366 599 727 727 727> 721 119<546 583 546 583> 740 117<312 346>
VStem: -3 730<0 660>
LayerCount: 2
UndoRedoHistory
Layer: 0
Undoes
EndUndoes
Redoes
EndRedoes
EndUndoRedoHistory
UndoRedoHistory
Layer: 1
Undoes
EndUndoes
Redoes
EndRedoes
EndUndoRedoHistory
Fore
SplineSet
116 660 m 1,0,-1
 366 660 l 1,1,-1
 528 237 l 1,2,-1
 599 660 l 1,3,-1
 727 660 l 1,4,-1
 604 0 l 1,5,-1
 327 0 l 1,6,-1
 188 390 l 1,7,-1
 123 0 l 1,8,-1
 -3 0 l 1,9,-1
 116 660 l 1,0,-1
635 857 m 1,10,11
 656 832 656 832 656 801 c 0,12,13
 656 762 656 762 628 741.5 c 128,-1,14
 600 721 600 721 550 721 c 0,15,16
 522 721 522 721 433.5 730.5 c 128,-1,17
 345 740 345 740 326 740 c 0,18,19
 306 740 306 740 285 734.5 c 128,-1,20
 264 729 264 729 254 722 c 1,21,22
 232 751 232 751 232 784 c 0,23,24
 232 819 232 819 260 838 c 128,-1,25
 288 857 288 857 340 857 c 0,26,27
 372 857 372 857 460 848.5 c 128,-1,28
 548 840 548 840 570 840 c 0,29,30
 616 840 616 840 635 857 c 1,10,11
EndSplineSet
Validated: 8388609
Position2: "'cpsp' Capital Spacing lookup 3 subtable" dx=5 dy=0 dh=10 dv=0
EndChar

StartChar: O
Encoding: 79 79 86
Width: 738
Flags: MW
HStem: -20 71<326 367 326 455> 610 70<404 447>
VStem: 36 263<112 400> 472 263<259 548>
LayerCount: 2
UndoRedoHistory
Layer: 0
Undoes
EndUndoes
Redoes
EndRedoes
EndUndoRedoHistory
UndoRedoHistory
Layer: 1
Undoes
EndUndoes
Redoes
EndRedoes
EndUndoRedoHistory
Fore
SplineSet
429 610 m 0,0,1
 389 610 389 610 359 531.5 c 128,-1,2
 329 453 329 453 308 268 c 0,3,4
 299 185 299 185 299 136 c 0,5,6
 299 95 299 95 308.5 73 c 128,-1,7
 318 51 318 51 345 51 c 0,8,9
 424 51 424 51 463 393 c 0,10,11
 472 476 472 476 472 525 c 0,12,13
 472 566 472 566 463 588 c 128,-1,14
 454 610 454 610 429 610 c 0,0,1
442 680 m 0,15,16
 584 680 584 680 659.5 607.5 c 128,-1,17
 735 535 735 535 735 382 c 0,18,19
 735 197 735 197 626.5 88.5 c 128,-1,20
 518 -20 518 -20 329 -20 c 0,21,22
 187 -20 187 -20 111.5 52.5 c 128,-1,23
 36 125 36 125 36 278 c 0,24,25
 36 463 36 463 144.5 571.5 c 128,-1,26
 253 680 253 680 442 680 c 0,15,16
EndSplineSet
Validated: 1
Substitution2: "Single Substitution lookup 21 subtable" ordmasculine
Substitution2: "'aalt' Access All Alternates lookup 0 subtable" ordmasculine
Position2: "'cpsp' Capital Spacing lookup 3 subtable" dx=5 dy=0 dh=10 dv=0
EndChar

StartChar: Oacute
Encoding: 211 211 87
Width: 738
Flags: MW
HStem: -20 71<326 367 326 455> 610 70<404 447>
VStem: 36 263<112 400> 36 699<259 400> 472 263<259 548>
LayerCount: 2
UndoRedoHistory
Layer: 0
Undoes
EndUndoes
Redoes
EndRedoes
EndUndoRedoHistory
UndoRedoHistory
Layer: 1
Undoes
EndUndoes
Redoes
EndRedoes
EndUndoRedoHistory
Fore
SplineSet
429 610 m 0,0,1
 389 610 389 610 359 531.5 c 128,-1,2
 329 453 329 453 308 268 c 0,3,4
 299 185 299 185 299 136 c 0,5,6
 299 95 299 95 308.5 73 c 128,-1,7
 318 51 318 51 345 51 c 0,8,9
 424 51 424 51 463 393 c 0,10,11
 472 476 472 476 472 525 c 0,12,13
 472 566 472 566 463 588 c 128,-1,14
 454 610 454 610 429 610 c 0,0,1
442 680 m 0,15,16
 584 680 584 680 659.5 607.5 c 128,-1,17
 735 535 735 535 735 382 c 0,18,19
 735 197 735 197 626.5 88.5 c 128,-1,20
 518 -20 518 -20 329 -20 c 0,21,22
 187 -20 187 -20 111.5 52.5 c 128,-1,23
 36 125 36 125 36 278 c 0,24,25
 36 463 36 463 144.5 571.5 c 128,-1,26
 253 680 253 680 442 680 c 0,15,16
362 760 m 1,27,-1
 612 869 l 1,28,29
 628 856 628 856 635.5 843 c 128,-1,30
 643 830 643 830 643 810 c 0,31,32
 643 761 643 761 602 737 c 128,-1,33
 561 713 561 713 496 712 c 2,34,-1
 376 709 l 1,35,-1
 362 760 l 1,27,-1
EndSplineSet
Validated: 8388609
Substitution2: "'locl' Localized Forms in Latin lookup 13 subtable" Oacute.loclPLK
Substitution2: "'aalt' Access All Alternates lookup 0 subtable" Oacute.loclPLK
Position2: "'cpsp' Capital Spacing lookup 3 subtable" dx=5 dy=0 dh=10 dv=0
EndChar

StartChar: Obreve
Encoding: 334 334 88
Width: 738
Flags: MW
HStem: -20 71<326 367 326 455> 610 70<404 447> 700 133<369 429 501 504>
VStem: 36 263<112 400> 249 175<778 779 770 811> 472 263<259 548>
LayerCount: 2
UndoRedoHistory
Layer: 0
Undoes
EndUndoes
Redoes
EndRedoes
EndUndoRedoHistory
UndoRedoHistory
Layer: 1
Undoes
EndUndoes
Redoes
EndRedoes
EndUndoRedoHistory
Fore
SplineSet
429 610 m 0,0,1
 389 610 389 610 359 531.5 c 128,-1,2
 329 453 329 453 308 268 c 0,3,4
 299 185 299 185 299 136 c 0,5,6
 299 95 299 95 308.5 73 c 128,-1,7
 318 51 318 51 345 51 c 0,8,9
 424 51 424 51 463 393 c 0,10,11
 472 476 472 476 472 525 c 0,12,13
 472 566 472 566 463 588 c 128,-1,14
 454 610 454 610 429 610 c 0,0,1
442 680 m 0,15,16
 584 680 584 680 659.5 607.5 c 128,-1,17
 735 535 735 535 735 382 c 0,18,19
 735 197 735 197 626.5 88.5 c 128,-1,20
 518 -20 518 -20 329 -20 c 0,21,22
 187 -20 187 -20 111.5 52.5 c 128,-1,23
 36 125 36 125 36 278 c 0,24,25
 36 463 36 463 144.5 571.5 c 128,-1,26
 253 680 253 680 442 680 c 0,15,16
429 833 m 1,27,28
 425 801 425 801 425 792 c 0,29,30
 425 790 425 790 424.5 784.5 c 128,-1,31
 424 779 424 779 424 776 c 0,32,33
 424 749 424 749 452 749 c 0,34,35
 460 749 460 749 467 752.5 c 128,-1,36
 474 756 474 756 478 761.5 c 128,-1,37
 482 767 482 767 485.5 776.5 c 128,-1,38
 489 786 489 786 491 793.5 c 128,-1,39
 493 801 493 801 496 813.5 c 128,-1,40
 499 826 499 826 501 833 c 1,41,-1
 672 833 l 1,42,43
 659 774 659 774 597.5 737 c 128,-1,44
 536 700 536 700 436 700 c 0,45,46
 341 700 341 700 295 730 c 128,-1,47
 249 760 249 760 249 806 c 0,48,49
 249 818 249 818 252 833 c 1,50,-1
 429 833 l 1,27,28
EndSplineSet
Validated: 8388609
Position2: "'cpsp' Capital Spacing lookup 3 subtable" dx=5 dy=0 dh=10 dv=0
EndChar

StartChar: Ocircumflex
Encoding: 212 212 89
Width: 738
Flags: MW
HStem: -20 71<326 367 326 455> 610 70<404 447>
VStem: 36 263<112 400> 36 699<259 400> 472 263<259 548>
LayerCount: 2
UndoRedoHistory
Layer: 0
Undoes
EndUndoes
Redoes
EndRedoes
EndUndoRedoHistory
UndoRedoHistory
Layer: 1
Undoes
EndUndoes
Redoes
EndRedoes
EndUndoRedoHistory
Fore
SplineSet
429 610 m 0,0,1
 389 610 389 610 359 531.5 c 128,-1,2
 329 453 329 453 308 268 c 0,3,4
 299 185 299 185 299 136 c 0,5,6
 299 95 299 95 308.5 73 c 128,-1,7
 318 51 318 51 345 51 c 0,8,9
 424 51 424 51 463 393 c 0,10,11
 472 476 472 476 472 525 c 0,12,13
 472 566 472 566 463 588 c 128,-1,14
 454 610 454 610 429 610 c 0,0,1
442 680 m 0,15,16
 584 680 584 680 659.5 607.5 c 128,-1,17
 735 535 735 535 735 382 c 0,18,19
 735 197 735 197 626.5 88.5 c 128,-1,20
 518 -20 518 -20 329 -20 c 0,21,22
 187 -20 187 -20 111.5 52.5 c 128,-1,23
 36 125 36 125 36 278 c 0,24,25
 36 463 36 463 144.5 571.5 c 128,-1,26
 253 680 253 680 442 680 c 0,15,16
591 689 m 1,27,-1
 468 726 l 1,28,-1
 311 689 l 1,29,-1
 278 734 l 1,30,-1
 458 854 l 1,31,-1
 503 854 l 1,32,-1
 646 734 l 1,33,-1
 591 689 l 1,27,-1
EndSplineSet
Validated: 8388609
Position2: "'cpsp' Capital Spacing lookup 3 subtable" dx=5 dy=0 dh=10 dv=0
EndChar

StartChar: Odieresis
Encoding: 214 214 90
Width: 738
Flags: MW
HStem: -20 71<326 367 326 455> 610 70<404 447> 690 169<291 355 540 604>
VStem: 36 263<112 400> 203 237<747 799> 452 237<747 799> 472 263<259 548>
LayerCount: 2
UndoRedoHistory
Layer: 0
Undoes
EndUndoes
Redoes
EndRedoes
EndUndoRedoHistory
UndoRedoHistory
Layer: 1
Undoes
EndUndoes
Redoes
EndRedoes
EndUndoRedoHistory
Fore
SplineSet
429 610 m 0,0,1
 389 610 389 610 359 531.5 c 128,-1,2
 329 453 329 453 308 268 c 0,3,4
 299 185 299 185 299 136 c 0,5,6
 299 95 299 95 308.5 73 c 128,-1,7
 318 51 318 51 345 51 c 0,8,9
 424 51 424 51 463 393 c 0,10,11
 472 476 472 476 472 525 c 0,12,13
 472 566 472 566 463 588 c 128,-1,14
 454 610 454 610 429 610 c 0,0,1
442 680 m 0,15,16
 584 680 584 680 659.5 607.5 c 128,-1,17
 735 535 735 535 735 382 c 0,18,19
 735 197 735 197 626.5 88.5 c 128,-1,20
 518 -20 518 -20 329 -20 c 0,21,22
 187 -20 187 -20 111.5 52.5 c 128,-1,23
 36 125 36 125 36 278 c 0,24,25
 36 463 36 463 144.5 571.5 c 128,-1,26
 253 680 253 680 442 680 c 0,15,16
574 859 m 0,27,28
 625 859 625 859 657 835.5 c 128,-1,29
 689 812 689 812 689 774 c 0,30,31
 689 734 689 734 656 712 c 128,-1,32
 623 690 623 690 570 690 c 128,-1,33
 517 690 517 690 484.5 711.5 c 128,-1,34
 452 733 452 733 452 772 c 0,35,36
 452 812 452 812 487 835.5 c 128,-1,37
 522 859 522 859 574 859 c 0,27,28
325 859 m 0,38,39
 376 859 376 859 408 835.5 c 128,-1,40
 440 812 440 812 440 774 c 0,41,42
 440 734 440 734 407 712 c 128,-1,43
 374 690 374 690 321 690 c 128,-1,44
 268 690 268 690 235.5 711.5 c 128,-1,45
 203 733 203 733 203 772 c 0,46,47
 203 812 203 812 238 835.5 c 128,-1,48
 273 859 273 859 325 859 c 0,38,39
EndSplineSet
Validated: 8388609
Position2: "'cpsp' Capital Spacing lookup 3 subtable" dx=5 dy=0 dh=10 dv=0
EndChar

StartChar: Odotbelow
Encoding: 7884 7884 91
Width: 738
Flags: MW
HStem: -201 169<299 363> -20 71<326 367 326 455> 610 70<404 447>
VStem: 36 263<112 400> 211 237<-145 -92> 472 263<259 548>
LayerCount: 2
UndoRedoHistory
Layer: 0
Undoes
EndUndoes
Redoes
EndRedoes
EndUndoRedoHistory
UndoRedoHistory
Layer: 1
Undoes
EndUndoes
Redoes
EndRedoes
EndUndoRedoHistory
Fore
SplineSet
333 -32 m 0,0,1
 384 -32 384 -32 416 -55.5 c 128,-1,2
 448 -79 448 -79 448 -117 c 0,3,4
 448 -157 448 -157 415 -179 c 128,-1,5
 382 -201 382 -201 329 -201 c 128,-1,6
 276 -201 276 -201 243.5 -179.5 c 128,-1,7
 211 -158 211 -158 211 -119 c 0,8,9
 211 -79 211 -79 246 -55.5 c 128,-1,10
 281 -32 281 -32 333 -32 c 0,0,1
429 610 m 0,11,12
 389 610 389 610 359 531.5 c 128,-1,13
 329 453 329 453 308 268 c 0,14,15
 299 185 299 185 299 136 c 0,16,17
 299 95 299 95 308.5 73 c 128,-1,18
 318 51 318 51 345 51 c 0,19,20
 424 51 424 51 463 393 c 0,21,22
 472 476 472 476 472 525 c 0,23,24
 472 566 472 566 463 588 c 128,-1,25
 454 610 454 610 429 610 c 0,11,12
442 680 m 0,26,27
 584 680 584 680 659.5 607.5 c 128,-1,28
 735 535 735 535 735 382 c 0,29,30
 735 197 735 197 626.5 88.5 c 128,-1,31
 518 -20 518 -20 329 -20 c 0,32,33
 187 -20 187 -20 111.5 52.5 c 128,-1,34
 36 125 36 125 36 278 c 0,35,36
 36 463 36 463 144.5 571.5 c 128,-1,37
 253 680 253 680 442 680 c 0,26,27
EndSplineSet
Validated: 8388609
Position2: "'cpsp' Capital Spacing lookup 3 subtable" dx=5 dy=0 dh=10 dv=0
EndChar

StartChar: Ograve
Encoding: 210 210 92
Width: 738
Flags: MW
HStem: -20 71<326 367 326 455> 610 70<404 447> 711 50
VStem: 36 263<112 400> 36 699<259 400> 472 263<259 548>
LayerCount: 2
UndoRedoHistory
Layer: 0
Undoes
EndUndoes
Redoes
EndRedoes
EndUndoRedoHistory
UndoRedoHistory
Layer: 1
Undoes
EndUndoes
Redoes
EndRedoes
EndUndoRedoHistory
Fore
SplineSet
429 610 m 0,0,1
 389 610 389 610 359 531.5 c 128,-1,2
 329 453 329 453 308 268 c 0,3,4
 299 185 299 185 299 136 c 0,5,6
 299 95 299 95 308.5 73 c 128,-1,7
 318 51 318 51 345 51 c 0,8,9
 424 51 424 51 463 393 c 0,10,11
 472 476 472 476 472 525 c 0,12,13
 472 566 472 566 463 588 c 128,-1,14
 454 610 454 610 429 610 c 0,0,1
442 680 m 0,15,16
 584 680 584 680 659.5 607.5 c 128,-1,17
 735 535 735 535 735 382 c 0,18,19
 735 197 735 197 626.5 88.5 c 128,-1,20
 518 -20 518 -20 329 -20 c 0,21,22
 187 -20 187 -20 111.5 52.5 c 128,-1,23
 36 125 36 125 36 278 c 0,24,25
 36 463 36 463 144.5 571.5 c 128,-1,26
 253 680 253 680 442 680 c 0,15,16
557 710 m 1,27,-1
 436 713 l 2,28,29
 394 714 394 714 362.5 723.5 c 128,-1,30
 331 733 331 733 310.5 755.5 c 128,-1,31
 290 778 290 778 290 812 c 0,32,33
 290 847 290 847 321 870 c 1,34,-1
 571 762 l 1,35,-1
 557 710 l 1,27,-1
EndSplineSet
Validated: 8388609
Position2: "'cpsp' Capital Spacing lookup 3 subtable" dx=5 dy=0 dh=10 dv=0
EndChar

StartChar: Ohungarumlaut
Encoding: 336 336 93
Width: 738
Flags: MW
HStem: -20 71<326 367 326 455> 610 70<404 447>
VStem: 36 263<112 400> 36 714<173 809> 472 263<259 548>
LayerCount: 2
UndoRedoHistory
Layer: 0
Undoes
EndUndoes
Redoes
EndRedoes
EndUndoRedoHistory
UndoRedoHistory
Layer: 1
Undoes
EndUndoes
Redoes
EndRedoes
EndUndoRedoHistory
Fore
SplineSet
429 610 m 0,0,1
 389 610 389 610 359 531.5 c 128,-1,2
 329 453 329 453 308 268 c 0,3,4
 299 185 299 185 299 136 c 0,5,6
 299 95 299 95 308.5 73 c 128,-1,7
 318 51 318 51 345 51 c 0,8,9
 424 51 424 51 463 393 c 0,10,11
 472 476 472 476 472 525 c 0,12,13
 472 566 472 566 463 588 c 128,-1,14
 454 610 454 610 429 610 c 0,0,1
442 680 m 0,15,16
 584 680 584 680 659.5 607.5 c 128,-1,17
 735 535 735 535 735 382 c 0,18,19
 735 197 735 197 626.5 88.5 c 128,-1,20
 518 -20 518 -20 329 -20 c 0,21,22
 187 -20 187 -20 111.5 52.5 c 128,-1,23
 36 125 36 125 36 278 c 0,24,25
 36 463 36 463 144.5 571.5 c 128,-1,26
 253 680 253 680 442 680 c 0,15,16
704 862 m 1,27,28
 725 850 725 850 737.5 832 c 128,-1,29
 750 814 750 814 750 795 c 0,30,31
 750 755 750 755 723.5 733.5 c 128,-1,32
 697 712 697 712 638 705 c 2,33,-1
 535 692 l 1,34,-1
 502 747 l 1,35,-1
 704 862 l 1,27,28
455 862 m 1,36,37
 477 850 477 850 490.5 832 c 128,-1,38
 504 814 504 814 504 794 c 0,39,40
 504 753 504 753 477.5 732 c 128,-1,41
 451 711 451 711 392 705 c 1,42,-1
 287 692 l 1,43,-1
 256 747 l 1,44,-1
 455 862 l 1,36,37
EndSplineSet
Validated: 8388609
Position2: "'cpsp' Capital Spacing lookup 3 subtable" dx=5 dy=0 dh=10 dv=0
EndChar

StartChar: Omacron
Encoding: 332 332 94
Width: 738
Flags: MW
HStem: -20 71<326 367 326 455> 610 70<404 447> 742 96<365 542 297 618>
VStem: 36 263<112 400> 36 699<259 400> 472 263<259 548>
LayerCount: 2
UndoRedoHistory
Layer: 0
Undoes
EndUndoes
Redoes
EndRedoes
EndUndoRedoHistory
UndoRedoHistory
Layer: 1
Undoes
EndUndoes
Redoes
EndRedoes
EndUndoRedoHistory
Fore
SplineSet
429 610 m 0,0,1
 389 610 389 610 359 531.5 c 128,-1,2
 329 453 329 453 308 268 c 0,3,4
 299 185 299 185 299 136 c 0,5,6
 299 95 299 95 308.5 73 c 128,-1,7
 318 51 318 51 345 51 c 0,8,9
 424 51 424 51 463 393 c 0,10,11
 472 476 472 476 472 525 c 0,12,13
 472 566 472 566 463 588 c 128,-1,14
 454 610 454 610 429 610 c 0,0,1
442 680 m 0,15,16
 584 680 584 680 659.5 607.5 c 128,-1,17
 735 535 735 535 735 382 c 0,18,19
 735 197 735 197 626.5 88.5 c 128,-1,20
 518 -20 518 -20 329 -20 c 0,21,22
 187 -20 187 -20 111.5 52.5 c 128,-1,23
 36 125 36 125 36 278 c 0,24,25
 36 463 36 463 144.5 571.5 c 128,-1,26
 253 680 253 680 442 680 c 0,15,16
618 838 m 1,27,28
 622 822 622 822 622 808 c 0,29,30
 622 779 622 779 601.5 760.5 c 128,-1,31
 581 742 581 742 542 742 c 2,32,-1
 297 742 l 1,33,34
 294 751 294 751 294 770 c 0,35,36
 294 800 294 800 314.5 819 c 128,-1,37
 335 838 335 838 365 838 c 2,38,-1
 618 838 l 1,27,28
EndSplineSet
Validated: 8388609
Position2: "'cpsp' Capital Spacing lookup 3 subtable" dx=5 dy=0 dh=10 dv=0
EndChar

StartChar: Oogonek
Encoding: 490 490 95
Width: 738
Flags: MW
HStem: -258 99<447 458> -20 71<326 329> 610 70<404 447>
VStem: 36 263<112 400> 287 132<-131 -124> 472 263<291 548>
LayerCount: 2
UndoRedoHistory
Layer: 0
Undoes
EndUndoes
Redoes
EndRedoes
EndUndoRedoHistory
UndoRedoHistory
Layer: 1
Undoes
EndUndoes
Redoes
EndRedoes
EndUndoRedoHistory
Fore
SplineSet
299 136 m 0,0,1
 299 95 299 95 308.5 73 c 128,-1,2
 318 51 318 51 345 51 c 0,3,4
 424 51 424 51 463 393 c 0,5,6
 472 476 472 476 472 525 c 0,7,8
 472 566 472 566 463 588 c 128,-1,9
 454 610 454 610 429 610 c 0,10,11
 389 610 389 610 359 531.5 c 128,-1,12
 329 453 329 453 308 268 c 0,13,14
 299 184 299 184 299 136 c 0,0,1
505 10 m 1,15,16
 466 -17 466 -17 442.5 -50 c 128,-1,17
 419 -83 419 -83 419 -115 c 0,18,19
 419 -138 419 -138 429.5 -148.5 c 128,-1,20
 440 -159 440 -159 461 -159 c 0,21,22
 500 -159 500 -159 521 -134 c 1,23,24
 540 -161 540 -161 540 -194 c 0,25,26
 540 -221 540 -221 508 -239.5 c 128,-1,27
 476 -258 476 -258 415 -258 c 128,-1,28
 354 -258 354 -258 320.5 -231.5 c 128,-1,29
 287 -205 287 -205 287 -154 c 0,30,31
 287 -69 287 -69 360 -19 c 1,32,-1
 329 -20 l 1,33,34
 187 -20 187 -20 111.5 52.5 c 128,-1,35
 36 125 36 125 36 278 c 0,36,37
 36 463 36 463 144.5 571.5 c 128,-1,38
 253 680 253 680 442 680 c 0,39,40
 584 680 584 680 659.5 607.5 c 128,-1,41
 735 535 735 535 735 382 c 0,42,43
 735 246 735 246 675 149.5 c 128,-1,44
 615 53 615 53 505 10 c 1,15,16
EndSplineSet
Validated: 8388609
Position2: "'cpsp' Capital Spacing lookup 3 subtable" dx=5 dy=0 dh=10 dv=0
EndChar

StartChar: Oslash
Encoding: 216 216 96
Width: 738
Flags: MW
HStem: -20 71<321 379 321 455> 610 70<402 448>
VStem: 36 699<259 400>
LayerCount: 2
UndoRedoHistory
Layer: 0
Undoes
EndUndoes
Redoes
EndRedoes
EndUndoRedoHistory
UndoRedoHistory
Layer: 1
Undoes
EndUndoes
Redoes
EndRedoes
EndUndoRedoHistory
Fore
SplineSet
299 161 m 1,0,1
 299 129 l 2,2,3
 299 128 299 128 298 126 c 1,4,5
 298 111 298 111 301 99 c 1,6,7
 303 84 303 84 307.5 73.5 c 128,-1,8
 312 63 312 63 322 57 c 128,-1,9
 332 51 332 51 345 51 c 0,10,11
 399 51 399 51 434 212 c 0,12,13
 441 245 441 245 457 341 c 1,14,-1
 299 161 l 1,0,1
472 532 m 1,15,16
 471 546 471 546 470.5 554.5 c 128,-1,17
 470 563 470 563 467 575 c 128,-1,18
 464 587 464 587 460 593.5 c 128,-1,19
 456 600 456 600 448 605 c 128,-1,20
 440 610 440 610 429 610 c 0,21,22
 416 610 416 610 405.5 605 c 128,-1,23
 395 600 395 600 385.5 586 c 128,-1,24
 376 572 376 572 369 555 c 128,-1,25
 362 538 362 538 354 507 c 128,-1,26
 346 476 346 476 339 443.5 c 128,-1,27
 332 411 332 411 322 360 c 1,28,-1
 472 532 l 1,15,16
678 591 m 1,29,30
 735 516 735 516 735 382 c 0,31,32
 735 197 735 197 626.5 88.5 c 128,-1,33
 518 -20 518 -20 329 -20 c 0,34,35
 232 -20 232 -20 167 11 c 1,36,37
 133 -29 133 -29 117 -60 c 1,38,39
 89 -60 89 -60 70.5 -41.5 c 128,-1,40
 52 -23 52 -23 52 9 c 0,41,42
 52 51 52 51 79 81 c 1,43,-1
 82 85 l 1,44,45
 36 157 36 157 36 278 c 0,46,47
 36 463 36 463 144.5 571.5 c 128,-1,48
 253 680 253 680 442 680 c 0,49,50
 525 680 525 680 581 659 c 1,51,52
 614 694 614 694 632 725 c 1,53,54
 658 725 658 725 677.5 701 c 128,-1,55
 697 677 697 677 697 648 c 0,56,57
 697 610 697 610 667 580 c 2,58,-1
 678 591 l 1,29,30
EndSplineSet
Validated: 1
Position2: "'cpsp' Capital Spacing lookup 3 subtable" dx=5 dy=0 dh=10 dv=0
EndChar

StartChar: Oslashacute
Encoding: 510 510 97
Width: 738
Flags: MW
HStem: -20 71<321 379 321 455> 610 70<402 448>
VStem: 36 699<259 400>
LayerCount: 2
UndoRedoHistory
Layer: 0
Undoes
EndUndoes
Redoes
EndRedoes
EndUndoRedoHistory
UndoRedoHistory
Layer: 1
Undoes
EndUndoes
Redoes
EndRedoes
EndUndoRedoHistory
Fore
SplineSet
299 161 m 1,0,1
 299 129 l 2,2,3
 299 128 299 128 298 126 c 1,4,5
 298 111 298 111 301 99 c 1,6,7
 303 84 303 84 307.5 73.5 c 128,-1,8
 312 63 312 63 322 57 c 128,-1,9
 332 51 332 51 345 51 c 0,10,11
 399 51 399 51 434 212 c 0,12,13
 441 245 441 245 457 341 c 1,14,-1
 299 161 l 1,0,1
472 532 m 1,15,16
 471 546 471 546 470.5 554.5 c 128,-1,17
 470 563 470 563 467 575 c 128,-1,18
 464 587 464 587 460 593.5 c 128,-1,19
 456 600 456 600 448 605 c 128,-1,20
 440 610 440 610 429 610 c 0,21,22
 416 610 416 610 405.5 605 c 128,-1,23
 395 600 395 600 385.5 586 c 128,-1,24
 376 572 376 572 369 555 c 128,-1,25
 362 538 362 538 354 507 c 128,-1,26
 346 476 346 476 339 443.5 c 128,-1,27
 332 411 332 411 322 360 c 1,28,-1
 472 532 l 1,15,16
678 591 m 1,29,30
 735 516 735 516 735 382 c 0,31,32
 735 197 735 197 626.5 88.5 c 128,-1,33
 518 -20 518 -20 329 -20 c 0,34,35
 232 -20 232 -20 167 11 c 1,36,37
 133 -29 133 -29 117 -60 c 1,38,39
 89 -60 89 -60 70.5 -41.5 c 128,-1,40
 52 -23 52 -23 52 9 c 0,41,42
 52 51 52 51 79 81 c 1,43,-1
 82 85 l 1,44,45
 36 157 36 157 36 278 c 0,46,47
 36 463 36 463 144.5 571.5 c 128,-1,48
 253 680 253 680 442 680 c 0,49,50
 525 680 525 680 581 659 c 1,51,52
 614 694 614 694 632 725 c 1,53,54
 658 725 658 725 677.5 701 c 128,-1,55
 697 677 697 677 697 648 c 0,56,57
 697 610 697 610 667 580 c 2,58,-1
 678 591 l 1,29,30
337 760 m 1,59,-1
 587 869 l 1,60,61
 603 856 603 856 610.5 843 c 128,-1,62
 618 830 618 830 618 810 c 0,63,64
 618 761 618 761 577 737 c 128,-1,65
 536 713 536 713 471 712 c 2,66,-1
 351 709 l 1,67,-1
 337 760 l 1,59,-1
EndSplineSet
Validated: 1
Position2: "'cpsp' Capital Spacing lookup 3 subtable" dx=5 dy=0 dh=10 dv=0
EndChar

StartChar: Otilde
Encoding: 213 213 98
Width: 738
Flags: MW
HStem: -20 71<326 367 326 455> 610 70<404 447> 721 119<562 598 562 598> 740 117<327 361>
VStem: 36 263<112 400> 36 699<259 400> 472 263<259 548>
LayerCount: 2
UndoRedoHistory
Layer: 0
Undoes
EndUndoes
Redoes
EndRedoes
EndUndoRedoHistory
UndoRedoHistory
Layer: 1
Undoes
EndUndoes
Redoes
EndRedoes
EndUndoRedoHistory
Fore
SplineSet
429 610 m 0,0,1
 389 610 389 610 359 531.5 c 128,-1,2
 329 453 329 453 308 268 c 0,3,4
 299 185 299 185 299 136 c 0,5,6
 299 95 299 95 308.5 73 c 128,-1,7
 318 51 318 51 345 51 c 0,8,9
 424 51 424 51 463 393 c 0,10,11
 472 476 472 476 472 525 c 0,12,13
 472 566 472 566 463 588 c 128,-1,14
 454 610 454 610 429 610 c 0,0,1
442 680 m 0,15,16
 584 680 584 680 659.5 607.5 c 128,-1,17
 735 535 735 535 735 382 c 0,18,19
 735 197 735 197 626.5 88.5 c 128,-1,20
 518 -20 518 -20 329 -20 c 0,21,22
 187 -20 187 -20 111.5 52.5 c 128,-1,23
 36 125 36 125 36 278 c 0,24,25
 36 463 36 463 144.5 571.5 c 128,-1,26
 253 680 253 680 442 680 c 0,15,16
650 857 m 1,27,28
 671 832 671 832 671 801 c 0,29,30
 671 762 671 762 643 741.5 c 128,-1,31
 615 721 615 721 565 721 c 0,32,33
 537 721 537 721 448 730.5 c 128,-1,34
 359 740 359 740 341 740 c 0,35,36
 321 740 321 740 300 734.5 c 128,-1,37
 279 729 279 729 269 722 c 1,38,39
 247 751 247 751 247 784 c 0,40,41
 247 819 247 819 275 838 c 128,-1,42
 303 857 303 857 355 857 c 0,43,44
 387 857 387 857 475 848.5 c 128,-1,45
 563 840 563 840 585 840 c 0,46,47
 631 840 631 840 650 857 c 1,27,28
EndSplineSet
Validated: 8388609
Position2: "'cpsp' Capital Spacing lookup 3 subtable" dx=5 dy=0 dh=10 dv=0
EndChar

StartChar: OE
Encoding: 338 338 99
Width: 919
Flags: MW
HStem: -20 71<325 360> -20 171<724 736> 265 127<768 815> 520 140<816 868> 547 113<722 722> 610 70<403 446>
VStem: 36 262<112 394> 36 923<174 660>
LayerCount: 2
UndoRedoHistory
Layer: 0
Undoes
EndUndoes
Redoes
EndRedoes
EndUndoRedoHistory
UndoRedoHistory
Layer: 1
Undoes
EndUndoes
Redoes
EndRedoes
EndUndoRedoHistory
Fore
SplineSet
344 51 m 0,0,1
 423 51 423 51 462 393 c 0,2,3
 471 476 471 476 471 525 c 0,4,5
 471 566 471 566 462 588 c 128,-1,6
 453 610 453 610 428 610 c 0,7,8
 388 610 388 610 358 531.5 c 128,-1,9
 328 453 328 453 307 268 c 0,10,11
 298 185 298 185 298 136 c 0,12,13
 298 95 298 95 307.5 73 c 128,-1,14
 317 51 317 51 344 51 c 0,0,1
887 392 m 1,15,16
 887 332 887 332 859.5 298.5 c 128,-1,17
 832 265 832 265 781 265 c 0,18,19
 759 265 759 265 731 271.5 c 128,-1,20
 703 278 703 278 681 290 c 1,21,22
 677 286 677 286 673 264 c 128,-1,23
 669 242 669 242 669 219 c 0,24,25
 669 179 669 179 688 165 c 128,-1,26
 707 151 707 151 755 151 c 0,27,28
 822 151 822 151 867 168 c 1,29,30
 877 141 877 141 877 109 c 0,31,32
 877 -20 877 -20 690 -20 c 0,33,34
 628 -20 628 -20 590.5 -5 c 128,-1,35
 553 10 553 10 528 44 c 1,36,37
 466 -20 466 -20 325 -20 c 0,38,39
 186 -20 186 -20 111 53 c 128,-1,40
 36 126 36 126 36 277 c 0,41,42
 36 365 36 365 63 439 c 128,-1,43
 90 513 90 513 140.5 566.5 c 128,-1,44
 191 620 191 620 267 650 c 128,-1,45
 343 680 343 680 437 680 c 0,46,47
 512 680 512 680 570 660 c 1,48,-1
 959 660 l 1,49,50
 959 588 959 588 924 554 c 128,-1,51
 889 520 889 520 832 520 c 0,52,53
 777 520 777 520 722 547 c 1,54,-1
 696 392 l 1,55,-1
 887 392 l 1,15,16
EndSplineSet
Validated: 8388609
Position2: "'cpsp' Capital Spacing lookup 3 subtable" dx=5 dy=0 dh=10 dv=0
EndChar

StartChar: P
Encoding: 80 80 100
Width: 690
Flags: MW
HStem: 599 66<391 426>
VStem: 494 227<467 539>
LayerCount: 2
UndoRedoHistory
Layer: 0
Undoes
EndUndoes
Redoes
EndRedoes
EndUndoRedoHistory
UndoRedoHistory
Layer: 1
Undoes
EndUndoes
Redoes
EndRedoes
EndUndoRedoHistory
Fore
SplineSet
-9 0 m 1,0,-1
 116 660 l 1,1,2
 155 661 155 661 185.5 662.5 c 128,-1,3
 216 664 216 664 238.5 664.5 c 128,-1,4
 261 665 261 665 308 665 c 0,5,6
 363 665 363 665 396 664.5 c 128,-1,7
 429 664 429 664 472 662.5 c 128,-1,8
 515 661 515 661 539.5 657.5 c 128,-1,9
 564 654 564 654 594.5 648 c 128,-1,10
 625 642 625 642 641.5 632.5 c 128,-1,11
 658 623 658 623 675.5 609.5 c 128,-1,12
 693 596 693 596 701.5 578.5 c 128,-1,13
 710 561 710 561 715.5 538 c 128,-1,14
 721 515 721 515 721 486 c 0,15,16
 721 433 721 433 701 390.5 c 128,-1,17
 681 348 681 348 646.5 321.5 c 128,-1,18
 612 295 612 295 567.5 281.5 c 128,-1,19
 523 268 523 268 472 268 c 0,20,21
 364 268 364 268 337 330 c 1,22,23
 362 331 362 331 377 337 c 1,24,25
 433 351 433 351 463.5 398.5 c 128,-1,26
 494 446 494 446 494 502 c 0,27,28
 494 555 494 555 469 577 c 128,-1,29
 444 599 444 599 396 599 c 0,30,31
 372 599 372 599 370 597 c 1,32,-1
 257 0 l 1,33,-1
 -9 0 l 1,0,-1
EndSplineSet
Validated: 1
Position2: "'cpsp' Capital Spacing lookup 3 subtable" dx=5 dy=0 dh=10 dv=0
EndChar

StartChar: Thorn
Encoding: 222 222 101
Width: 676
Flags: MW
HStem: 474 64<377 408> 474 186<374 385 116 408>
VStem: 470 227<332 413>
LayerCount: 2
UndoRedoHistory
Layer: 0
Undoes
EndUndoes
Redoes
EndRedoes
EndUndoRedoHistory
UndoRedoHistory
Layer: 1
Undoes
EndUndoes
Redoes
EndRedoes
EndUndoRedoHistory
Fore
SplineSet
361 537 m 1,0,1
 365 538 365 538 381 538 c 0,2,3
 420 538 420 538 451 536.5 c 128,-1,4
 482 535 482 535 516 530 c 128,-1,5
 550 525 550 525 575.5 517 c 128,-1,6
 601 509 601 509 624.5 495 c 128,-1,7
 648 481 648 481 663.5 462 c 128,-1,8
 679 443 679 443 688 415.5 c 128,-1,9
 697 388 697 388 697 354 c 0,10,11
 697 287 697 287 663.5 238 c 128,-1,12
 630 189 630 189 574 164.5 c 128,-1,13
 518 140 518 140 447 140 c 0,14,15
 340 140 340 140 313 202 c 1,16,17
 315 202 315 202 320 203 c 128,-1,18
 325 204 325 204 330 204.5 c 128,-1,19
 335 205 335 205 338 206 c 0,20,21
 397 218 397 218 433.5 264.5 c 128,-1,22
 470 311 470 311 470 378 c 0,23,24
 470 429 470 429 447 451.5 c 128,-1,25
 424 474 424 474 377 474 c 0,26,27
 355 474 355 474 349 473 c 1,28,-1
 257 0 l 1,29,-1
 -11 0 l 1,30,-1
 116 660 l 1,31,-1
 385 660 l 1,32,-1
 361 537 l 1,0,1
EndSplineSet
Validated: 8388609
Position2: "'cpsp' Capital Spacing lookup 3 subtable" dx=5 dy=0 dh=10 dv=0
EndChar

StartChar: Q
Encoding: 81 81 102
Width: 734
Flags: MW
HStem: -202 169<464 514 464 528> 78 81 610 70<404 442>
VStem: 39 261<229 255 227 425> 474 263<279 552>
LayerCount: 2
UndoRedoHistory
Layer: 0
Undoes
EndUndoes
Redoes
EndRedoes
EndUndoRedoHistory
UndoRedoHistory
Layer: 1
Undoes
EndUndoes
Redoes
EndRedoes
EndUndoRedoHistory
Fore
SplineSet
448 680 m 0,0,1
 587 680 587 680 662 607 c 128,-1,2
 737 534 737 534 737 385 c 0,3,4
 737 281 737 281 688.5 192 c 128,-1,5
 640 103 640 103 555.5 49 c 128,-1,6
 471 -5 471 -5 367 -10 c 1,7,8
 420 -33 420 -33 487 -33 c 0,9,10
 569 -33 569 -33 628 2 c 1,11,12
 639 -23 639 -23 639 -63 c 0,13,14
 639 -101 639 -101 626 -129 c 128,-1,15
 613 -157 613 -157 591 -172.5 c 128,-1,16
 569 -188 569 -188 545.5 -195 c 128,-1,17
 522 -202 522 -202 497 -202 c 0,18,19
 464 -202 464 -202 427.5 -189.5 c 128,-1,20
 391 -177 391 -177 362.5 -162.5 c 128,-1,21
 334 -148 334 -148 296 -135.5 c 128,-1,22
 258 -123 258 -123 223 -123 c 0,23,24
 164 -123 164 -123 121 -154 c 1,25,26
 89 -112 89 -112 89 -65 c 0,27,28
 89 -50 89 -50 91.5 -38.5 c 128,-1,29
 94 -27 94 -27 98 -17.5 c 128,-1,30
 102 -8 102 -8 110 -0.5 c 128,-1,31
 118 7 118 7 125 12.5 c 128,-1,32
 132 18 132 18 146.5 22.5 c 128,-1,33
 161 27 161 27 172 30 c 128,-1,34
 183 33 183 33 203.5 36 c 128,-1,35
 224 39 224 39 238 41 c 128,-1,36
 252 43 252 43 279 46 c 0,37,38
 303 49 303 49 323.5 59 c 128,-1,39
 344 69 344 69 366.5 93 c 128,-1,40
 389 117 389 117 406.5 154.5 c 128,-1,41
 424 192 424 192 440 252.5 c 128,-1,42
 456 313 456 313 466 392 c 1,43,44
 474 471 474 471 474 512 c 0,45,46
 474 568 474 568 462.5 589 c 128,-1,47
 451 610 451 610 429 610 c 0,48,49
 411 610 411 610 394 591.5 c 128,-1,50
 377 573 377 573 363.5 541 c 128,-1,51
 350 509 350 509 339 473 c 128,-1,52
 328 437 328 437 320 396 c 0,53,54
 300 299 300 299 300 241 c 0,55,56
 300 160 300 160 348 159 c 1,57,58
 348 122 348 122 313 100 c 128,-1,59
 278 78 278 78 219 78 c 0,60,61
 39 78 39 78 39 299 c 0,62,63
 39 391 39 391 71 464.5 c 128,-1,64
 103 538 103 538 158.5 584.5 c 128,-1,65
 214 631 214 631 288 655.5 c 128,-1,66
 362 680 362 680 448 680 c 0,0,1
EndSplineSet
Validated: 1
Position2: "'cpsp' Capital Spacing lookup 3 subtable" dx=5 dy=0 dh=10 dv=0
EndChar

StartChar: R
Encoding: 82 82 103
Width: 687
Flags: MW
HStem: 600 63<371 397 371 371>
VStem: 473 228<450 533>
LayerCount: 2
UndoRedoHistory
Layer: 0
Undoes
EndUndoes
Redoes
EndRedoes
EndUndoRedoHistory
UndoRedoHistory
Layer: 1
Undoes
EndUndoes
Redoes
EndRedoes
EndUndoRedoHistory
Fore
SplineSet
116 660 m 1,0,1
 167 660 167 660 251 661.5 c 128,-1,2
 335 663 335 663 376 663 c 0,3,4
 410 663 410 663 435 662.5 c 128,-1,5
 460 662 460 662 490 660 c 128,-1,6
 520 658 520 658 541 654 c 128,-1,7
 562 650 562 650 585.5 644 c 128,-1,8
 609 638 609 638 625.5 629 c 128,-1,9
 642 620 642 620 657 607 c 128,-1,10
 672 594 672 594 681 578 c 128,-1,11
 690 562 690 562 695.5 540.5 c 128,-1,12
 701 519 701 519 701 492 c 0,13,14
 701 415 701 415 658 365.5 c 128,-1,15
 615 316 615 316 542 298 c 1,16,17
 563 211 563 211 597.5 151 c 128,-1,18
 632 91 632 91 679 71 c 1,19,20
 646 -20 646 -20 541 -20 c 0,21,22
 514 -20 514 -20 490.5 -13.5 c 128,-1,23
 467 -7 467 -7 449 4 c 128,-1,24
 431 15 431 15 416 33.5 c 128,-1,25
 401 52 401 52 390 70.5 c 128,-1,26
 379 89 379 89 370 116.5 c 128,-1,27
 361 144 361 144 355.5 167.5 c 128,-1,28
 350 191 350 191 344.5 225 c 128,-1,29
 339 259 339 259 336 285 c 128,-1,30
 333 311 333 311 329 348 c 1,31,-1
 327 349 l 1,32,33
 396 349 396 349 434.5 387 c 128,-1,34
 473 425 473 425 473 502 c 0,35,36
 473 550 473 550 455.5 575 c 128,-1,37
 438 600 438 600 397 600 c 2,38,-1
 371 600 l 1,39,-1
 257 0 l 1,40,-1
 -5 0 l 1,41,-1
 116 660 l 1,0,1
EndSplineSet
Validated: 1
Position2: "'cpsp' Capital Spacing lookup 3 subtable" dx=5 dy=0 dh=10 dv=0
EndChar

StartChar: Racute
Encoding: 340 340 104
Width: 687
Flags: MW
HStem: 600 63<371 397 371 371>
VStem: 473 228<450 533>
LayerCount: 2
UndoRedoHistory
Layer: 0
Undoes
EndUndoes
Redoes
EndRedoes
EndUndoRedoHistory
UndoRedoHistory
Layer: 1
Undoes
EndUndoes
Redoes
EndRedoes
EndUndoRedoHistory
Fore
SplineSet
116 660 m 1,0,1
 167 660 167 660 251 661.5 c 128,-1,2
 335 663 335 663 376 663 c 0,3,4
 410 663 410 663 435 662.5 c 128,-1,5
 460 662 460 662 490 660 c 128,-1,6
 520 658 520 658 541 654 c 128,-1,7
 562 650 562 650 585.5 644 c 128,-1,8
 609 638 609 638 625.5 629 c 128,-1,9
 642 620 642 620 657 607 c 128,-1,10
 672 594 672 594 681 578 c 128,-1,11
 690 562 690 562 695.5 540.5 c 128,-1,12
 701 519 701 519 701 492 c 0,13,14
 701 415 701 415 658 365.5 c 128,-1,15
 615 316 615 316 542 298 c 1,16,17
 563 211 563 211 597.5 151 c 128,-1,18
 632 91 632 91 679 71 c 1,19,20
 646 -20 646 -20 541 -20 c 0,21,22
 514 -20 514 -20 490.5 -13.5 c 128,-1,23
 467 -7 467 -7 449 4 c 128,-1,24
 431 15 431 15 416 33.5 c 128,-1,25
 401 52 401 52 390 70.5 c 128,-1,26
 379 89 379 89 370 116.5 c 128,-1,27
 361 144 361 144 355.5 167.5 c 128,-1,28
 350 191 350 191 344.5 225 c 128,-1,29
 339 259 339 259 336 285 c 128,-1,30
 333 311 333 311 329 348 c 1,31,-1
 327 349 l 1,32,33
 396 349 396 349 434.5 387 c 128,-1,34
 473 425 473 425 473 502 c 0,35,36
 473 550 473 550 455.5 575 c 128,-1,37
 438 600 438 600 397 600 c 2,38,-1
 371 600 l 1,39,-1
 257 0 l 1,40,-1
 -5 0 l 1,41,-1
 116 660 l 1,0,1
320 760 m 1,42,-1
 570 869 l 1,43,44
 586 856 586 856 593.5 843 c 128,-1,45
 601 830 601 830 601 810 c 0,46,47
 601 761 601 761 560 737 c 128,-1,48
 519 713 519 713 454 712 c 2,49,-1
 334 709 l 1,50,-1
 320 760 l 1,42,-1
EndSplineSet
Validated: 1
Position2: "'cpsp' Capital Spacing lookup 3 subtable" dx=5 dy=0 dh=10 dv=0
EndChar

StartChar: Rcaron
Encoding: 344 344 105
Width: 687
Flags: MW
HStem: 600 63<371 397 371 371>
VStem: 473 228<450 533>
LayerCount: 2
UndoRedoHistory
Layer: 0
Undoes
EndUndoes
Redoes
EndRedoes
EndUndoRedoHistory
UndoRedoHistory
Layer: 1
Undoes
EndUndoes
Redoes
EndRedoes
EndUndoRedoHistory
Fore
SplineSet
116 660 m 1,0,1
 167 660 167 660 251 661.5 c 128,-1,2
 335 663 335 663 376 663 c 0,3,4
 410 663 410 663 435 662.5 c 128,-1,5
 460 662 460 662 490 660 c 128,-1,6
 520 658 520 658 541 654 c 128,-1,7
 562 650 562 650 585.5 644 c 128,-1,8
 609 638 609 638 625.5 629 c 128,-1,9
 642 620 642 620 657 607 c 128,-1,10
 672 594 672 594 681 578 c 128,-1,11
 690 562 690 562 695.5 540.5 c 128,-1,12
 701 519 701 519 701 492 c 0,13,14
 701 415 701 415 658 365.5 c 128,-1,15
 615 316 615 316 542 298 c 1,16,17
 563 211 563 211 597.5 151 c 128,-1,18
 632 91 632 91 679 71 c 1,19,20
 646 -20 646 -20 541 -20 c 0,21,22
 514 -20 514 -20 490.5 -13.5 c 128,-1,23
 467 -7 467 -7 449 4 c 128,-1,24
 431 15 431 15 416 33.5 c 128,-1,25
 401 52 401 52 390 70.5 c 128,-1,26
 379 89 379 89 370 116.5 c 128,-1,27
 361 144 361 144 355.5 167.5 c 128,-1,28
 350 191 350 191 344.5 225 c 128,-1,29
 339 259 339 259 336 285 c 128,-1,30
 333 311 333 311 329 348 c 1,31,-1
 327 349 l 1,32,33
 396 349 396 349 434.5 387 c 128,-1,34
 473 425 473 425 473 502 c 0,35,36
 473 550 473 550 455.5 575 c 128,-1,37
 438 600 438 600 397 600 c 2,38,-1
 371 600 l 1,39,-1
 257 0 l 1,40,-1
 -5 0 l 1,41,-1
 116 660 l 1,0,1
301 870 m 1,42,-1
 434 813 l 1,43,-1
 601 870 l 1,44,-1
 634 825 l 1,45,-1
 474 695 l 1,46,-1
 369 695 l 1,47,-1
 246 825 l 1,48,-1
 301 870 l 1,42,-1
EndSplineSet
Validated: 1
Position2: "'cpsp' Capital Spacing lookup 3 subtable" dx=5 dy=0 dh=10 dv=0
EndChar

StartChar: Rcommaaccent
Encoding: 342 342 106
Width: 687
Flags: MW
HStem: 600 63<371 397 371 371>
VStem: 230 159<-157 -114> 473 228<450 533>
LayerCount: 2
UndoRedoHistory
Layer: 0
Undoes
EndUndoes
Redoes
EndRedoes
EndUndoRedoHistory
UndoRedoHistory
Layer: 1
Undoes
EndUndoes
Redoes
EndRedoes
EndUndoRedoHistory
Fore
SplineSet
389 -114 m 0,0,1
 389 -151 389 -151 369.5 -182 c 128,-1,2
 350 -213 350 -213 320.5 -231.5 c 128,-1,3
 291 -250 291 -250 260 -259.5 c 128,-1,4
 229 -269 229 -269 203 -269 c 0,5,6
 187 -269 187 -269 166 -262 c 1,7,8
 204 -224 204 -224 217 -197 c 128,-1,9
 230 -170 230 -170 230 -124 c 0,10,11
 230 -110 230 -110 226.5 -93 c 128,-1,12
 223 -76 223 -76 219 -68 c 1,13,14
 268 -52 268 -52 300 -52 c 0,15,16
 389 -52 389 -52 389 -114 c 0,0,1
116 660 m 1,17,18
 167 660 167 660 251 661.5 c 128,-1,19
 335 663 335 663 376 663 c 0,20,21
 410 663 410 663 435 662.5 c 128,-1,22
 460 662 460 662 490 660 c 128,-1,23
 520 658 520 658 541 654 c 128,-1,24
 562 650 562 650 585.5 644 c 128,-1,25
 609 638 609 638 625.5 629 c 128,-1,26
 642 620 642 620 657 607 c 128,-1,27
 672 594 672 594 681 578 c 128,-1,28
 690 562 690 562 695.5 540.5 c 128,-1,29
 701 519 701 519 701 492 c 0,30,31
 701 415 701 415 658 365.5 c 128,-1,32
 615 316 615 316 542 298 c 1,33,34
 563 211 563 211 597.5 151 c 128,-1,35
 632 91 632 91 679 71 c 1,36,37
 646 -20 646 -20 541 -20 c 0,38,39
 514 -20 514 -20 490.5 -13.5 c 128,-1,40
 467 -7 467 -7 449 4 c 128,-1,41
 431 15 431 15 416 33.5 c 128,-1,42
 401 52 401 52 390 70.5 c 128,-1,43
 379 89 379 89 370 116.5 c 128,-1,44
 361 144 361 144 355.5 167.5 c 128,-1,45
 350 191 350 191 344.5 225 c 128,-1,46
 339 259 339 259 336 285 c 128,-1,47
 333 311 333 311 329 348 c 1,48,-1
 327 349 l 1,49,50
 396 349 396 349 434.5 387 c 128,-1,51
 473 425 473 425 473 502 c 0,52,53
 473 550 473 550 455.5 575 c 128,-1,54
 438 600 438 600 397 600 c 2,55,-1
 371 600 l 1,56,-1
 257 0 l 1,57,-1
 -5 0 l 1,58,-1
 116 660 l 1,17,18
EndSplineSet
Validated: 1
Position2: "'cpsp' Capital Spacing lookup 3 subtable" dx=5 dy=0 dh=10 dv=0
EndChar

StartChar: Rdotbelow
Encoding: 7770 7770 107
Width: 687
Flags: MW
HStem: -201 169<292 356> 600 63<371 397 371 371>
VStem: 204 237<-145 -92> 473 228<450 533>
LayerCount: 2
UndoRedoHistory
Layer: 0
Undoes
EndUndoes
Redoes
EndRedoes
EndUndoRedoHistory
UndoRedoHistory
Layer: 1
Undoes
EndUndoes
Redoes
EndRedoes
EndUndoRedoHistory
Fore
SplineSet
326 -32 m 0,0,1
 377 -32 377 -32 409 -55.5 c 128,-1,2
 441 -79 441 -79 441 -117 c 0,3,4
 441 -157 441 -157 408 -179 c 128,-1,5
 375 -201 375 -201 322 -201 c 128,-1,6
 269 -201 269 -201 236.5 -179.5 c 128,-1,7
 204 -158 204 -158 204 -119 c 0,8,9
 204 -79 204 -79 239 -55.5 c 128,-1,10
 274 -32 274 -32 326 -32 c 0,0,1
116 660 m 1,11,12
 167 660 167 660 251 661.5 c 128,-1,13
 335 663 335 663 376 663 c 0,14,15
 410 663 410 663 435 662.5 c 128,-1,16
 460 662 460 662 490 660 c 128,-1,17
 520 658 520 658 541 654 c 128,-1,18
 562 650 562 650 585.5 644 c 128,-1,19
 609 638 609 638 625.5 629 c 128,-1,20
 642 620 642 620 657 607 c 128,-1,21
 672 594 672 594 681 578 c 128,-1,22
 690 562 690 562 695.5 540.5 c 128,-1,23
 701 519 701 519 701 492 c 0,24,25
 701 415 701 415 658 365.5 c 128,-1,26
 615 316 615 316 542 298 c 1,27,28
 563 211 563 211 597.5 151 c 128,-1,29
 632 91 632 91 679 71 c 1,30,31
 646 -20 646 -20 541 -20 c 0,32,33
 514 -20 514 -20 490.5 -13.5 c 128,-1,34
 467 -7 467 -7 449 4 c 128,-1,35
 431 15 431 15 416 33.5 c 128,-1,36
 401 52 401 52 390 70.5 c 128,-1,37
 379 89 379 89 370 116.5 c 128,-1,38
 361 144 361 144 355.5 167.5 c 128,-1,39
 350 191 350 191 344.5 225 c 128,-1,40
 339 259 339 259 336 285 c 128,-1,41
 333 311 333 311 329 348 c 1,42,-1
 327 349 l 1,43,44
 396 349 396 349 434.5 387 c 128,-1,45
 473 425 473 425 473 502 c 0,46,47
 473 550 473 550 455.5 575 c 128,-1,48
 438 600 438 600 397 600 c 2,49,-1
 371 600 l 1,50,-1
 257 0 l 1,51,-1
 -5 0 l 1,52,-1
 116 660 l 1,11,12
EndSplineSet
Validated: 1
Position2: "'cpsp' Capital Spacing lookup 3 subtable" dx=5 dy=0 dh=10 dv=0
EndChar

StartChar: S
Encoding: 83 83 108
Width: 592
Flags: MW
HStem: -19 65<221 265 221 290> 618 62<360 405>
VStem: -8 194<104 137> 52 240<484 500> 322 247<143 156> 447 184<521 551>
LayerCount: 2
UndoRedoHistory
Layer: 0
Undoes
EndUndoes
Redoes
EndRedoes
EndUndoRedoHistory
UndoRedoHistory
Layer: 1
Undoes
EndUndoes
Redoes
EndRedoes
EndUndoRedoHistory
Fore
SplineSet
417 680 m 0,0,1
 447 680 447 680 473 677.5 c 128,-1,2
 499 675 499 675 529.5 667.5 c 128,-1,3
 560 660 560 660 581.5 647 c 128,-1,4
 603 634 603 634 617 611.5 c 128,-1,5
 631 589 631 589 631 559 c 0,6,7
 631 505 631 505 591 476.5 c 128,-1,8
 551 448 551 448 495 448 c 0,9,10
 468 448 468 448 432 457 c 1,11,12
 447 489 447 489 447 529 c 0,13,14
 447 567 447 567 430.5 592.5 c 128,-1,15
 414 618 414 618 381 618 c 0,16,17
 347 618 347 618 319.5 590 c 128,-1,18
 292 562 292 562 292 516 c 0,19,20
 292 497 292 497 301 482.5 c 128,-1,21
 310 468 310 468 328.5 455 c 128,-1,22
 347 442 347 442 363.5 433 c 128,-1,23
 380 424 380 424 409.5 410 c 128,-1,24
 439 396 439 396 456 387 c 0,25,26
 508 361 508 361 538.5 325 c 128,-1,27
 569 289 569 289 569 232 c 0,28,29
 569 180 569 180 548.5 137.5 c 128,-1,30
 528 95 528 95 493 66.5 c 128,-1,31
 458 38 458 38 409.5 18.5 c 128,-1,32
 361 -1 361 -1 306 -10 c 128,-1,33
 251 -19 251 -19 189 -19 c 0,34,35
 169 -19 169 -19 154 -18.5 c 128,-1,36
 139 -18 139 -18 117.5 -15 c 128,-1,37
 96 -12 96 -12 79.5 -7 c 128,-1,38
 63 -2 63 -2 46 7 c 128,-1,39
 29 16 29 16 18 29 c 128,-1,40
 7 42 7 42 -0.5 61 c 128,-1,41
 -8 80 -8 80 -8 104 c 0,42,43
 -8 157 -8 157 25.5 193 c 128,-1,44
 59 229 59 229 121 229 c 0,45,46
 163 229 163 229 203 216 c 1,47,48
 186 171 186 171 186 126 c 0,49,50
 186 90 186 90 199.5 68 c 128,-1,51
 213 46 213 46 242 46 c 0,52,53
 277 46 277 46 299.5 66.5 c 128,-1,54
 322 87 322 87 322 123 c 0,55,56
 322 142 322 142 313 158 c 128,-1,57
 304 174 304 174 284.5 189 c 128,-1,58
 265 204 265 204 249 213.5 c 128,-1,59
 233 223 233 223 204 238 c 128,-1,60
 175 253 175 253 161 261 c 0,61,62
 109 289 109 289 80.5 327 c 128,-1,63
 52 365 52 365 52 425 c 0,64,65
 52 499 52 499 99 557.5 c 128,-1,66
 146 616 146 616 229.5 648 c 128,-1,67
 313 680 313 680 417 680 c 0,0,1
EndSplineSet
Validated: 8388609
Position2: "'cpsp' Capital Spacing lookup 3 subtable" dx=5 dy=0 dh=10 dv=0
EndChar

StartChar: Sacute
Encoding: 346 346 109
Width: 592
Flags: MW
HStem: -19 65<221 265 221 290> 618 62<360 405>
VStem: -8 194<104 137> 52 240<484 500> 322 247<143 156> 447 184<521 551>
LayerCount: 2
UndoRedoHistory
Layer: 0
Undoes
EndUndoes
Redoes
EndRedoes
EndUndoRedoHistory
UndoRedoHistory
Layer: 1
Undoes
EndUndoes
Redoes
EndRedoes
EndUndoRedoHistory
Fore
SplineSet
417 680 m 0,0,1
 447 680 447 680 473 677.5 c 128,-1,2
 499 675 499 675 529.5 667.5 c 128,-1,3
 560 660 560 660 581.5 647 c 128,-1,4
 603 634 603 634 617 611.5 c 128,-1,5
 631 589 631 589 631 559 c 0,6,7
 631 505 631 505 591 476.5 c 128,-1,8
 551 448 551 448 495 448 c 0,9,10
 468 448 468 448 432 457 c 1,11,12
 447 489 447 489 447 529 c 0,13,14
 447 567 447 567 430.5 592.5 c 128,-1,15
 414 618 414 618 381 618 c 0,16,17
 347 618 347 618 319.5 590 c 128,-1,18
 292 562 292 562 292 516 c 0,19,20
 292 497 292 497 301 482.5 c 128,-1,21
 310 468 310 468 328.5 455 c 128,-1,22
 347 442 347 442 363.5 433 c 128,-1,23
 380 424 380 424 409.5 410 c 128,-1,24
 439 396 439 396 456 387 c 0,25,26
 508 361 508 361 538.5 325 c 128,-1,27
 569 289 569 289 569 232 c 0,28,29
 569 180 569 180 548.5 137.5 c 128,-1,30
 528 95 528 95 493 66.5 c 128,-1,31
 458 38 458 38 409.5 18.5 c 128,-1,32
 361 -1 361 -1 306 -10 c 128,-1,33
 251 -19 251 -19 189 -19 c 0,34,35
 169 -19 169 -19 154 -18.5 c 128,-1,36
 139 -18 139 -18 117.5 -15 c 128,-1,37
 96 -12 96 -12 79.5 -7 c 128,-1,38
 63 -2 63 -2 46 7 c 128,-1,39
 29 16 29 16 18 29 c 128,-1,40
 7 42 7 42 -0.5 61 c 128,-1,41
 -8 80 -8 80 -8 104 c 0,42,43
 -8 157 -8 157 25.5 193 c 128,-1,44
 59 229 59 229 121 229 c 0,45,46
 163 229 163 229 203 216 c 1,47,48
 186 171 186 171 186 126 c 0,49,50
 186 90 186 90 199.5 68 c 128,-1,51
 213 46 213 46 242 46 c 0,52,53
 277 46 277 46 299.5 66.5 c 128,-1,54
 322 87 322 87 322 123 c 0,55,56
 322 142 322 142 313 158 c 128,-1,57
 304 174 304 174 284.5 189 c 128,-1,58
 265 204 265 204 249 213.5 c 128,-1,59
 233 223 233 223 204 238 c 128,-1,60
 175 253 175 253 161 261 c 0,61,62
 109 289 109 289 80.5 327 c 128,-1,63
 52 365 52 365 52 425 c 0,64,65
 52 499 52 499 99 557.5 c 128,-1,66
 146 616 146 616 229.5 648 c 128,-1,67
 313 680 313 680 417 680 c 0,0,1
324 760 m 1,68,-1
 574 869 l 1,69,70
 590 856 590 856 597.5 843.5 c 128,-1,71
 605 831 605 831 605 810 c 0,72,73
 605 761 605 761 564 737 c 128,-1,74
 523 713 523 713 458 712 c 2,75,-1
 338 709 l 1,76,-1
 324 760 l 1,68,-1
EndSplineSet
Validated: 8388609
Substitution2: "'locl' Localized Forms in Latin lookup 13 subtable" Sacute.loclPLK
Substitution2: "'aalt' Access All Alternates lookup 0 subtable" Sacute.loclPLK
Position2: "'cpsp' Capital Spacing lookup 3 subtable" dx=5 dy=0 dh=10 dv=0
EndChar

StartChar: Scaron
Encoding: 352 352 110
Width: 592
Flags: MW
HStem: -19 65<221 265 221 290> 618 62<360 405>
VStem: -8 194<104 137> 52 240<484 500> 322 247<143 156> 447 184<521 551>
LayerCount: 2
UndoRedoHistory
Layer: 0
Undoes
EndUndoes
Redoes
EndRedoes
EndUndoRedoHistory
UndoRedoHistory
Layer: 1
Undoes
EndUndoes
Redoes
EndRedoes
EndUndoRedoHistory
Fore
SplineSet
417 680 m 0,0,1
 447 680 447 680 473 677.5 c 128,-1,2
 499 675 499 675 529.5 667.5 c 128,-1,3
 560 660 560 660 581.5 647 c 128,-1,4
 603 634 603 634 617 611.5 c 128,-1,5
 631 589 631 589 631 559 c 0,6,7
 631 505 631 505 591 476.5 c 128,-1,8
 551 448 551 448 495 448 c 0,9,10
 468 448 468 448 432 457 c 1,11,12
 447 489 447 489 447 529 c 0,13,14
 447 567 447 567 430.5 592.5 c 128,-1,15
 414 618 414 618 381 618 c 0,16,17
 347 618 347 618 319.5 590 c 128,-1,18
 292 562 292 562 292 516 c 0,19,20
 292 497 292 497 301 482.5 c 128,-1,21
 310 468 310 468 328.5 455 c 128,-1,22
 347 442 347 442 363.5 433 c 128,-1,23
 380 424 380 424 409.5 410 c 128,-1,24
 439 396 439 396 456 387 c 0,25,26
 508 361 508 361 538.5 325 c 128,-1,27
 569 289 569 289 569 232 c 0,28,29
 569 180 569 180 548.5 137.5 c 128,-1,30
 528 95 528 95 493 66.5 c 128,-1,31
 458 38 458 38 409.5 18.5 c 128,-1,32
 361 -1 361 -1 306 -10 c 128,-1,33
 251 -19 251 -19 189 -19 c 0,34,35
 169 -19 169 -19 154 -18.5 c 128,-1,36
 139 -18 139 -18 117.5 -15 c 128,-1,37
 96 -12 96 -12 79.5 -7 c 128,-1,38
 63 -2 63 -2 46 7 c 128,-1,39
 29 16 29 16 18 29 c 128,-1,40
 7 42 7 42 -0.5 61 c 128,-1,41
 -8 80 -8 80 -8 104 c 0,42,43
 -8 157 -8 157 25.5 193 c 128,-1,44
 59 229 59 229 121 229 c 0,45,46
 163 229 163 229 203 216 c 1,47,48
 186 171 186 171 186 126 c 0,49,50
 186 90 186 90 199.5 68 c 128,-1,51
 213 46 213 46 242 46 c 0,52,53
 277 46 277 46 299.5 66.5 c 128,-1,54
 322 87 322 87 322 123 c 0,55,56
 322 142 322 142 313 158 c 128,-1,57
 304 174 304 174 284.5 189 c 128,-1,58
 265 204 265 204 249 213.5 c 128,-1,59
 233 223 233 223 204 238 c 128,-1,60
 175 253 175 253 161 261 c 0,61,62
 109 289 109 289 80.5 327 c 128,-1,63
 52 365 52 365 52 425 c 0,64,65
 52 499 52 499 99 557.5 c 128,-1,66
 146 616 146 616 229.5 648 c 128,-1,67
 313 680 313 680 417 680 c 0,0,1
305 870 m 1,68,-1
 438 813 l 1,69,-1
 605 870 l 1,70,-1
 638 825 l 1,71,-1
 478 695 l 1,72,-1
 373 695 l 1,73,-1
 250 825 l 1,74,-1
 305 870 l 1,68,-1
EndSplineSet
Validated: 8388609
Position2: "'cpsp' Capital Spacing lookup 3 subtable" dx=5 dy=0 dh=10 dv=0
EndChar

StartChar: Scedilla
Encoding: 350 350 111
Width: 592
Flags: MW
HStem: -260 80<193 218 191 271> -110 56 -19 65<151 265 189 265> 618 62<360 405>
VStem: -8 194<104 137> 52 240<484 500> 251 148<-157 -129> 447 184<521 551>
LayerCount: 2
UndoRedoHistory
Layer: 0
Undoes
EndUndoes
Redoes
EndRedoes
EndUndoRedoHistory
UndoRedoHistory
Layer: 1
Undoes
EndUndoes
Redoes
EndRedoes
EndUndoRedoHistory
Fore
SplineSet
196 -19 m 1,0,-1
 189 -19 l 2,1,2
 169 -19 169 -19 154 -18.5 c 128,-1,3
 139 -18 139 -18 117.5 -15 c 128,-1,4
 96 -12 96 -12 79.5 -7 c 128,-1,5
 63 -2 63 -2 46 7 c 128,-1,6
 29 16 29 16 18 29 c 128,-1,7
 7 42 7 42 -0.5 61 c 128,-1,8
 -8 80 -8 80 -8 104 c 0,9,10
 -8 157 -8 157 25.5 193 c 128,-1,11
 59 229 59 229 121 229 c 0,12,13
 163 229 163 229 203 216 c 1,14,15
 186 171 186 171 186 126 c 0,16,17
 186 90 186 90 199.5 68 c 128,-1,18
 213 46 213 46 242 46 c 0,19,20
 277 46 277 46 299.5 66.5 c 128,-1,21
 322 87 322 87 322 123 c 0,22,23
 322 142 322 142 313 158 c 128,-1,24
 304 174 304 174 284.5 189 c 128,-1,25
 265 204 265 204 249 213.5 c 128,-1,26
 233 223 233 223 204 238 c 128,-1,27
 175 253 175 253 161 261 c 0,28,29
 109 289 109 289 80.5 327 c 128,-1,30
 52 365 52 365 52 425 c 0,31,32
 52 499 52 499 99 557.5 c 128,-1,33
 146 616 146 616 229.5 648 c 128,-1,34
 313 680 313 680 417 680 c 0,35,36
 447 680 447 680 473 677.5 c 128,-1,37
 499 675 499 675 529.5 667.5 c 128,-1,38
 560 660 560 660 581.5 647 c 128,-1,39
 603 634 603 634 617 611.5 c 128,-1,40
 631 589 631 589 631 559 c 0,41,42
 631 505 631 505 591 476.5 c 128,-1,43
 551 448 551 448 495 448 c 0,44,45
 468 448 468 448 432 457 c 1,46,47
 447 489 447 489 447 529 c 0,48,49
 447 567 447 567 430.5 592.5 c 128,-1,50
 414 618 414 618 381 618 c 0,51,52
 347 618 347 618 319.5 590 c 128,-1,53
 292 562 292 562 292 516 c 0,54,55
 292 497 292 497 301 482.5 c 128,-1,56
 310 468 310 468 328.5 455 c 128,-1,57
 347 442 347 442 363.5 433 c 128,-1,58
 380 424 380 424 409.5 410 c 128,-1,59
 439 396 439 396 456 387 c 0,60,61
 508 361 508 361 538.5 325 c 128,-1,62
 569 289 569 289 569 232 c 0,63,64
 569 178 569 178 547.5 135 c 128,-1,65
 526 92 526 92 488 62.5 c 128,-1,66
 450 33 450 33 401 14.5 c 128,-1,67
 352 -4 352 -4 292 -12 c 1,68,-1
 280 -54 l 1,69,-1
 283 -54 l 2,70,71
 334 -54 334 -54 366.5 -74.5 c 128,-1,72
 399 -95 399 -95 399 -137 c 0,73,74
 399 -191 399 -191 348 -225.5 c 128,-1,75
 297 -260 297 -260 224 -260 c 0,76,77
 178 -260 178 -260 151.5 -245 c 128,-1,78
 125 -230 125 -230 125 -205 c 0,79,80
 125 -169 125 -169 144 -146 c 1,81,82
 154 -163 154 -163 169 -171.5 c 128,-1,83
 184 -180 184 -180 210 -180 c 0,84,85
 225 -180 225 -180 238 -171 c 128,-1,86
 251 -162 251 -162 251 -143 c 0,87,88
 251 -110 251 -110 212 -110 c 0,89,90
 196 -110 196 -110 168 -112 c 1,91,-1
 196 -19 l 1,0,-1
EndSplineSet
Validated: 8388609
Substitution2: "'locl' Localized Forms in Latin lookup 12 subtable" Scommaaccent
Substitution2: "'locl' Localized Forms in Latin lookup 11 subtable" Scommaaccent
Substitution2: "'aalt' Access All Alternates lookup 0 subtable" Scommaaccent
Position2: "'cpsp' Capital Spacing lookup 3 subtable" dx=5 dy=0 dh=10 dv=0
EndChar

StartChar: Scircumflex
Encoding: 348 348 112
Width: 592
Flags: MW
HStem: -19 65<221 265 221 290> 618 62<360 405>
VStem: -8 194<104 137> 52 240<484 500> 322 247<143 156> 447 184<521 551>
LayerCount: 2
UndoRedoHistory
Layer: 0
Undoes
EndUndoes
Redoes
EndRedoes
EndUndoRedoHistory
UndoRedoHistory
Layer: 1
Undoes
EndUndoes
Redoes
EndRedoes
EndUndoRedoHistory
Fore
SplineSet
417 680 m 0,0,1
 447 680 447 680 473 677.5 c 128,-1,2
 499 675 499 675 529.5 667.5 c 128,-1,3
 560 660 560 660 581.5 647 c 128,-1,4
 603 634 603 634 617 611.5 c 128,-1,5
 631 589 631 589 631 559 c 0,6,7
 631 505 631 505 591 476.5 c 128,-1,8
 551 448 551 448 495 448 c 0,9,10
 468 448 468 448 432 457 c 1,11,12
 447 489 447 489 447 529 c 0,13,14
 447 567 447 567 430.5 592.5 c 128,-1,15
 414 618 414 618 381 618 c 0,16,17
 347 618 347 618 319.5 590 c 128,-1,18
 292 562 292 562 292 516 c 0,19,20
 292 497 292 497 301 482.5 c 128,-1,21
 310 468 310 468 328.5 455 c 128,-1,22
 347 442 347 442 363.5 433 c 128,-1,23
 380 424 380 424 409.5 410 c 128,-1,24
 439 396 439 396 456 387 c 0,25,26
 508 361 508 361 538.5 325 c 128,-1,27
 569 289 569 289 569 232 c 0,28,29
 569 180 569 180 548.5 137.5 c 128,-1,30
 528 95 528 95 493 66.5 c 128,-1,31
 458 38 458 38 409.5 18.5 c 128,-1,32
 361 -1 361 -1 306 -10 c 128,-1,33
 251 -19 251 -19 189 -19 c 0,34,35
 169 -19 169 -19 154 -18.5 c 128,-1,36
 139 -18 139 -18 117.5 -15 c 128,-1,37
 96 -12 96 -12 79.5 -7 c 128,-1,38
 63 -2 63 -2 46 7 c 128,-1,39
 29 16 29 16 18 29 c 128,-1,40
 7 42 7 42 -0.5 61 c 128,-1,41
 -8 80 -8 80 -8 104 c 0,42,43
 -8 157 -8 157 25.5 193 c 128,-1,44
 59 229 59 229 121 229 c 0,45,46
 163 229 163 229 203 216 c 1,47,48
 186 171 186 171 186 126 c 0,49,50
 186 90 186 90 199.5 68 c 128,-1,51
 213 46 213 46 242 46 c 0,52,53
 277 46 277 46 299.5 66.5 c 128,-1,54
 322 87 322 87 322 123 c 0,55,56
 322 142 322 142 313 158 c 128,-1,57
 304 174 304 174 284.5 189 c 128,-1,58
 265 204 265 204 249 213.5 c 128,-1,59
 233 223 233 223 204 238 c 128,-1,60
 175 253 175 253 161 261 c 0,61,62
 109 289 109 289 80.5 327 c 128,-1,63
 52 365 52 365 52 425 c 0,64,65
 52 499 52 499 99 557.5 c 128,-1,66
 146 616 146 616 229.5 648 c 128,-1,67
 313 680 313 680 417 680 c 0,0,1
553 689 m 1,68,-1
 430 726 l 1,69,-1
 273 689 l 1,70,-1
 240 734 l 1,71,-1
 420 854 l 1,72,-1
 465 854 l 1,73,-1
 608 734 l 1,74,-1
 553 689 l 1,68,-1
EndSplineSet
Validated: 8388609
Position2: "'cpsp' Capital Spacing lookup 3 subtable" dx=5 dy=0 dh=10 dv=0
EndChar

StartChar: Scommaaccent
Encoding: 536 536 113
Width: 592
Flags: MW
HStem: -19 65<221 265 221 290> 618 62<360 405>
VStem: -8 194<104 137> 52 240<484 500> 145 159<-157 -114> 322 247<143 156> 447 184<521 551>
LayerCount: 2
UndoRedoHistory
Layer: 0
Undoes
EndUndoes
Redoes
EndRedoes
EndUndoRedoHistory
UndoRedoHistory
Layer: 1
Undoes
EndUndoes
Redoes
EndRedoes
EndUndoRedoHistory
Fore
SplineSet
304 -114 m 0,0,1
 304 -151 304 -151 284.5 -182 c 128,-1,2
 265 -213 265 -213 235.5 -231.5 c 128,-1,3
 206 -250 206 -250 175.5 -259.5 c 128,-1,4
 145 -269 145 -269 118 -269 c 0,5,6
 102 -269 102 -269 81 -262 c 1,7,8
 119 -224 119 -224 132 -197 c 128,-1,9
 145 -170 145 -170 145 -124 c 0,10,11
 145 -110 145 -110 141.5 -93 c 128,-1,12
 138 -76 138 -76 134 -68 c 1,13,14
 183 -52 183 -52 215 -52 c 0,15,16
 304 -52 304 -52 304 -114 c 0,0,1
417 680 m 0,17,18
 447 680 447 680 473 677.5 c 128,-1,19
 499 675 499 675 529.5 667.5 c 128,-1,20
 560 660 560 660 581.5 647 c 128,-1,21
 603 634 603 634 617 611.5 c 128,-1,22
 631 589 631 589 631 559 c 0,23,24
 631 505 631 505 591 476.5 c 128,-1,25
 551 448 551 448 495 448 c 0,26,27
 468 448 468 448 432 457 c 1,28,29
 447 489 447 489 447 529 c 0,30,31
 447 567 447 567 430.5 592.5 c 128,-1,32
 414 618 414 618 381 618 c 0,33,34
 347 618 347 618 319.5 590 c 128,-1,35
 292 562 292 562 292 516 c 0,36,37
 292 497 292 497 301 482.5 c 128,-1,38
 310 468 310 468 328.5 455 c 128,-1,39
 347 442 347 442 363.5 433 c 128,-1,40
 380 424 380 424 409.5 410 c 128,-1,41
 439 396 439 396 456 387 c 0,42,43
 508 361 508 361 538.5 325 c 128,-1,44
 569 289 569 289 569 232 c 0,45,46
 569 180 569 180 548.5 137.5 c 128,-1,47
 528 95 528 95 493 66.5 c 128,-1,48
 458 38 458 38 409.5 18.5 c 128,-1,49
 361 -1 361 -1 306 -10 c 128,-1,50
 251 -19 251 -19 189 -19 c 0,51,52
 169 -19 169 -19 154 -18.5 c 128,-1,53
 139 -18 139 -18 117.5 -15 c 128,-1,54
 96 -12 96 -12 79.5 -7 c 128,-1,55
 63 -2 63 -2 46 7 c 128,-1,56
 29 16 29 16 18 29 c 128,-1,57
 7 42 7 42 -0.5 61 c 128,-1,58
 -8 80 -8 80 -8 104 c 0,59,60
 -8 157 -8 157 25.5 193 c 128,-1,61
 59 229 59 229 121 229 c 0,62,63
 163 229 163 229 203 216 c 1,64,65
 186 171 186 171 186 126 c 0,66,67
 186 90 186 90 199.5 68 c 128,-1,68
 213 46 213 46 242 46 c 0,69,70
 277 46 277 46 299.5 66.5 c 128,-1,71
 322 87 322 87 322 123 c 0,72,73
 322 142 322 142 313 158 c 128,-1,74
 304 174 304 174 284.5 189 c 128,-1,75
 265 204 265 204 249 213.5 c 128,-1,76
 233 223 233 223 204 238 c 128,-1,77
 175 253 175 253 161 261 c 0,78,79
 109 289 109 289 80.5 327 c 128,-1,80
 52 365 52 365 52 425 c 0,81,82
 52 499 52 499 99 557.5 c 128,-1,83
 146 616 146 616 229.5 648 c 128,-1,84
 313 680 313 680 417 680 c 0,17,18
EndSplineSet
Validated: 8388609
Position2: "'cpsp' Capital Spacing lookup 3 subtable" dx=5 dy=0 dh=10 dv=0
EndChar

StartChar: Sdotbelow
Encoding: 7778 7778 114
Width: 592
Flags: MW
HStem: -201 169<207 271> -19 65<221 265 221 290> 618 62<360 405>
VStem: -8 194<104 137> 52 240<484 500> 119 237<-145 -92> 322 247<143 156> 447 184<521 551>
LayerCount: 2
UndoRedoHistory
Layer: 0
Undoes
EndUndoes
Redoes
EndRedoes
EndUndoRedoHistory
UndoRedoHistory
Layer: 1
Undoes
EndUndoes
Redoes
EndRedoes
EndUndoRedoHistory
Fore
SplineSet
241 -32 m 0,0,1
 292 -32 292 -32 324 -55.5 c 128,-1,2
 356 -79 356 -79 356 -117 c 0,3,4
 356 -157 356 -157 323 -179 c 128,-1,5
 290 -201 290 -201 237 -201 c 128,-1,6
 184 -201 184 -201 151.5 -179.5 c 128,-1,7
 119 -158 119 -158 119 -119 c 0,8,9
 119 -79 119 -79 154 -55.5 c 128,-1,10
 189 -32 189 -32 241 -32 c 0,0,1
417 680 m 0,11,12
 447 680 447 680 473 677.5 c 128,-1,13
 499 675 499 675 529.5 667.5 c 128,-1,14
 560 660 560 660 581.5 647 c 128,-1,15
 603 634 603 634 617 611.5 c 128,-1,16
 631 589 631 589 631 559 c 0,17,18
 631 505 631 505 591 476.5 c 128,-1,19
 551 448 551 448 495 448 c 0,20,21
 468 448 468 448 432 457 c 1,22,23
 447 489 447 489 447 529 c 0,24,25
 447 567 447 567 430.5 592.5 c 128,-1,26
 414 618 414 618 381 618 c 0,27,28
 347 618 347 618 319.5 590 c 128,-1,29
 292 562 292 562 292 516 c 0,30,31
 292 497 292 497 301 482.5 c 128,-1,32
 310 468 310 468 328.5 455 c 128,-1,33
 347 442 347 442 363.5 433 c 128,-1,34
 380 424 380 424 409.5 410 c 128,-1,35
 439 396 439 396 456 387 c 0,36,37
 508 361 508 361 538.5 325 c 128,-1,38
 569 289 569 289 569 232 c 0,39,40
 569 180 569 180 548.5 137.5 c 128,-1,41
 528 95 528 95 493 66.5 c 128,-1,42
 458 38 458 38 409.5 18.5 c 128,-1,43
 361 -1 361 -1 306 -10 c 128,-1,44
 251 -19 251 -19 189 -19 c 0,45,46
 169 -19 169 -19 154 -18.5 c 128,-1,47
 139 -18 139 -18 117.5 -15 c 128,-1,48
 96 -12 96 -12 79.5 -7 c 128,-1,49
 63 -2 63 -2 46 7 c 128,-1,50
 29 16 29 16 18 29 c 128,-1,51
 7 42 7 42 -0.5 61 c 128,-1,52
 -8 80 -8 80 -8 104 c 0,53,54
 -8 157 -8 157 25.5 193 c 128,-1,55
 59 229 59 229 121 229 c 0,56,57
 163 229 163 229 203 216 c 1,58,59
 186 171 186 171 186 126 c 0,60,61
 186 90 186 90 199.5 68 c 128,-1,62
 213 46 213 46 242 46 c 0,63,64
 277 46 277 46 299.5 66.5 c 128,-1,65
 322 87 322 87 322 123 c 0,66,67
 322 142 322 142 313 158 c 128,-1,68
 304 174 304 174 284.5 189 c 128,-1,69
 265 204 265 204 249 213.5 c 128,-1,70
 233 223 233 223 204 238 c 128,-1,71
 175 253 175 253 161 261 c 0,72,73
 109 289 109 289 80.5 327 c 128,-1,74
 52 365 52 365 52 425 c 0,75,76
 52 499 52 499 99 557.5 c 128,-1,77
 146 616 146 616 229.5 648 c 128,-1,78
 313 680 313 680 417 680 c 0,11,12
EndSplineSet
Validated: 8388609
Position2: "'cpsp' Capital Spacing lookup 3 subtable" dx=5 dy=0 dh=10 dv=0
EndChar

StartChar: uni1E9E
Encoding: 7838 7838 115
Width: 778
Flags: MW
HStem: -19 69<437 462 437 507> 0 170<-29 373> 640 40<438 512>
VStem: 278 133<79 101 79 101> 361 244<260 480> 493 240<86 297>
LayerCount: 2
UndoRedoHistory
Layer: 0
Undoes
EndUndoes
Redoes
EndRedoes
EndUndoRedoHistory
UndoRedoHistory
Layer: 1
Undoes
EndUndoes
Redoes
EndRedoes
EndUndoRedoHistory
Fore
SplineSet
37 331 m 2,0,1
 50 395 50 395 71 447 c 128,-1,2
 92 499 92 499 117.5 534.5 c 128,-1,3
 143 570 143 570 176 597 c 128,-1,4
 209 624 209 624 242 639.5 c 128,-1,5
 275 655 275 655 315.5 664.5 c 128,-1,6
 356 674 356 674 392 677 c 128,-1,7
 428 680 428 680 470 680 c 0,8,9
 579 680 579 680 646.5 655.5 c 128,-1,10
 714 631 714 631 753 581 c 1,11,12
 744 576 744 576 721.5 564.5 c 128,-1,13
 699 553 699 553 682 542.5 c 128,-1,14
 665 532 665 532 645.5 517 c 128,-1,15
 626 502 626 502 615.5 482.5 c 128,-1,16
 605 463 605 463 605 440 c 0,17,18
 605 425 605 425 612 412 c 128,-1,19
 619 399 619 399 630.5 389 c 128,-1,20
 642 379 642 379 655.5 369 c 128,-1,21
 669 359 669 359 682.5 346 c 128,-1,22
 696 333 696 333 707.5 317.5 c 128,-1,23
 719 302 719 302 726 278 c 128,-1,24
 733 254 733 254 733 225 c 0,25,26
 733 169 733 169 708 122.5 c 128,-1,27
 683 76 683 76 640.5 45.5 c 128,-1,28
 598 15 598 15 543 -2 c 128,-1,29
 488 -19 488 -19 428 -19 c 0,30,31
 408 -19 408 -19 392.5 -18 c 128,-1,32
 377 -17 377 -17 354 -11.5 c 128,-1,33
 331 -6 331 -6 315.5 3.5 c 128,-1,34
 300 13 300 13 289 32 c 128,-1,35
 278 51 278 51 278 77 c 0,36,37
 278 116 278 116 299.5 143 c 128,-1,38
 321 170 321 170 364 170 c 0,39,40
 393 170 393 170 423 157 c 1,41,42
 411 115 411 115 411 90 c 0,43,44
 411 73 411 73 421 61.5 c 128,-1,45
 431 50 431 50 447 50 c 0,46,47
 469 50 469 50 481 64 c 128,-1,48
 493 78 493 78 493 103 c 0,49,50
 493 121 493 121 483.5 137.5 c 128,-1,51
 474 154 474 154 459 166 c 128,-1,52
 444 178 444 178 427 194 c 128,-1,53
 410 210 410 210 395 227 c 128,-1,54
 380 244 380 244 370.5 269.5 c 128,-1,55
 361 295 361 295 361 326 c 0,56,57
 361 364 361 364 375.5 399.5 c 128,-1,58
 390 435 390 435 411.5 460.5 c 128,-1,59
 433 486 433 486 464.5 510.5 c 128,-1,60
 496 535 496 535 523 550.5 c 128,-1,61
 550 566 550 566 582 582 c 1,62,63
 575 604 575 604 548.5 622 c 128,-1,64
 522 640 522 640 485 640 c 0,65,66
 419 640 419 640 377.5 565.5 c 128,-1,67
 336 491 336 491 307 346 c 2,68,-1
 239 0 l 1,69,-1
 -29 0 l 1,70,-1
 37 331 l 2,0,1
EndSplineSet
Validated: 8388609
Position2: "'cpsp' Capital Spacing lookup 3 subtable" dx=5 dy=0 dh=10 dv=0
EndChar

StartChar: Schwa
Encoding: 399 399 116
Width: 618
Flags: MW
HStem: -26 52<210 242 210 338> 308 41<339 343> 499 181<297 301>
VStem: -10 202<79 99 79 190> 356 260<392 431>
LayerCount: 2
UndoRedoHistory
Layer: 0
Undoes
EndUndoes
Redoes
EndRedoes
EndUndoRedoHistory
UndoRedoHistory
Layer: 1
Undoes
EndUndoes
Redoes
EndRedoes
EndUndoRedoHistory
Fore
SplineSet
226 26 m 0,0,1
 297 26 297 26 343 308 c 1,2,3
 303 308 303 308 273.5 291 c 128,-1,4
 244 274 244 274 226.5 244 c 128,-1,5
 209 214 209 214 201 178 c 128,-1,6
 193 142 193 142 192 99 c 0,7,8
 192 82 192 82 193 70.5 c 128,-1,9
 194 59 194 59 197.5 48 c 128,-1,10
 201 37 201 37 208 31.5 c 128,-1,11
 215 26 215 26 226 26 c 0,0,1
198 -26 m 0,12,13
 163 -26 163 -26 135.5 -22.5 c 128,-1,14
 108 -19 108 -19 80 -9 c 128,-1,15
 52 1 52 1 33 18 c 128,-1,16
 14 35 14 35 2 64 c 128,-1,17
 -10 93 -10 93 -10 132 c 0,18,19
 -10 177 -10 177 6.5 212.5 c 128,-1,20
 23 248 23 248 58 276 c 128,-1,21
 93 304 93 304 152 322 c 128,-1,22
 211 340 211 340 293 346 c 0,23,24
 323 349 323 349 351 349 c 1,25,26
 356 377 356 377 356 399 c 0,27,28
 356 449 356 449 335.5 474 c 128,-1,29
 315 499 315 499 269 499 c 0,30,31
 226 499 226 499 178.5 479 c 128,-1,32
 131 459 131 459 107 425 c 1,33,34
 79 450 79 450 79 488 c 128,-1,35
 79 526 79 526 96 558 c 128,-1,36
 113 590 113 590 141 612 c 128,-1,37
 169 634 169 634 206 650 c 128,-1,38
 243 666 243 666 282.5 673 c 128,-1,39
 322 680 322 680 362 680 c 0,40,41
 483 680 483 680 549.5 607.5 c 128,-1,42
 616 535 616 535 616 386 c 0,43,44
 616 318 616 318 599.5 257 c 128,-1,45
 583 196 583 196 549.5 144 c 128,-1,46
 516 92 516 92 467 54.5 c 128,-1,47
 418 17 418 17 349 -4.5 c 128,-1,48
 280 -26 280 -26 198 -26 c 0,12,13
EndSplineSet
Validated: 1
Position2: "'cpsp' Capital Spacing lookup 3 subtable" dx=5 dy=0 dh=10 dv=0
EndChar

StartChar: T
Encoding: 84 84 117
Width: 519
Flags: MW
HStem: 525 135<48 464 48 464 148 178 430 464 464 471 430 430> 649 20G
VStem: 48 539<525 617>
LayerCount: 2
UndoRedoHistory
Layer: 0
Undoes
EndUndoes
Redoes
EndRedoes
EndUndoRedoHistory
UndoRedoHistory
Layer: 1
Undoes
EndUndoes
Redoes
EndRedoes
EndUndoRedoHistory
Fore
SplineSet
464 660 m 2,0,1
 537 660 537 660 571 669 c 1,2,3
 587 648 587 648 587 606 c 0,4,5
 587 559 587 559 557.5 542 c 128,-1,6
 528 525 528 525 471 525 c 2,7,-1
 430 525 l 1,8,-1
 365 192 l 1,9,10
 354 123 354 123 354 91 c 0,11,12
 354 69 354 69 358.5 48 c 128,-1,13
 363 27 363 27 368 19 c 1,14,15
 309 -20 309 -20 231 -20 c 0,16,17
 168 -20 168 -20 136 11 c 128,-1,18
 104 42 104 42 104 100 c 0,19,20
 104 177 104 177 144 373 c 1,21,-1
 178 525 l 1,22,-1
 112 525 l 1,23,-1
 48 525 l 1,24,25
 48 532 48 532 48.5 547 c 128,-1,26
 49 562 49 562 49 565 c 0,27,28
 49 616 49 616 73 638 c 128,-1,29
 97 660 97 660 148 660 c 2,30,-1
 464 660 l 2,0,1
EndSplineSet
Validated: 8388609
Position2: "'cpsp' Capital Spacing lookup 3 subtable" dx=5 dy=0 dh=10 dv=0
EndChar

StartChar: Tbar
Encoding: 358 358 118
Width: 519
Flags: MW
HStem: 277 102<108 124 38 147 401 441> 525 135<48 464 48 464 148 178 430 464 464 471 430 430> 649 20G
VStem: 35 552<302 617>
LayerCount: 2
UndoRedoHistory
Layer: 0
Undoes
EndUndoes
Redoes
EndRedoes
EndUndoRedoHistory
UndoRedoHistory
Layer: 1
Undoes
EndUndoes
Redoes
EndRedoes
EndUndoRedoHistory
Fore
SplineSet
464 660 m 2,0,1
 537 660 537 660 571 669 c 1,2,3
 587 648 587 648 587 606 c 0,4,5
 587 559 587 559 557.5 542 c 128,-1,6
 528 525 528 525 471 525 c 2,7,-1
 430 525 l 1,8,-1
 401 379 l 1,9,-1
 519 379 l 1,10,11
 523 363 523 363 523 349 c 0,12,13
 523 318 523 318 501 297.5 c 128,-1,14
 479 277 479 277 441 277 c 2,15,-1
 382 277 l 1,16,-1
 365 192 l 1,17,18
 354 123 354 123 354 91 c 0,19,20
 354 69 354 69 358.5 48 c 128,-1,21
 363 27 363 27 368 19 c 1,22,23
 309 -20 309 -20 231 -20 c 0,24,25
 168 -20 168 -20 136 11 c 128,-1,26
 104 42 104 42 104 100 c 0,27,28
 104 147 104 147 122 248 c 1,29,-1
 124 277 l 1,30,-1
 38 277 l 1,31,32
 35 287 35 287 35 306 c 0,33,34
 35 338 35 338 56.5 358.5 c 128,-1,35
 78 379 78 379 108 379 c 2,36,-1
 147 379 l 1,37,-1
 178 525 l 1,38,-1
 112 525 l 1,39,-1
 48 525 l 1,40,41
 48 532 48 532 48.5 547 c 128,-1,42
 49 562 49 562 49 565 c 0,43,44
 49 616 49 616 73 638 c 128,-1,45
 97 660 97 660 148 660 c 2,46,-1
 464 660 l 2,0,1
EndSplineSet
Validated: 8388609
Position2: "'cpsp' Capital Spacing lookup 3 subtable" dx=5 dy=0 dh=10 dv=0
EndChar

StartChar: Tcaron
Encoding: 356 356 119
Width: 519
Flags: MW
HStem: 525 135<148 178 48 464 430 464 464 471 430 430> 649 20G
VStem: 48 539<525 617>
LayerCount: 2
UndoRedoHistory
Layer: 0
Undoes
EndUndoes
Redoes
EndRedoes
EndUndoRedoHistory
UndoRedoHistory
Layer: 1
Undoes
EndUndoes
Redoes
EndRedoes
EndUndoRedoHistory
Fore
SplineSet
464 660 m 2,0,1
 537 660 537 660 571 669 c 1,2,3
 587 648 587 648 587 606 c 0,4,5
 587 559 587 559 557.5 542 c 128,-1,6
 528 525 528 525 471 525 c 2,7,-1
 430 525 l 1,8,-1
 365 192 l 1,9,10
 354 123 354 123 354 91 c 0,11,12
 354 69 354 69 358.5 48 c 128,-1,13
 363 27 363 27 368 19 c 1,14,15
 309 -20 309 -20 231 -20 c 0,16,17
 168 -20 168 -20 136 11 c 128,-1,18
 104 42 104 42 104 100 c 0,19,20
 104 177 104 177 144 373 c 1,21,-1
 178 525 l 1,22,-1
 48 525 l 1,23,-1
 49 565 l 1,24,25
 49 616 49 616 73 638 c 128,-1,26
 97 660 97 660 148 660 c 2,27,-1
 464 660 l 2,0,1
226 870 m 1,28,-1
 359 813 l 1,29,-1
 526 870 l 1,30,-1
 559 825 l 1,31,-1
 399 695 l 1,32,-1
 294 695 l 1,33,-1
 171 825 l 1,34,-1
 226 870 l 1,28,-1
EndSplineSet
Validated: 8388609
Position2: "'cpsp' Capital Spacing lookup 3 subtable" dx=5 dy=0 dh=10 dv=0
EndChar

StartChar: Tcedilla
Encoding: 354 354 120
Width: 519
Flags: MW
HStem: -260 80<164 188 162 242> -110 56 525 135<148 178 48 464 430 464 464 471 430 430> 649 20G
VStem: 221 148<-157 -129>
LayerCount: 2
UndoRedoHistory
Layer: 0
Undoes
EndUndoes
Redoes
EndRedoes
EndUndoRedoHistory
UndoRedoHistory
Layer: 1
Undoes
EndUndoes
Redoes
EndRedoes
EndUndoRedoHistory
Fore
SplineSet
464 660 m 2,0,1
 537 660 537 660 571 669 c 1,2,3
 587 648 587 648 587 606 c 0,4,5
 587 559 587 559 557.5 542 c 128,-1,6
 528 525 528 525 471 525 c 2,7,-1
 430 525 l 1,8,-1
 365 192 l 1,9,10
 354 123 354 123 354 91 c 0,11,12
 354 69 354 69 358.5 48 c 128,-1,13
 363 27 363 27 368 19 c 1,14,15
 323 -12 323 -12 260 -18 c 1,16,-1
 250 -54 l 1,17,-1
 253 -54 l 2,18,19
 304 -54 304 -54 336.5 -74.5 c 128,-1,20
 369 -95 369 -95 369 -137 c 0,21,22
 369 -191 369 -191 318 -225.5 c 128,-1,23
 267 -260 267 -260 194 -260 c 0,24,25
 148 -260 148 -260 121.5 -245 c 128,-1,26
 95 -230 95 -230 95 -205 c 0,27,28
 95 -168 95 -168 114 -146 c 1,29,30
 124 -163 124 -163 139 -171.5 c 128,-1,31
 154 -180 154 -180 180 -180 c 0,32,33
 195 -180 195 -180 208 -171 c 128,-1,34
 221 -162 221 -162 221 -143 c 0,35,36
 221 -110 221 -110 182 -110 c 0,37,38
 166 -110 166 -110 138 -112 c 1,39,-1
 169 -10 l 1,40,41
 104 17 104 17 104 100 c 0,42,43
 104 177 104 177 144 373 c 1,44,-1
 178 525 l 1,45,-1
 48 525 l 1,46,-1
 49 565 l 1,47,48
 49 616 49 616 73 638 c 128,-1,49
 97 660 97 660 148 660 c 2,50,-1
 464 660 l 2,0,1
EndSplineSet
Validated: 8388609
Substitution2: "'locl' Localized Forms in Latin lookup 12 subtable" uni021A
Substitution2: "'locl' Localized Forms in Latin lookup 11 subtable" uni021A
Substitution2: "'aalt' Access All Alternates lookup 0 subtable" uni021A
Position2: "'cpsp' Capital Spacing lookup 3 subtable" dx=5 dy=0 dh=10 dv=0
EndChar

StartChar: uni021A
Encoding: 538 538 121
Width: 519
Flags: MW
HStem: 525 135<148 178 48 464 430 464 464 471 430 430> 649 20G
VStem: 115 159<-157 -114>
LayerCount: 2
UndoRedoHistory
Layer: 0
Undoes
EndUndoes
Redoes
EndRedoes
EndUndoRedoHistory
UndoRedoHistory
Layer: 1
Undoes
EndUndoes
Redoes
EndRedoes
EndUndoRedoHistory
Fore
SplineSet
274 -114 m 0,0,1
 274 -151 274 -151 254.5 -182 c 128,-1,2
 235 -213 235 -213 205.5 -231.5 c 128,-1,3
 176 -250 176 -250 145 -259.5 c 128,-1,4
 114 -269 114 -269 88 -269 c 0,5,6
 72 -269 72 -269 51 -262 c 1,7,8
 89 -223 89 -223 102 -196.5 c 128,-1,9
 115 -170 115 -170 115 -124 c 0,10,11
 115 -110 115 -110 111.5 -93 c 128,-1,12
 108 -76 108 -76 104 -68 c 1,13,14
 153 -52 153 -52 185 -52 c 0,15,16
 274 -52 274 -52 274 -114 c 0,0,1
464 660 m 2,17,18
 537 660 537 660 571 669 c 1,19,20
 587 648 587 648 587 606 c 0,21,22
 587 559 587 559 557.5 542 c 128,-1,23
 528 525 528 525 471 525 c 2,24,-1
 430 525 l 1,25,-1
 365 192 l 1,26,27
 354 123 354 123 354 91 c 0,28,29
 354 69 354 69 358.5 48 c 128,-1,30
 363 27 363 27 368 19 c 1,31,32
 309 -20 309 -20 231 -20 c 0,33,34
 168 -20 168 -20 136 11 c 128,-1,35
 104 42 104 42 104 100 c 0,36,37
 104 177 104 177 144 373 c 1,38,-1
 178 525 l 1,39,-1
 48 525 l 1,40,-1
 49 565 l 1,41,42
 49 616 49 616 73 638 c 128,-1,43
 97 660 97 660 148 660 c 2,44,-1
 464 660 l 2,17,18
EndSplineSet
Validated: 8388609
Position2: "'cpsp' Capital Spacing lookup 3 subtable" dx=5 dy=0 dh=10 dv=0
EndChar

StartChar: Tdotbelow
Encoding: 7788 7788 122
Width: 519
Flags: MW
HStem: -201 169<177 242> 525 135<148 178 48 464 430 464 464 471 430 430> 649 20G
VStem: 48 539<525 617> 89 237<-145 -92>
LayerCount: 2
UndoRedoHistory
Layer: 0
Undoes
EndUndoes
Redoes
EndRedoes
EndUndoRedoHistory
UndoRedoHistory
Layer: 1
Undoes
EndUndoes
Redoes
EndRedoes
EndUndoRedoHistory
Fore
SplineSet
211 -32 m 0,0,1
 262 -32 262 -32 294 -55.5 c 128,-1,2
 326 -79 326 -79 326 -117 c 0,3,4
 326 -157 326 -157 293 -179 c 128,-1,5
 260 -201 260 -201 207 -201 c 128,-1,6
 154 -201 154 -201 121.5 -179.5 c 128,-1,7
 89 -158 89 -158 89 -119 c 0,8,9
 89 -79 89 -79 124 -55.5 c 128,-1,10
 159 -32 159 -32 211 -32 c 0,0,1
464 660 m 2,11,12
 537 660 537 660 571 669 c 1,13,14
 587 648 587 648 587 606 c 0,15,16
 587 559 587 559 557.5 542 c 128,-1,17
 528 525 528 525 471 525 c 2,18,-1
 430 525 l 1,19,-1
 365 192 l 1,20,21
 354 123 354 123 354 91 c 0,22,23
 354 69 354 69 358.5 48 c 128,-1,24
 363 27 363 27 368 19 c 1,25,26
 309 -20 309 -20 231 -20 c 0,27,28
 168 -20 168 -20 136 11 c 128,-1,29
 104 42 104 42 104 100 c 0,30,31
 104 177 104 177 144 373 c 1,32,-1
 178 525 l 1,33,-1
 48 525 l 1,34,-1
 49 565 l 1,35,36
 49 616 49 616 73 638 c 128,-1,37
 97 660 97 660 148 660 c 2,38,-1
 464 660 l 2,11,12
EndSplineSet
Validated: 8388609
Position2: "'cpsp' Capital Spacing lookup 3 subtable" dx=5 dy=0 dh=10 dv=0
EndChar

StartChar: U
Encoding: 85 85 123
Width: 646
Flags: MW
HStem: -20 100<320 373 320 382> 640 20G<108 380 380 380 525 699 699 699>
VStem: 18 681<80 660>
LayerCount: 2
UndoRedoHistory
Layer: 0
Undoes
EndUndoes
Redoes
EndRedoes
EndUndoRedoHistory
UndoRedoHistory
Layer: 1
Undoes
EndUndoes
Redoes
EndRedoes
EndUndoRedoHistory
Fore
SplineSet
621 248 m 2,0,1
 595 109 595 109 513.5 44.5 c 128,-1,2
 432 -20 432 -20 280 -20 c 0,3,4
 225 -20 225 -20 180.5 -12 c 128,-1,5
 136 -4 136 -4 98.5 14 c 128,-1,6
 61 32 61 32 39.5 65 c 128,-1,7
 18 98 18 98 18 144 c 0,8,9
 18 193 18 193 31 259 c 2,10,-1
 108 660 l 1,11,-1
 380 660 l 1,12,-1
 303 245 l 1,13,14
 288 158 288 158 288 137 c 0,15,16
 288 107 288 107 300 93.5 c 128,-1,17
 312 80 312 80 340 80 c 0,18,19
 359 80 359 80 373.5 87.5 c 128,-1,20
 388 95 388 95 398 106.5 c 128,-1,21
 408 118 408 118 416 139.5 c 128,-1,22
 424 161 424 161 429.5 182 c 128,-1,23
 435 203 435 203 441 236 c 2,24,-1
 525 660 l 1,25,-1
 699 660 l 1,26,-1
 621 248 l 2,0,1
EndSplineSet
Validated: 1
Position2: "'cpsp' Capital Spacing lookup 3 subtable" dx=5 dy=0 dh=10 dv=0
EndChar

StartChar: Uacute
Encoding: 218 218 124
Width: 646
Flags: MW
HStem: -20 100<320 373 320 382> 640 20G<108 380 380 380 525 699 699 699>
VStem: 18 681<80 660>
LayerCount: 2
UndoRedoHistory
Layer: 0
Undoes
EndUndoes
Redoes
EndRedoes
EndUndoRedoHistory
UndoRedoHistory
Layer: 1
Undoes
EndUndoes
Redoes
EndRedoes
EndUndoRedoHistory
Fore
SplineSet
621 248 m 2,0,1
 595 109 595 109 513.5 44.5 c 128,-1,2
 432 -20 432 -20 280 -20 c 0,3,4
 225 -20 225 -20 180.5 -12 c 128,-1,5
 136 -4 136 -4 98.5 14 c 128,-1,6
 61 32 61 32 39.5 65 c 128,-1,7
 18 98 18 98 18 144 c 0,8,9
 18 193 18 193 31 259 c 2,10,-1
 108 660 l 1,11,-1
 380 660 l 1,12,-1
 303 245 l 1,13,14
 288 158 288 158 288 137 c 0,15,16
 288 107 288 107 300 93.5 c 128,-1,17
 312 80 312 80 340 80 c 0,18,19
 359 80 359 80 373.5 87.5 c 128,-1,20
 388 95 388 95 398 106.5 c 128,-1,21
 408 118 408 118 416 139.5 c 128,-1,22
 424 161 424 161 429.5 182 c 128,-1,23
 435 203 435 203 441 236 c 2,24,-1
 525 660 l 1,25,-1
 699 660 l 1,26,-1
 621 248 l 2,0,1
346 760 m 1,27,-1
 596 869 l 1,28,29
 612 856 612 856 619.5 843.5 c 128,-1,30
 627 831 627 831 627 810 c 0,31,32
 627 761 627 761 586 737 c 128,-1,33
 545 713 545 713 480 712 c 2,34,-1
 360 709 l 1,35,-1
 346 760 l 1,27,-1
EndSplineSet
Validated: 1
Position2: "'cpsp' Capital Spacing lookup 3 subtable" dx=5 dy=0 dh=10 dv=0
EndChar

StartChar: Ubreve
Encoding: 364 364 125
Width: 646
Flags: MW
HStem: -20 100<320 373 320 382> 640 20G<108 380 380 380 525 699 699 699> 700 133<353 413 485 488>
VStem: 233 175<778 779 770 811>
LayerCount: 2
UndoRedoHistory
Layer: 0
Undoes
EndUndoes
Redoes
EndRedoes
EndUndoRedoHistory
UndoRedoHistory
Layer: 1
Undoes
EndUndoes
Redoes
EndRedoes
EndUndoRedoHistory
Fore
SplineSet
621 248 m 2,0,1
 595 109 595 109 513.5 44.5 c 128,-1,2
 432 -20 432 -20 280 -20 c 0,3,4
 225 -20 225 -20 180.5 -12 c 128,-1,5
 136 -4 136 -4 98.5 14 c 128,-1,6
 61 32 61 32 39.5 65 c 128,-1,7
 18 98 18 98 18 144 c 0,8,9
 18 193 18 193 31 259 c 2,10,-1
 108 660 l 1,11,-1
 380 660 l 1,12,-1
 303 245 l 1,13,14
 288 158 288 158 288 137 c 0,15,16
 288 107 288 107 300 93.5 c 128,-1,17
 312 80 312 80 340 80 c 0,18,19
 359 80 359 80 373.5 87.5 c 128,-1,20
 388 95 388 95 398 106.5 c 128,-1,21
 408 118 408 118 416 139.5 c 128,-1,22
 424 161 424 161 429.5 182 c 128,-1,23
 435 203 435 203 441 236 c 2,24,-1
 525 660 l 1,25,-1
 699 660 l 1,26,-1
 621 248 l 2,0,1
413 833 m 1,27,28
 409 805 409 805 409 792 c 0,29,30
 409 790 409 790 408.5 784.5 c 128,-1,31
 408 779 408 779 408 776 c 0,32,33
 408 749 408 749 436 749 c 0,34,35
 444 749 444 749 451 752.5 c 128,-1,36
 458 756 458 756 462 761.5 c 128,-1,37
 466 767 466 767 469.5 776.5 c 128,-1,38
 473 786 473 786 475 793.5 c 128,-1,39
 477 801 477 801 480 813.5 c 128,-1,40
 483 826 483 826 485 833 c 1,41,-1
 656 833 l 1,42,43
 643 774 643 774 581.5 737 c 128,-1,44
 520 700 520 700 420 700 c 0,45,46
 325 700 325 700 279 730 c 128,-1,47
 233 760 233 760 233 806 c 0,48,49
 233 818 233 818 236 833 c 1,50,-1
 413 833 l 1,27,28
EndSplineSet
Validated: 1
Position2: "'cpsp' Capital Spacing lookup 3 subtable" dx=5 dy=0 dh=10 dv=0
EndChar

StartChar: Ucircumflex
Encoding: 219 219 126
Width: 646
Flags: MW
HStem: -20 100<320 373 320 382> 640 20G<108 380 380 380 525 699 699 699>
VStem: 18 681<80 660>
LayerCount: 2
UndoRedoHistory
Layer: 0
Undoes
EndUndoes
Redoes
EndRedoes
EndUndoRedoHistory
UndoRedoHistory
Layer: 1
Undoes
EndUndoes
Redoes
EndRedoes
EndUndoRedoHistory
Fore
SplineSet
621 248 m 2,0,1
 595 109 595 109 513.5 44.5 c 128,-1,2
 432 -20 432 -20 280 -20 c 0,3,4
 225 -20 225 -20 180.5 -12 c 128,-1,5
 136 -4 136 -4 98.5 14 c 128,-1,6
 61 32 61 32 39.5 65 c 128,-1,7
 18 98 18 98 18 144 c 0,8,9
 18 193 18 193 31 259 c 2,10,-1
 108 660 l 1,11,-1
 380 660 l 1,12,-1
 303 245 l 1,13,14
 288 158 288 158 288 137 c 0,15,16
 288 107 288 107 300 93.5 c 128,-1,17
 312 80 312 80 340 80 c 0,18,19
 359 80 359 80 373.5 87.5 c 128,-1,20
 388 95 388 95 398 106.5 c 128,-1,21
 408 118 408 118 416 139.5 c 128,-1,22
 424 161 424 161 429.5 182 c 128,-1,23
 435 203 435 203 441 236 c 2,24,-1
 525 660 l 1,25,-1
 699 660 l 1,26,-1
 621 248 l 2,0,1
575 689 m 1,27,-1
 452 726 l 1,28,-1
 295 689 l 1,29,-1
 262 734 l 1,30,-1
 442 854 l 1,31,-1
 487 854 l 1,32,-1
 630 734 l 1,33,-1
 575 689 l 1,27,-1
EndSplineSet
Validated: 1
Position2: "'cpsp' Capital Spacing lookup 3 subtable" dx=5 dy=0 dh=10 dv=0
EndChar

StartChar: Udieresis
Encoding: 220 220 127
Width: 646
Flags: MW
HStem: -20 100<320 373 320 382> 640 20G<108 380 380 380 525 699 699 699> 690 169<275 339 524 588>
VStem: 18 681<80 660> 187 237<747 799> 436 237<747 799>
LayerCount: 2
UndoRedoHistory
Layer: 0
Undoes
EndUndoes
Redoes
EndRedoes
EndUndoRedoHistory
UndoRedoHistory
Layer: 1
Undoes
EndUndoes
Redoes
EndRedoes
EndUndoRedoHistory
Fore
SplineSet
621 248 m 2,0,1
 595 109 595 109 513.5 44.5 c 128,-1,2
 432 -20 432 -20 280 -20 c 0,3,4
 225 -20 225 -20 180.5 -12 c 128,-1,5
 136 -4 136 -4 98.5 14 c 128,-1,6
 61 32 61 32 39.5 65 c 128,-1,7
 18 98 18 98 18 144 c 0,8,9
 18 193 18 193 31 259 c 2,10,-1
 108 660 l 1,11,-1
 380 660 l 1,12,-1
 303 245 l 1,13,14
 288 158 288 158 288 137 c 0,15,16
 288 107 288 107 300 93.5 c 128,-1,17
 312 80 312 80 340 80 c 0,18,19
 359 80 359 80 373.5 87.5 c 128,-1,20
 388 95 388 95 398 106.5 c 128,-1,21
 408 118 408 118 416 139.5 c 128,-1,22
 424 161 424 161 429.5 182 c 128,-1,23
 435 203 435 203 441 236 c 2,24,-1
 525 660 l 1,25,-1
 699 660 l 1,26,-1
 621 248 l 2,0,1
558 859 m 0,27,28
 609 859 609 859 641 835.5 c 128,-1,29
 673 812 673 812 673 774 c 0,30,31
 673 734 673 734 640 712 c 128,-1,32
 607 690 607 690 554 690 c 128,-1,33
 501 690 501 690 468.5 711.5 c 128,-1,34
 436 733 436 733 436 772 c 0,35,36
 436 812 436 812 471 835.5 c 128,-1,37
 506 859 506 859 558 859 c 0,27,28
309 859 m 0,38,39
 360 859 360 859 392 835.5 c 128,-1,40
 424 812 424 812 424 774 c 0,41,42
 424 734 424 734 391 712 c 128,-1,43
 358 690 358 690 305 690 c 128,-1,44
 252 690 252 690 219.5 711.5 c 128,-1,45
 187 733 187 733 187 772 c 0,46,47
 187 812 187 812 222 835.5 c 128,-1,48
 257 859 257 859 309 859 c 0,38,39
EndSplineSet
Validated: 8388609
Position2: "'cpsp' Capital Spacing lookup 3 subtable" dx=5 dy=0 dh=10 dv=0
EndChar

StartChar: Udotbelow
Encoding: 7908 7908 128
Width: 646
Flags: MW
HStem: -201 169<249 313> -20 100<320 373 320 382> 640 20G<108 380 380 380 525 699 699 699>
VStem: 18 681<80 660> 161 237<-145 -92>
LayerCount: 2
UndoRedoHistory
Layer: 0
Undoes
EndUndoes
Redoes
EndRedoes
EndUndoRedoHistory
UndoRedoHistory
Layer: 1
Undoes
EndUndoes
Redoes
EndRedoes
EndUndoRedoHistory
Fore
SplineSet
283 -32 m 0,0,1
 334 -32 334 -32 366 -55.5 c 128,-1,2
 398 -79 398 -79 398 -117 c 0,3,4
 398 -157 398 -157 365 -179 c 128,-1,5
 332 -201 332 -201 279 -201 c 128,-1,6
 226 -201 226 -201 193.5 -179.5 c 128,-1,7
 161 -158 161 -158 161 -119 c 0,8,9
 161 -79 161 -79 196 -55.5 c 128,-1,10
 231 -32 231 -32 283 -32 c 0,0,1
621 248 m 2,11,12
 595 109 595 109 513.5 44.5 c 128,-1,13
 432 -20 432 -20 280 -20 c 0,14,15
 225 -20 225 -20 180.5 -12 c 128,-1,16
 136 -4 136 -4 98.5 14 c 128,-1,17
 61 32 61 32 39.5 65 c 128,-1,18
 18 98 18 98 18 144 c 0,19,20
 18 193 18 193 31 259 c 2,21,-1
 108 660 l 1,22,-1
 380 660 l 1,23,-1
 303 245 l 1,24,25
 288 158 288 158 288 137 c 0,26,27
 288 107 288 107 300 93.5 c 128,-1,28
 312 80 312 80 340 80 c 0,29,30
 359 80 359 80 373.5 87.5 c 128,-1,31
 388 95 388 95 398 106.5 c 128,-1,32
 408 118 408 118 416 139.5 c 128,-1,33
 424 161 424 161 429.5 182 c 128,-1,34
 435 203 435 203 441 236 c 2,35,-1
 525 660 l 1,36,-1
 699 660 l 1,37,-1
 621 248 l 2,11,12
EndSplineSet
Validated: 8388609
Position2: "'cpsp' Capital Spacing lookup 3 subtable" dx=5 dy=0 dh=10 dv=0
EndChar

StartChar: Ugrave
Encoding: 217 217 129
Width: 646
Flags: MW
HStem: -20 100<320 373 320 382> 640 20G<108 380 380 380 525 699 699 699> 711 50
VStem: 18 681<80 660>
LayerCount: 2
UndoRedoHistory
Layer: 0
Undoes
EndUndoes
Redoes
EndRedoes
EndUndoRedoHistory
UndoRedoHistory
Layer: 1
Undoes
EndUndoes
Redoes
EndRedoes
EndUndoRedoHistory
Fore
SplineSet
621 248 m 2,0,1
 595 109 595 109 513.5 44.5 c 128,-1,2
 432 -20 432 -20 280 -20 c 0,3,4
 225 -20 225 -20 180.5 -12 c 128,-1,5
 136 -4 136 -4 98.5 14 c 128,-1,6
 61 32 61 32 39.5 65 c 128,-1,7
 18 98 18 98 18 144 c 0,8,9
 18 193 18 193 31 259 c 2,10,-1
 108 660 l 1,11,-1
 380 660 l 1,12,-1
 303 245 l 1,13,14
 288 158 288 158 288 137 c 0,15,16
 288 107 288 107 300 93.5 c 128,-1,17
 312 80 312 80 340 80 c 0,18,19
 359 80 359 80 373.5 87.5 c 128,-1,20
 388 95 388 95 398 106.5 c 128,-1,21
 408 118 408 118 416 139.5 c 128,-1,22
 424 161 424 161 429.5 182 c 128,-1,23
 435 203 435 203 441 236 c 2,24,-1
 525 660 l 1,25,-1
 699 660 l 1,26,-1
 621 248 l 2,0,1
541 710 m 1,27,-1
 420 713 l 2,28,29
 378 714 378 714 346.5 723.5 c 128,-1,30
 315 733 315 733 294.5 755.5 c 128,-1,31
 274 778 274 778 274 812 c 0,32,33
 274 847 274 847 305 870 c 1,34,-1
 555 762 l 1,35,-1
 541 710 l 1,27,-1
EndSplineSet
Validated: 1
Position2: "'cpsp' Capital Spacing lookup 3 subtable" dx=5 dy=0 dh=10 dv=0
EndChar

StartChar: Uhungarumlaut
Encoding: 368 368 130
Width: 646
Flags: MW
HStem: -20 100<320 373 320 382> 640 20G<108 380 380 380 525 699 699 699>
VStem: 18 716<80 809>
LayerCount: 2
UndoRedoHistory
Layer: 0
Undoes
EndUndoes
Redoes
EndRedoes
EndUndoRedoHistory
UndoRedoHistory
Layer: 1
Undoes
EndUndoes
Redoes
EndRedoes
EndUndoRedoHistory
Fore
SplineSet
621 248 m 2,0,1
 595 109 595 109 513.5 44.5 c 128,-1,2
 432 -20 432 -20 280 -20 c 0,3,4
 225 -20 225 -20 180.5 -12 c 128,-1,5
 136 -4 136 -4 98.5 14 c 128,-1,6
 61 32 61 32 39.5 65 c 128,-1,7
 18 98 18 98 18 144 c 0,8,9
 18 193 18 193 31 259 c 2,10,-1
 108 660 l 1,11,-1
 380 660 l 1,12,-1
 303 245 l 1,13,14
 288 158 288 158 288 137 c 0,15,16
 288 107 288 107 300 93.5 c 128,-1,17
 312 80 312 80 340 80 c 0,18,19
 359 80 359 80 373.5 87.5 c 128,-1,20
 388 95 388 95 398 106.5 c 128,-1,21
 408 118 408 118 416 139.5 c 128,-1,22
 424 161 424 161 429.5 182 c 128,-1,23
 435 203 435 203 441 236 c 2,24,-1
 525 660 l 1,25,-1
 699 660 l 1,26,-1
 621 248 l 2,0,1
688 862 m 1,27,28
 709 850 709 850 721.5 832 c 128,-1,29
 734 814 734 814 734 795 c 0,30,31
 734 755 734 755 707.5 733.5 c 128,-1,32
 681 712 681 712 622 705 c 2,33,-1
 519 692 l 1,34,-1
 486 747 l 1,35,-1
 688 862 l 1,27,28
439 862 m 1,36,37
 461 850 461 850 474.5 832 c 128,-1,38
 488 814 488 814 488 794 c 0,39,40
 488 753 488 753 461.5 732 c 128,-1,41
 435 711 435 711 376 705 c 1,42,-1
 271 692 l 1,43,-1
 240 747 l 1,44,-1
 439 862 l 1,36,37
EndSplineSet
Validated: 1
Position2: "'cpsp' Capital Spacing lookup 3 subtable" dx=5 dy=0 dh=10 dv=0
EndChar

StartChar: Umacron
Encoding: 362 362 131
Width: 646
Flags: MW
HStem: -20 100<320 373 320 382> 640 20G<108 380 380 380 525 699 699 699> 742 96<349 526 281 602>
VStem: 18 681<80 660>
LayerCount: 2
UndoRedoHistory
Layer: 0
Undoes
EndUndoes
Redoes
EndRedoes
EndUndoRedoHistory
UndoRedoHistory
Layer: 1
Undoes
EndUndoes
Redoes
EndRedoes
EndUndoRedoHistory
Fore
SplineSet
621 248 m 2,0,1
 595 109 595 109 513.5 44.5 c 128,-1,2
 432 -20 432 -20 280 -20 c 0,3,4
 225 -20 225 -20 180.5 -12 c 128,-1,5
 136 -4 136 -4 98.5 14 c 128,-1,6
 61 32 61 32 39.5 65 c 128,-1,7
 18 98 18 98 18 144 c 0,8,9
 18 193 18 193 31 259 c 2,10,-1
 108 660 l 1,11,-1
 380 660 l 1,12,-1
 303 245 l 1,13,14
 288 158 288 158 288 137 c 0,15,16
 288 107 288 107 300 93.5 c 128,-1,17
 312 80 312 80 340 80 c 0,18,19
 359 80 359 80 373.5 87.5 c 128,-1,20
 388 95 388 95 398 106.5 c 128,-1,21
 408 118 408 118 416 139.5 c 128,-1,22
 424 161 424 161 429.5 182 c 128,-1,23
 435 203 435 203 441 236 c 2,24,-1
 525 660 l 1,25,-1
 699 660 l 1,26,-1
 621 248 l 2,0,1
602 838 m 1,27,28
 606 822 606 822 606 808 c 0,29,30
 606 779 606 779 585.5 760.5 c 128,-1,31
 565 742 565 742 526 742 c 2,32,-1
 281 742 l 1,33,34
 278 751 278 751 278 770 c 0,35,36
 278 800 278 800 298.5 819 c 128,-1,37
 319 838 319 838 349 838 c 2,38,-1
 602 838 l 1,27,28
EndSplineSet
Validated: 1
Position2: "'cpsp' Capital Spacing lookup 3 subtable" dx=5 dy=0 dh=10 dv=0
EndChar

StartChar: Uogonek
Encoding: 370 370 132
Width: 646
Flags: MW
HStem: -258 99<401 412> -20 100<212 373> 640 20G<108 380 380 380 525 699 699 699>
VStem: 241 132<-131 -124>
LayerCount: 2
UndoRedoHistory
Layer: 0
Undoes
EndUndoes
Redoes
EndRedoes
EndUndoRedoHistory
UndoRedoHistory
Layer: 1
Undoes
EndUndoes
Redoes
EndRedoes
EndUndoRedoHistory
Fore
SplineSet
699 660 m 1,0,-1
 621 248 l 2,1,2
 604 158 604 158 564 100 c 128,-1,3
 524 42 524 42 459 12 c 1,4,-1
 459 10 l 1,5,6
 420 -17 420 -17 396.5 -50 c 128,-1,7
 373 -83 373 -83 373 -115 c 0,8,9
 373 -138 373 -138 383.5 -148.5 c 128,-1,10
 394 -159 394 -159 415 -159 c 0,11,12
 454 -159 454 -159 475 -134 c 1,13,14
 494 -161 494 -161 494 -194 c 0,15,16
 494 -221 494 -221 462 -239.5 c 128,-1,17
 430 -258 430 -258 369 -258 c 128,-1,18
 308 -258 308 -258 274.5 -231.5 c 128,-1,19
 241 -205 241 -205 241 -154 c 0,20,21
 241 -69 241 -69 314 -19 c 1,22,-1
 280 -20 l 1,23,24
 225 -20 225 -20 180.5 -12 c 128,-1,25
 136 -4 136 -4 98.5 14 c 128,-1,26
 61 32 61 32 39.5 65 c 128,-1,27
 18 98 18 98 18 144 c 0,28,29
 18 193 18 193 31 259 c 2,30,-1
 108 660 l 1,31,-1
 380 660 l 1,32,-1
 303 245 l 1,33,34
 288 158 288 158 288 137 c 0,35,36
 288 107 288 107 300 93.5 c 128,-1,37
 312 80 312 80 340 80 c 0,38,39
 359 80 359 80 373.5 87.5 c 128,-1,40
 388 95 388 95 398 106.5 c 128,-1,41
 408 118 408 118 416 139.5 c 128,-1,42
 424 161 424 161 429.5 182 c 128,-1,43
 435 203 435 203 441 236 c 2,44,-1
 525 660 l 1,45,-1
 699 660 l 1,0,-1
EndSplineSet
Validated: 1
Position2: "'cpsp' Capital Spacing lookup 3 subtable" dx=5 dy=0 dh=10 dv=0
EndChar

StartChar: Uring
Encoding: 366 366 133
Width: 646
Flags: MW
HStem: -20 100<320 373 320 382> 640 20G<108 380 380 380 525 699 699 699> 690 38<422 452 422 459> 813 41<438 468>
VStem: 329 73<749 776 749 789> 486 72<765 792>
LayerCount: 2
UndoRedoHistory
Layer: 0
Undoes
EndUndoes
Redoes
EndRedoes
EndUndoRedoHistory
UndoRedoHistory
Layer: 1
Undoes
EndUndoes
Redoes
EndRedoes
EndUndoRedoHistory
Fore
SplineSet
621 248 m 2,0,1
 595 109 595 109 513.5 44.5 c 128,-1,2
 432 -20 432 -20 280 -20 c 0,3,4
 225 -20 225 -20 180.5 -12 c 128,-1,5
 136 -4 136 -4 98.5 14 c 128,-1,6
 61 32 61 32 39.5 65 c 128,-1,7
 18 98 18 98 18 144 c 0,8,9
 18 193 18 193 31 259 c 2,10,-1
 108 660 l 1,11,-1
 380 660 l 1,12,-1
 303 245 l 1,13,14
 288 158 288 158 288 137 c 0,15,16
 288 107 288 107 300 93.5 c 128,-1,17
 312 80 312 80 340 80 c 0,18,19
 359 80 359 80 373.5 87.5 c 128,-1,20
 388 95 388 95 398 106.5 c 128,-1,21
 408 118 408 118 416 139.5 c 128,-1,22
 424 161 424 161 429.5 182 c 128,-1,23
 435 203 435 203 441 236 c 2,24,-1
 525 660 l 1,25,-1
 699 660 l 1,26,-1
 621 248 l 2,0,1
486 781 m 0,27,28
 486 798 486 798 479.5 805.5 c 128,-1,29
 473 813 473 813 458 813 c 0,30,31
 430 813 430 813 416 799 c 128,-1,32
 402 785 402 785 402 760 c 0,33,34
 402 743 402 743 409.5 735.5 c 128,-1,35
 417 728 417 728 433 728 c 0,36,37
 486 728 486 728 486 781 c 0,27,28
558 784 m 0,38,39
 558 742 558 742 518.5 716 c 128,-1,40
 479 690 479 690 424 690 c 0,41,42
 381 690 381 690 355 708.5 c 128,-1,43
 329 727 329 727 329 759 c 0,44,45
 329 801 329 801 370 827.5 c 128,-1,46
 411 854 411 854 468 854 c 0,47,48
 510 854 510 854 534 836 c 128,-1,49
 558 818 558 818 558 784 c 0,38,39
EndSplineSet
Validated: 1
Position2: "'cpsp' Capital Spacing lookup 3 subtable" dx=5 dy=0 dh=10 dv=0
EndChar

StartChar: Utilde
Encoding: 360 360 134
Width: 646
Flags: MW
HStem: -20 100<320 373 320 382> 640 20G<108 380 380 380 525 699 699 699> 721 119<545 582 545 582> 740 117<311 345>
VStem: 18 681<80 660>
LayerCount: 2
UndoRedoHistory
Layer: 0
Undoes
EndUndoes
Redoes
EndRedoes
EndUndoRedoHistory
UndoRedoHistory
Layer: 1
Undoes
EndUndoes
Redoes
EndRedoes
EndUndoRedoHistory
Fore
SplineSet
621 248 m 2,0,1
 595 109 595 109 513.5 44.5 c 128,-1,2
 432 -20 432 -20 280 -20 c 0,3,4
 225 -20 225 -20 180.5 -12 c 128,-1,5
 136 -4 136 -4 98.5 14 c 128,-1,6
 61 32 61 32 39.5 65 c 128,-1,7
 18 98 18 98 18 144 c 0,8,9
 18 193 18 193 31 259 c 2,10,-1
 108 660 l 1,11,-1
 380 660 l 1,12,-1
 303 245 l 1,13,14
 288 158 288 158 288 137 c 0,15,16
 288 107 288 107 300 93.5 c 128,-1,17
 312 80 312 80 340 80 c 0,18,19
 359 80 359 80 373.5 87.5 c 128,-1,20
 388 95 388 95 398 106.5 c 128,-1,21
 408 118 408 118 416 139.5 c 128,-1,22
 424 161 424 161 429.5 182 c 128,-1,23
 435 203 435 203 441 236 c 2,24,-1
 525 660 l 1,25,-1
 699 660 l 1,26,-1
 621 248 l 2,0,1
634 857 m 1,27,28
 655 832 655 832 655 801 c 0,29,30
 655 762 655 762 627 741.5 c 128,-1,31
 599 721 599 721 549 721 c 0,32,33
 521 721 521 721 432.5 730.5 c 128,-1,34
 344 740 344 740 325 740 c 0,35,36
 305 740 305 740 284 734.5 c 128,-1,37
 263 729 263 729 253 722 c 1,38,39
 231 751 231 751 231 784 c 0,40,41
 231 819 231 819 259 838 c 128,-1,42
 287 857 287 857 339 857 c 0,43,44
 371 857 371 857 459 848.5 c 128,-1,45
 547 840 547 840 569 840 c 0,46,47
 615 840 615 840 634 857 c 1,27,28
EndSplineSet
Validated: 8388609
Position2: "'cpsp' Capital Spacing lookup 3 subtable" dx=5 dy=0 dh=10 dv=0
EndChar

